<?xml version="1.0" standalone="no"?>
<!DOCTYPE svg PUBLIC "-//W3C//DTD SVG 1.1//EN" "http://www.w3.org/Graphics/SVG/1.1/DTD/svg11.dtd" >
<svg>
<metadata>
Created by FontForge 20120731 at Mon Mar 15 16:52:14 2021
 By ffonts
Copyright 2020 The Inter Project Authors (https://github.com/rsms/inter)
</metadata>
<defs>
<font id="LinikSans-Medium" horiz-adv-x="0" >
  <font-face 
    font-family="Linik Sans Medium"
    font-weight="500"
    font-stretch="normal"
    units-per-em="2816"
    panose-1="2 11 6 2 3 0 0 0 0 4"
    ascent="2252"
    descent="-564"
    x-height="1536"
    cap-height="2048"
    bbox="-2131 -1106 4650 3072"
    underline-thickness="218"
    underline-position="-1217"
    unicode-range="U+001D-2717"
  />
<missing-glyph horiz-adv-x="2852" 
d="M2590 -640h-2328v512h2328v-512zM2590 64h-2328v512h2328v-512zM2590 768h-2328v512h2328v-512zM2590 1472h-2328v512h2328v-512zM2590 2176h-2328v512h2328v-512z" />
    <glyph glyph-name=".notdef" horiz-adv-x="2852" 
d="M2590 -640h-2328v512h2328v-512zM2590 64h-2328v512h2328v-512zM2590 768h-2328v512h2328v-512zM2590 1472h-2328v512h2328v-512zM2590 2176h-2328v512h2328v-512z" />
    <glyph glyph-name="uni0000" 
 />
    <glyph glyph-name="uni0000" 
 />
    <glyph glyph-name="nonmarkingreturn" horiz-adv-x="938" 
 />
    <glyph glyph-name="space" unicode=" " horiz-adv-x="746" 
 />
    <glyph glyph-name="exclam" unicode="!" horiz-adv-x="827" 
d="M552 589h-277l-26 1459h329zM413 -19q-81 0 -141 57q-59 57 -59 143q0 85 59 142q60 57 141 57t140 -57q60 -57 60 -142q0 -86 -60 -143q-59 -57 -140 -57z" />
    <glyph glyph-name="quotedbl" unicode="&#x22;" horiz-adv-x="1126" 
d="M428 1319h-248v729h248v-729zM942 1319h-248v729h248v-729z" />
    <glyph glyph-name="numbersign" unicode="#" horiz-adv-x="1794" 
d="M1209 0h-240l90 548h-480l-90 -548h-240l90 548h-297l39 240h297l78 472h-295l39 240h295l90 548h240l-90 -548h480l90 548h240l-90 -548h297l-39 -240h-297l-78 -472h295l-39 -240h-295zM1098 788l78 472h-480l-78 -472h480z" />
    <glyph glyph-name="dollar" unicode="$" horiz-adv-x="1812" 
d="M1002 -256h-188l1 225q-152 13 -272 58t-205 120t-134.5 180t-59.5 239h310q15 -146 114 -225q100 -80 248 -98l2 681l-86 23q-533 141 -533 541q-1 123 45.5 224t129.5 176t197.5 122t249.5 61l1 233h188l-1 -231q280 -25 451 -178q169 -151 180 -385h-298
q-11 67 -39.5 118.5t-72 87.5t-100 57.5t-122.5 29.5l-2 -642l56 -14q29 -8 55.5 -15t49.5 -14q501 -152 501 -552q0 -243 -173 -407q-172 -163 -492 -190zM1004 243q78 10 143.5 36.5t113 67.5t74.5 96.5t27 125.5q0 65 -27.5 113t-76 83.5t-113.5 61t-139 45.5zM819 1211
l1 591q-81 -14 -140.5 -43t-97.5 -68t-56.5 -86t-18.5 -99q2 -86 49 -144q49 -60 118.5 -96t144.5 -55z" />
    <glyph glyph-name="percent" unicode="%" horiz-adv-x="2332" 
d="M1683 -42q-142 0 -233 61q-48 33 -83 73.5t-57.5 87.5t-33 98.5t-10.5 105.5v108q1 89 28.5 167t80 135.5t130 90.5t178.5 33q139 0 230 -58q48 -32 83 -72.5t57.5 -88t33.5 -100t11 -107.5v-108q0 -81 -24 -157.5t-74.5 -136t-129 -96t-187.5 -36.5zM593 1130
q-71 0 -129 16t-104 44.5t-80 68t-56 86.5q-48 97 -48 211v108q0 80 24.5 156.5t75.5 136.5t129.5 96.5t187.5 36.5q105 1 182.5 -33.5t128.5 -93t76.5 -136t26.5 -163.5v-108q0 -81 -24 -157.5t-74 -136t-128.5 -96t-187.5 -36.5zM559 0h-239l1408 2048h239zM1683 158
q52 0 86.5 19.5t55.5 51t30 72t9 83.5v108q-1 39 -8.5 80t-27.5 73.5t-55 53t-90 19.5q-50 0 -84.5 -19t-57 -50.5t-32.5 -72.5t-10 -84v-108q0 -42 9 -82.5t30 -72.5t56.5 -51.5t88.5 -19.5zM593 1330q52 0 86.5 19.5t55.5 51t30 72t9 83.5v108q-1 39 -8.5 80t-27.5 73.5
t-55 53t-90 19.5q-50 0 -85 -19.5t-56.5 -51t-31.5 -72t-10 -83.5v-108q0 -39 8.5 -79.5t29.5 -73t56 -53t89 -20.5z" />
    <glyph glyph-name="ampersand" unicode="&#x26;" horiz-adv-x="1833" 
d="M797 -29q-156 -1 -279.5 43t-209 121.5t-130.5 182.5t-44 226q0 89 28 164.5t79 142.5t123.5 128t162.5 122q-47 55 -88 111.5t-71.5 116.5t-48 124t-17.5 133q0 217 142 350q143 134 375 134q120 1 214.5 -35.5t160 -98.5t100 -143t33.5 -169q0 -146 -71.5 -258
t-200.5 -204l-140 -103l410 -490q85 161 85 361h270q0 -101 -14 -188t-37 -159.5t-54 -131t-65 -103.5l291 -348h-338l-138 162q-113 -101 -254 -146t-274 -45zM798 224q190 0 359 136l-459 539q-32 -23 -58 -43t-47.5 -38.5t-40 -37t-34.5 -39.5q-48 -60 -67.5 -108.5
t-19.5 -80.5q0 -60 23.5 -119.5t70 -106.5t115 -75.5t158.5 -26.5zM750 1258l126 89q42 27 75 55t56 60.5t35 70.5t12 83q0 32 -14.5 68t-43 67t-71 50.5t-99.5 18.5q-57 1 -102 -20.5t-76.5 -56t-47.5 -77.5t-16 -85q0 -39 12.5 -78.5t35 -79.5t52.5 -81.5t66 -83.5z" />
    <glyph glyph-name="quotesingle" unicode="'" horiz-adv-x="612" 
d="M428 1319h-248v729h248v-729z" />
    <glyph glyph-name="parenleft" unicode="(" horiz-adv-x="1064" 
d="M950 -426h-274q-388 541 -388 1276q0 734 388 1275h274q-98 -137 -178 -340q-40 -102 -71.5 -212.5t-55.5 -231.5q-47 -244 -47 -491q0 -246 47 -490q46 -242 126 -444q79 -201 179 -342z" />
    <glyph glyph-name="parenright" unicode=")" horiz-adv-x="1064" 
d="M388 -426h-274q50 69 94 154t84 187t72 212.5t55 231.5q47 244 47 490q0 245 -47 489q-23 121 -55 232t-72 213q-80 204 -178 342h274q388 -541 388 -1276q0 -734 -388 -1275z" />
    <glyph glyph-name="asterisk" unicode="*" horiz-adv-x="1469" 
d="M843 896h-217l19 422l-356 -229l-109 190l378 193l-378 193l109 190l356 -229l-19 422h217l-19 -422l356 229l109 -190l-378 -193l378 -193l-109 -190l-356 229z" />
    <glyph glyph-name="plus" unicode="+" horiz-adv-x="1837" 
d="M1053 150h-269v525h-526v269h526v526h269v-526h525v-269h-525v-525z" />
    <glyph glyph-name="comma" unicode="," horiz-adv-x="798" 
d="M381 -500h-212l8 38q38 155 64 311.5t42 318.5l10 112h288q-8 -70 -18.5 -132t-21.5 -117q-23 -111 -61 -236q-58 -188 -99 -295z" />
    <glyph glyph-name="hyphen" unicode="-" horiz-adv-x="1304" 
d="M1106 736h-908v259h908v-259z" />
    <glyph glyph-name="period" unicode="." horiz-adv-x="797" 
d="M401 -19q-81 0 -141 57q-59 57 -59 143q0 85 59 142q60 57 141 57t140 -57q60 -57 60 -142q0 -86 -60 -143q-59 -57 -140 -57z" />
    <glyph glyph-name="slash" unicode="/" horiz-adv-x="1035" 
d="M321 -308h-267l660 2452h267z" />
    <glyph glyph-name="zero" unicode="0" horiz-adv-x="1951" 
d="M976 -33q-359 4 -555 279t-196 778q4 503 201 778q198 275 550 275t551 -277q199 -275 199 -776q0 -503 -198 -780q-196 -277 -552 -277zM976 234q95 0 176 45t140.5 141t93 245.5t33.5 358.5q0 328 -89 529l-606 -1215q104 -104 252 -104zM619 500l603 1215
q-101 100 -246 100q-127 0 -227 -83.5t-158 -263.5q-56 -177 -59 -444q0 -328 87 -524z" />
    <glyph glyph-name="one" unicode="1" horiz-adv-x="1951" 
d="M1282 0h-310v1738h-12l-490 -320v296l511 334h301v-2048z" />
    <glyph glyph-name="two" unicode="2" horiz-adv-x="1951" 
d="M1657 0h-1348v224l693 718q87 89 149.5 162.5t100.5 133.5q78 118 78 248q1 82 -29 144t-81 104t-117.5 63t-138.5 21q-87 0 -154.5 -26.5t-113 -74.5t-69.5 -115t-25 -148h-295q-1 95 22 178t65 152.5t102.5 124t134.5 92t160 56.5t179 19q147 1 268 -44.5t207 -124.5
t133 -185.5t46 -226.5q0 -177 -113 -358q-113 -180 -369 -431l-407 -426v-15h922v-265z" />
    <glyph glyph-name="three" unicode="3" horiz-adv-x="1951" 
d="M967 -28q-185 0 -345 63q-161 65 -267 199q-97 124 -109 300h313q18 -144 132 -220q113 -76 279 -76q82 0 157.5 20t132.5 63t90.5 109t32.5 158q0 49 -11.5 96t-36 89t-63 78t-92.5 63q-104 52 -274 52h-183v234l492 568v15h-868v265h1272v-224l-548 -628v-16
q287 -24 456 -194q169 -169 169 -408q0 -93 -25.5 -173t-71.5 -146.5t-111 -119t-144 -89.5q-165 -78 -377 -78z" />
    <glyph glyph-name="four" unicode="4" horiz-adv-x="1951" 
d="M1474 0h-293v400h-971v250l802 1398h302l-783 -1370v-16h654v618h289v-618h273v-262h-273v-400z" />
    <glyph glyph-name="five" unicode="5" horiz-adv-x="1951" 
d="M971 -28q-101 0 -188.5 20t-159.5 56t-129.5 86t-98.5 111q-86 127 -95 289h300q23 -146 126 -224q105 -78 245 -78q175 0 291 120q115 119 115 304q0 188 -117 308q-115 121 -302 126q-44 0 -89 -7.5t-89.5 -22t-85.5 -36t-75 -50.5l-283 42l115 1032h1126v-265h-869
l-65 -573h12q58 58 152.5 97t220.5 39q98 0 183 -24t156.5 -67.5t127.5 -104t97 -134.5q82 -155 84 -354q-3 -212 -94 -363q-100 -163 -259 -245q-158 -82 -352 -82z" />
    <glyph glyph-name="six" unicode="6" horiz-adv-x="1951" 
d="M992 -28q-93 0 -184 21t-174 68t-154 123t-123.5 185t-82 254.5t-29.5 331.5t25 340.5t71.5 278.5t114 218t151.5 157q172 132 411 132q138 1 253 -41t201 -117t141 -179t73 -228h-305q-31 132 -124 213q-92 81 -239 81q-207 0 -328 -162q-146 -197 -149 -583h15
q37 61 88 111.5t115 87.5t140 57.5t165 20.5q96 0 180.5 -24.5t154.5 -68t125 -103t93 -128.5q84 -150 86 -349q-2 -108 -26.5 -200t-68 -168.5t-105.5 -136.5t-138 -102q-161 -90 -373 -90zM991 232q91 -1 166 32.5t129.5 92t85 138t31.5 170.5q-6 189 -119 308
q-112 118 -286 118q-91 1 -167 -33.5t-131 -93.5t-87 -137t-34 -165q0 -125 56 -220q28 -47 65 -85.5t81.5 -66.5t97 -43t112.5 -15z" />
    <glyph glyph-name="seven" unicode="7" horiz-adv-x="1951" 
d="M751 0h-323l894 1768v15h-1034v265h1354v-274z" />
    <glyph glyph-name="eight" unicode="8" horiz-adv-x="1951" 
d="M972 -28q-112 0 -209 20.5t-177.5 57t-143 87.5t-106.5 113q-91 129 -93 296q7 208 121 344q113 136 291 172v12q-169 50 -251 172q-84 125 -85 284q4 171 91 291q85 118 225 184q150 71 337 71q100 0 186 -19.5t157.5 -54.5t127 -83.5t95.5 -107.5q82 -123 87 -281
q-4 -161 -89 -285q-82 -123 -247 -171v-12q175 -36 288 -172q114 -136 124 -344q-7 -183 -104 -308q-95 -123 -248 -191q-164 -75 -377 -75zM972 225q99 0 175.5 24.5t129 69.5t81 108t30.5 139q-12 176 -129 271q-116 94 -287 94q-180 0 -298 -101q-117 -101 -118 -264
q1 -75 27.5 -137.5t78.5 -107.5t129.5 -70.5t180.5 -25.5zM972 1178q149 0 247 86q97 85 105 240q-9 158 -107 238q-98 81 -245 81q-151 0 -248 -81q-98 -80 -104 -238q5 -156 103 -241t249 -85z" />
    <glyph glyph-name="nine" unicode="9" horiz-adv-x="1951" 
d="M901 0h-327l526 769q-75 -27 -155 -27q-101 0 -187.5 23.5t-157.5 66.5t-126.5 102t-94.5 131q-82 149 -82 340q0 103 24 192t67 162.5t103 131.5t133 99q152 86 347 86q270 0 452 -156q227 -197 227 -526q0 -146 -67 -314q-34 -85 -88 -183t-130 -210zM972 1000
q166 0 273 114q107 115 107 292q0 181 -107 297t-273 116q-167 0 -273 -115t-106 -294q0 -181 106 -296q106 -114 273 -114z" />
    <glyph glyph-name="colon" unicode=":" horiz-adv-x="797" 
d="M401 1099q-81 0 -141 57q-59 57 -59 143q0 85 59 142q60 57 141 57t140 -57q60 -57 60 -142q0 -86 -60 -143q-59 -57 -140 -57zM401 -19q-81 0 -141 57q-59 57 -59 143q0 85 59 142q60 57 141 57t140 -57q60 -57 60 -142q0 -86 -60 -143q-59 -57 -140 -57z" />
    <glyph glyph-name="semicolon" unicode=";" horiz-adv-x="795" 
d="M386 -500h-212l8 38q38 155 64 311.5t42 318.5l10 112h288q-8 -70 -18.5 -132t-21.5 -117q-23 -111 -61 -236q-58 -188 -99 -295zM430 1099q-81 0 -141 57q-59 57 -59 143q0 85 59 142q60 57 141 57t140 -57q60 -57 60 -142q0 -86 -60 -143q-59 -57 -140 -57z" />
    <glyph glyph-name="less" unicode="&#x3c;" horiz-adv-x="1837" 
d="M1582 50l-1328 644v224l1328 644v-305l-970 -442v-18l970 -441v-306z" />
    <glyph glyph-name="equal" unicode="=" horiz-adv-x="1837" 
d="M1527 367h-1217v263h1217v-263zM1527 983h-1217v263h1217v-263z" />
    <glyph glyph-name="greater" unicode="&#x3e;" horiz-adv-x="1837" 
d="M254 50v306l971 442v16l-971 443v305l1328 -644v-224z" />
    <glyph glyph-name="question" unicode="?" horiz-adv-x="1480" 
d="M814 589h-286q0 203 36 314q36 112 102 179q67 69 160 124q212 129 212 328q0 71 -26 125.5t-68.5 91t-98 55t-115.5 18.5q-50 0 -103.5 -15.5t-99 -51.5t-77 -94.5t-36.5 -143.5h-304q11 189 94 308q85 121 219 185t307 64q194 0 328 -70q145 -78 215 -200t70 -275
q0 -169 -76.5 -287t-211.5 -197q-127 -72 -184 -177q-57 -104 -57 -281zM679 -19q-81 0 -141 57q-59 57 -59 143q0 85 59 142q60 57 141 57t140 -57q60 -57 60 -142q0 -86 -60 -143q-59 -57 -140 -57z" />
    <glyph glyph-name="at" unicode="@" horiz-adv-x="2725" 
d="M1434 -557q-560 0 -885 271q-399 332 -402 1003q4 413 159 694q154 279 429 428q286 155 685 155q287 0 506 -90q114 -48 207.5 -112t167 -141t128.5 -165.5t91 -187.5q76 -201 76 -430q0 -436 -128 -644q-128 -206 -400 -206q-122 0 -219 51q-108 56 -130 175h-12
q-36 -92 -143 -155q-58 -34 -124.5 -46.5t-155.5 -12.5q-255 14 -401 203q-146 190 -146 496q0 196 74 341q86 162 227 245q142 85 318 85q133 0 219 -43q88 -43 112 -103h13v112h246v-928q0 -38 10 -72.5t30 -60.5t50 -41t70 -15q136 0 189 153q27 80 37.5 195t10.5 281
q1 193 -63.5 356t-185.5 281t-294.5 183.5t-389.5 63.5q-167 0 -305 -35t-247.5 -99.5t-191.5 -155.5t-137 -203q-116 -237 -116 -554q0 -498 264 -766q266 -269 770 -269q82 0 165 11.5t155.5 28t129.5 34t89 29.5l70 -219q-101 -47 -271 -84q-167 -37 -351 -37zM1342 275
q91 0 158.5 26t112.5 81t67 140t22 204q0 166 -38 259q-36 87 -112.5 128t-205.5 41q-86 0 -152 -32t-111 -88t-68.5 -131.5t-24.5 -161.5q0 -196 76 -320q89 -146 276 -146z" />
    <glyph glyph-name="A" unicode="A" horiz-adv-x="1971" 
d="M1901 0h-328l-187 542h-800l-188 -542h-328l737 2048h357zM1296 802l-302 874h-16l-302 -874h620z" />
    <glyph glyph-name="B" unicode="B" horiz-adv-x="1842" 
d="M1010 0h-785v2048h750q217 0 362 -71q148 -76 216 -200q68 -122 68 -267q0 -96 -28.5 -169.5t-76 -126.5t-110 -86.5t-130.5 -49.5v-20q46 -3 95 -17.5t96.5 -42.5t90 -69t74 -96.5t50.5 -126t19 -155.5q0 -151 -71 -276t-229 -202q-152 -73 -391 -73zM980 265
q112 0 190.5 23t128 63.5t72.5 95.5t23 119q0 75 -28 140t-80 112.5t-126.5 75t-168.5 27.5h-457v-656h446zM948 1162q163 0 267 89q103 90 103 235q0 62 -21 116.5t-65 95t-112.5 64t-163.5 23.5h-422v-623h414z" />
    <glyph glyph-name="C" unicode="C" horiz-adv-x="2071" 
d="M1080 -28q-202 -1 -371.5 72t-292.5 210t-191 332t-66 438q0 254 70 446q54 146 136.5 258.5t190 189t239.5 116.5t285 42q324 0 556 -182q232 -181 290 -512h-312q-42 199 -189 306q-145 106 -342 106q-169 0 -309 -85q-142 -86 -227 -264q-81 -173 -81 -421
q0 -250 81 -422q87 -180 228 -264t307 -84q193 0 341 104q147 105 191 302l312 -1q-21 -111 -61 -203.5t-97 -167t-128.5 -131.5t-155.5 -97q-177 -88 -404 -88z" />
    <glyph glyph-name="D" unicode="D" horiz-adv-x="2032" 
d="M888 0h-663v2048h684q408 0 656 -221q308 -275 308 -800q1 -245 -67 -436t-195.5 -322.5t-310.5 -200.5t-412 -68zM871 270q350 0 524 196t174 561q0 221 -70 391q-69 170 -224 268q-151 92 -385 92h-356v-1508h337z" />
    <glyph glyph-name="E" unicode="E" horiz-adv-x="1698" 
d="M1521 0h-1296v2048h1284v-266h-975v-624h908v-265h-908v-627h987v-266z" />
    <glyph glyph-name="F" unicode="F" horiz-adv-x="1650" 
d="M534 0h-309v2048h1270v-266h-961v-624h870v-265h-870v-893z" />
    <glyph glyph-name="G" unicode="G" horiz-adv-x="2128" 
d="M1090 -28q-144 0 -268 34t-226.5 97.5t-182.5 155t-136 205.5q-118 235 -118 559q0 252 71 447q145 385 482 532q168 74 372 74q170 1 316.5 -49t259 -140t187 -214t101.5 -272h-317q-56 183 -195 288q-140 105 -349 105q-165 0 -307 -85q-142 -84 -231 -263
q-83 -174 -83 -421q-2 -188 46 -332.5t132 -242t198.5 -147t247.5 -49.5q176 0 298 69q124 70 194 187t77 283h-522v255h825v-1048h-238l-28 245h-10q-120 -143 -267.5 -208t-328.5 -65z" />
    <glyph glyph-name="H" unicode="H" horiz-adv-x="2090" 
d="M1865 0h-310v893h-1021v-893h-309v2048h309v-890h1021v890h310v-2048z" />
    <glyph glyph-name="I" unicode="I" horiz-adv-x="1282" 
d="M1158 0h-1034v266h363v1516h-363v266h1034v-266h-362v-1516h362v-266z" />
    <glyph glyph-name="J" unicode="J" horiz-adv-x="1554" 
d="M706 -28q-126 0 -237 34t-193 101.5t-129.5 168.5t-47.5 236h307q6 -136 92 -207t216 -71q70 0 126 22t96 66.5t61.5 112.5t23.5 161v1452h308v-1452q-4 -298 -173 -461q-167 -163 -450 -163z" />
    <glyph glyph-name="K" unicode="K" horiz-adv-x="1871" 
d="M1810 0h-372l-662 915l-242 -278v-637h-309v2048h309v-978h25l859 978h389l-826 -922z" />
    <glyph glyph-name="L" unicode="L" horiz-adv-x="1589" 
d="M1462 0h-1237v2048h309v-1782h928v-266z" />
    <glyph glyph-name="M" unicode="M" horiz-adv-x="2579" 
d="M2303 0h-294v1482h-19l-604 -1479h-244l-604 1480h-19v-1483h-294v2048h375l652 -1592h24l652 1592h375v-2048z" />
    <glyph glyph-name="N" unicode="N" horiz-adv-x="2103" 
d="M1878 0h-284l-1041 1502h-19v-1502h-309v2048h286l1042 -1504h19v1504h306v-2048z" />
    <glyph glyph-name="O" unicode="O" horiz-adv-x="2163" 
d="M1082 -28q-279 0 -484 130q-204 130 -320 361q-119 236 -119 561q0 254 70 446q144 386 480 532q168 74 373 74q201 1 370.5 -72t293 -210t192 -332t66.5 -438q0 -254 -70 -446q-142 -385 -478 -532q-168 -74 -374 -74zM1082 254q167 0 308 84q141 86 228 265
q80 174 80 421q0 248 -80 422q-87 179 -228 263q-140 85 -308 85t-308 -85q-141 -84 -227 -263q-81 -173 -81 -422q0 -128 21 -234t60 -191.5t95 -149.5t125 -106q140 -89 315 -89z" />
    <glyph glyph-name="P" unicode="P" horiz-adv-x="1800" 
d="M534 0h-309v2048h730q178 0 311 -50.5t221.5 -140t132.5 -210.5t44 -262q0 -182 -75 -333q-75 -152 -239 -245q-158 -87 -396 -87h-420v-720zM926 982q114 0 195 30t132.5 84t75.5 128t24 161q-1 81 -23.5 153.5t-73 127t-132.5 86.5t-202 31h-388v-801h392z" />
    <glyph glyph-name="Q" unicode="Q" horiz-adv-x="2164" 
d="M1938 -184h-316l-175 227q-168 -71 -365 -71q-279 0 -484 130q-204 130 -320 361q-119 236 -119 561q0 254 70 446q144 386 480 532q168 74 373 74q201 1 370.5 -72t293 -210t192 -332t66.5 -438q0 -147 -24.5 -273.5t-69 -233t-107.5 -192t-141 -149.5zM1082 254
q100 0 187 28l-291 382h304l197 -257q101 92 160 245t59 372q0 248 -80 422q-87 179 -228 263q-140 85 -308 85t-308 -85q-141 -84 -227 -263q-81 -173 -81 -422q0 -128 21 -234t60 -191.5t95 -149.5t125 -106q140 -89 315 -89z" />
    <glyph glyph-name="R" unicode="R" horiz-adv-x="1816" 
d="M1742 0h-352l-416 775h-440v-775h-309v2048h730q238 0 395 -82q164 -89 239 -234q75 -146 75 -326q0 -98 -21.5 -185.5t-67 -161.5t-116.5 -132.5t-171 -97.5zM926 1041q427 0 427 365q0 377 -431 377h-388v-742h392z" />
    <glyph glyph-name="S" unicode="S" horiz-adv-x="1812" 
d="M910 -34q-344 0 -546 159q-202 160 -220 441h310q9 -87 47.5 -149t99.5 -102t139.5 -58.5t167.5 -19.5q203 0 328 91q126 91 126 241q0 68 -30 117.5t-82.5 86t-123.5 62t-152 46.5l-242 66q-533 141 -533 541q0 92 26 171t73 144t112.5 115t145.5 85q162 73 369 73
q217 0 375 -75q166 -81 250.5 -208.5t89.5 -282.5h-298q-23 150 -140 224q-116 75 -284 75q-99 0 -176 -24.5t-129 -65.5t-79 -96.5t-27 -116.5q5 -174 205 -256q43 -18 84 -32t83 -24l200 -52q226 -51 392 -173q197 -149 197 -403q0 -163 -86 -302q-87 -138 -262 -220
q-170 -78 -410 -78z" />
    <glyph glyph-name="T" unicode="T" horiz-adv-x="1833" 
d="M1070 0h-308v1782h-638v266h1585v-266h-639v-1782z" />
    <glyph glyph-name="U" unicode="U" horiz-adv-x="2077" 
d="M1038 -34q-174 0 -322.5 49.5t-257.5 143t-171 228.5t-62 306v1355h309v-1350q-1 -110 39.5 -193.5t110.5 -140t161.5 -85.5t192.5 -29q97 0 188 27t161.5 82t113 139.5t42.5 199.5v1350h309v-1355q0 -116 -29 -214.5t-81.5 -179.5t-127 -143t-165 -104.5t-194.5 -64
t-217 -21.5z" />
    <glyph glyph-name="V" unicode="V" horiz-adv-x="1971" 
d="M1164 0h-357l-737 2048h334l570 -1668h23l570 1668h334z" />
    <glyph glyph-name="W" unicode="W" horiz-adv-x="2754" 
d="M2127 0h-311l-431 1534h-16l-431 -1534h-312l-568 2048h325l399 -1586h19l415 1586h322l415 -1587h19l398 1587h326z" />
    <glyph glyph-name="X" unicode="X" horiz-adv-x="1876" 
d="M1798 0h-360l-492 790h-16l-492 -790h-360l653 1024l-649 1024h358l490 -801h16l490 801h358l-638 -1024z" />
    <glyph glyph-name="Y" unicode="Y" horiz-adv-x="1928" 
d="M1118 0h-308v804l-743 1244h351l535 -931h22l535 931h351l-743 -1244v-804z" />
    <glyph glyph-name="Z" unicode="Z" horiz-adv-x="1799" 
d="M1636 0h-1464v206l1077 1576h-1086v266h1464v-206l-1077 -1576h1086v-266z" />
    <glyph glyph-name="bracketleft" unicode="[" horiz-adv-x="1064" 
d="M978 -426h-657v2551h657v-237h-371v-2077h371v-237z" />
    <glyph glyph-name="backslash" unicode="\" horiz-adv-x="1072" 
d="M974 -308h-279l-601 2356h279z" />
    <glyph glyph-name="bracketright" unicode="]" horiz-adv-x="1064" 
d="M743 -426h-657v237h371v2077h-371v237h657v-2551z" />
    <glyph glyph-name="asciicircum" unicode="^" horiz-adv-x="1338" 
d="M1232 1120h-265l-291 634h-14l-288 -634h-268l415 870h296z" />
    <glyph glyph-name="underscore" unicode="_" horiz-adv-x="1295" 
d="M1298 -254h-1301v254h1301v-254z" />
    <glyph glyph-name="grave" unicode="`" horiz-adv-x="1400" 
d="M974 1741h-239l-309 461h315z" />
    <glyph glyph-name="a" unicode="a" horiz-adv-x="1603" 
d="M648 -34q-102 0 -196 27.5t-165.5 84.5t-114.5 145.5t-43 210.5q0 66 13.5 119t38.5 95.5t59 75.5t76 58q84 51 187.5 75t214.5 36q125 13 200.5 23t117 24.5t55.5 37.5t15 61q0 63 -17.5 114t-53.5 86.5t-91 55t-130 19.5q-73 0 -131.5 -17.5t-103 -47t-75.5 -68.5
t-47 -81l-281 64q41 107 106 181.5t147.5 121.5t179 68t201.5 21q293 0 454 -152q142 -133 142 -384v-1020h-292v210h-12q-27 -59 -85 -114q-139 -130 -369 -130zM713 206q94 -1 167.5 28t124 77.5t76.5 112t26 130.5v198q-38 -29 -144 -48q-43 -8 -84 -14.5t-82 -11.5
l-60 -8q-189 -20 -271 -111q-44 -50 -44 -129q0 -57 22.5 -99.5t61.5 -70t92 -41t115 -13.5z" />
    <glyph glyph-name="b" unicode="b" horiz-adv-x="1762" 
d="M986 -30q-190 0 -306 98q-89 73 -138 171h-25v-239h-292v2048h299v-761h18q48 97 134 171q113 98 307 98q135 0 253 -51.5t206 -151.5t137.5 -248t48.5 -340q1 -189 -48 -337t-135.5 -250t-204.5 -155.5t-254 -52.5zM919 225q70 0 127 19.5t101.5 54.5t77.5 84t55 108
q46 122 46 277q0 106 -22.5 203t-71.5 170.5t-126.5 117t-186.5 43.5q-100 0 -175 -39t-125.5 -109.5t-75.5 -168.5t-25 -217q0 -111 24 -210.5t73.5 -173.5t124.5 -117.5t179 -41.5z" />
    <glyph glyph-name="c" unicode="c" horiz-adv-x="1599" 
d="M848 -31q-117 0 -215 27.5t-177 77.5t-138.5 120.5t-99.5 156.5q-86 180 -86 410q0 247 91 422q94 180 251 276.5t371 96.5q261 0 434 -140q171 -138 200 -376h-291q-12 55 -39 103t-69.5 84t-100 56.5t-129.5 20.5q-187 0 -302 -145q-114 -144 -114 -391
q0 -250 111 -398t305 -148q118 0 209 64q92 65 129 200h291q-14 -114 -62.5 -209t-129 -163.5t-191.5 -106.5t-248 -38z" />
    <glyph glyph-name="d" unicode="d" horiz-adv-x="1762" 
d="M776 -30q-85 0 -165.5 21t-152 66t-133 114.5t-108.5 167.5q-83 180 -83 426q0 130 22.5 238.5t64 195.5t99 152.5t127.5 110.5q145 94 331 94q195 0 308 -98q83 -74 134 -171h18v761h299v-2048h-292v239h-25q-53 -105 -139 -173q-119 -96 -305 -96zM842 225q98 0 173 40
t125.5 111.5t76.5 171.5t26 220q0 122 -26 221t-77 168.5t-126 107t-172 37.5q-101 1 -177 -40t-127 -113.5t-76.5 -170.5t-25.5 -210q0 -109 23.5 -207.5t73 -173t126 -118.5t183.5 -44z" />
    <glyph glyph-name="e" unicode="e" horiz-adv-x="1654" 
d="M863 -31q-234 0 -395 100q-162 100 -247 274q-89 178 -89 415q0 247 91 423t246 274q160 101 373 101q125 0 246.5 -40.5t222.5 -133.5q211 -201 211 -598v-106h-1092q6 -117 40.5 -204t91.5 -144t134.5 -85.5t169.5 -28.5q61 0 115.5 13t100 39.5t80.5 68t58 98.5
l283 -51q-26 -92 -79.5 -168t-134.5 -131t-187.5 -85.5t-238.5 -30.5zM1229 902q-2 90 -29.5 164.5t-77.5 128.5t-120 84t-158 30q-64 0 -118 -15.5t-98.5 -43t-79 -65t-58.5 -80.5q-26 -46 -40.5 -96.5t-18.5 -106.5h798z" />
    <glyph glyph-name="f" unicode="f" horiz-adv-x="1044" 
d="M606 0h-300v1296h-237v240h237v178q0 145 64 240q34 49 78 85t94 59.5t106 34.5t114 11q154 0 250 -41l-70 -242q-64 23 -134 23q-102 0 -152 -49.5t-50 -160.5v-138h331v-240h-331v-1296z" />
    <glyph glyph-name="g" unicode="g" horiz-adv-x="1738" 
d="M845 -605q-137 0 -246 28.5t-190 76.5t-135 110t-82 130l257 106q112 -210 399 -210q78 0 150 18.5t126 59.5t85.5 106t30.5 158v302h-19q-38 -81 -137 -165q-115 -92 -308 -92q-173 0 -319 82q-147 83 -238 257q-85 166 -85 412q0 128 22.5 235t64 193t99 151t127.5 110
q145 93 331 93q311 0 445 -269h22v249h293v-1570q0 -147 -53.5 -254.5t-146.5 -178t-219.5 -104.5t-273.5 -34zM842 271q102 0 177.5 37t125 103.5t74 160t24.5 206.5q0 109 -23.5 205t-72 167t-124.5 112t-181 40q-71 0 -127.5 -19t-101 -52.5t-77 -81t-54.5 -104.5
q-46 -117 -46 -267q0 -105 23.5 -197.5t72.5 -162t125.5 -109.5t184.5 -38z" />
    <glyph glyph-name="h" unicode="h" horiz-adv-x="1695" 
d="M1496 0h-299v941q0 90 -24.5 157t-68 111t-104 66t-132.5 22q-75 0 -141.5 -23t-117 -70.5t-80 -120t-29.5 -171.5v-912h-299v2048h295v-762h19q53 126 164.5 198t290.5 72q235 0 373 -135q153 -149 153 -444v-977z" />
    <glyph glyph-name="i" unicode="i" horiz-adv-x="701" 
d="M500 0h-299v1536h299v-1536zM352 1773q-80 0 -135 52q-54 52 -54 126q0 76 55 127q55 52 134 52q73 0 131 -50q58 -49 58 -129q0 -76 -57 -127q-56 -51 -132 -51z" />
    <glyph glyph-name="j" unicode="j" horiz-adv-x="701" 
d="M16 -574h-64v258l48 -1q106 0 153.5 56.5t47.5 164.5v1632h299v-1634q0 -110 -29 -198t-89 -150t-151 -95t-215 -33zM349 1773q-80 0 -135 52q-54 52 -54 126q0 76 55 127q55 52 134 52q73 0 131 -50q58 -49 58 -129q0 -76 -57 -127q-56 -51 -132 -51z" />
    <glyph glyph-name="k" unicode="k" horiz-adv-x="1567" 
d="M1538 0h-367l-522 694l-149 -149v-545h-299v2048h299v-1162h26l612 650h358l-622 -659z" />
    <glyph glyph-name="l" unicode="l" horiz-adv-x="768" 
d="M585 -11q-384 0 -384 369v1690h299v-1628q0 -96 25 -137.5t89 -41.5q66 2 99 13l4 1l54 -239q-65 -23 -186 -27z" />
    <glyph glyph-name="m" unicode="m" horiz-adv-x="2488" 
d="M2289 0h-299v1002q0 78 -23 134t-62 92t-91.5 53t-111.5 17q-75 0 -132.5 -24t-96.5 -67t-59 -101t-20 -127v-979h-298v1021q0 67 -22 118.5t-60 86.5t-89.5 53.5t-109.5 18.5q-134 0 -225 -99q-90 -99 -90 -252v-947h-299v1536h287v-250h19q22 59 59 108.5t89 85.5
t119.5 56t150.5 20q81 0 146.5 -19t116.5 -54.5t88.5 -85.5t61.5 -111h16q54 122 170 196q118 74 291 74q128 0 236 -54q108 -52 176 -173q62 -118 62 -299v-1030z" />
    <glyph glyph-name="n" unicode="n" horiz-adv-x="1682" 
d="M1483 0h-299v941q0 88 -24.5 155t-68 111.5t-103 67t-130.5 22.5q-73 0 -138 -23t-114 -70t-77.5 -120t-28.5 -172v-912h-299v1536h287v-250h19q27 62 68.5 112t98 85t128 54t158.5 19q108 -1 203.5 -34t167 -103t112.5 -179.5t40 -262.5v-977z" />
    <glyph glyph-name="o" unicode="o" horiz-adv-x="1696" 
d="M848 -31q-113 0 -209 26.5t-174.5 76t-139.5 119t-104 155.5q-89 180 -89 415q-2 182 50.5 329.5t147.5 251t227 159.5t291 55q113 0 209 -26.5t175 -76t139.5 -119t103.5 -155.5q89 -180 89 -418q0 -124 -24 -230t-68 -193.5t-106.5 -155t-139.5 -114.5
q-161 -99 -378 -99zM849 220q106 0 183.5 43t128.5 117t76 172.5t25 209.5q0 102 -22.5 199.5t-72 174t-128 123.5t-190.5 47q-106 0 -184 -44t-129.5 -118.5t-76.5 -173t-25 -208.5q0 -105 23 -203t73.5 -173t129 -120.5t189.5 -45.5z" />
    <glyph glyph-name="p" unicode="p" horiz-adv-x="1738" 
d="M500 -576h-299v2112h292v-249h25q48 97 134 171q113 98 307 98q135 0 253 -51.5t206 -151.5t137.5 -248t48.5 -340q1 -189 -48 -337t-135.5 -250t-204.5 -155.5t-254 -52.5q-190 0 -306 98q-89 73 -138 171h-18v-815zM895 225q70 0 127 19.5t101.5 54.5t77.5 84t55 108
q46 122 46 277q0 106 -22.5 203t-71.5 170.5t-126.5 117t-186.5 43.5q-100 0 -175 -39t-125.5 -109.5t-75.5 -168.5t-25 -217q0 -111 24 -210.5t73.5 -173.5t124.5 -117.5t179 -41.5z" />
    <glyph glyph-name="q" unicode="q" horiz-adv-x="1738" 
d="M1537 -576h-299v815h-18q-53 -105 -139 -173q-119 -96 -305 -96q-85 0 -165.5 21t-152 66t-133 114.5t-108.5 167.5q-83 180 -83 426q-1 188 48.5 335.5t136.5 248.5t205 154t255 53q193 0 308 -98q85 -73 133 -171h25v249h292v-2112zM843 225q98 0 173 40t125.5 111.5
t76.5 171.5t26 220q0 122 -26 221t-77 168.5t-126 107t-172 37.5q-102 1 -178.5 -40t-127 -113.5t-76 -170.5t-25.5 -210q0 -109 23.5 -207.5t73 -173t126.5 -118.5t184 -44z" />
    <glyph glyph-name="r" unicode="r" horiz-adv-x="1082" 
d="M500 0h-299v1536h289v-244h16q55 138 160 202q107 65 230 65q35 0 66.5 -1.5t60.5 -5.5v-286q-21 6 -63 12t-93 6q-159 0 -263 -98t-104 -248v-938z" />
    <glyph glyph-name="s" unicode="s" horiz-adv-x="1509" 
d="M754 -31q-250 0 -414 106q-164 107 -207 319l289 44q30 -118 116.5 -173t213.5 -55q77 0 137 17.5t101.5 46.5t63 67.5t21.5 80.5q0 146 -217 195l-260 57q-420 94 -420 427q0 72 21 133t59 111t90.5 88.5t116.5 65.5q133 57 306 57q124 0 222 -28t170 -79.5t119 -124.5
t70 -163l-271 -48q-11 39 -34.5 76t-61 66t-90 46.5t-121.5 17.5q-121 0 -207 -53q-90 -57 -90 -158q0 -141 241 -192l244 -56q219 -50 319.5 -154.5t100.5 -261.5q0 -147 -82 -251q-83 -104 -218 -162q-144 -62 -328 -62z" />
    <glyph glyph-name="t" unicode="t" horiz-adv-x="1047" 
d="M752 -20q-127 0 -221 42q-100 42 -161.5 132.5t-65.5 234.5v907h-225v240h225v368h299v-368h315v-240h-315v-845q0 -64 15 -104t40.5 -62.5t59 -30.5t69.5 -8q54 0 105 13l54 -247q-78 -29 -194 -32z" />
    <glyph glyph-name="u" unicode="u" horiz-adv-x="1674" 
d="M705 -20q-133 0 -249 59q-115 60 -187 193q-68 128 -68 327v977h299v-941q0 -83 24 -147t66.5 -107.5t99.5 -66t123 -22.5q83 0 164 40q82 40 141 130q55 86 56 215v899h300v-1536h-294v266h-16q-27 -62 -69 -114.5t-99.5 -90.5t-130 -59.5t-160.5 -21.5z" />
    <glyph glyph-name="v" unicode="v" horiz-adv-x="1595" 
d="M958 0h-320l-558 1536h321l389 -1182h16l388 1182h321z" />
    <glyph glyph-name="w" unicode="w" horiz-adv-x="2323" 
d="M1790 0h-305l-312 1109h-23l-312 -1109h-304l-452 1536h309l301 -1128h15l302 1128h309l300 -1123h15l299 1123h309z" />
    <glyph glyph-name="x" unicode="x" horiz-adv-x="1552" 
d="M1449 0h-327l-346 574l-345 -574h-328l478 768l-472 768h328l339 -598l342 598h327l-479 -768z" />
    <glyph glyph-name="y" unicode="y" horiz-adv-x="1595" 
d="M379 -597q-72 0 -123 11t-77 24l72 248q66 -20 120 -20q37 0 69 9t60 30.5t52.5 59t45.5 94.5l44 121l-562 1556h320l389 -1192h16l389 1192h321l-640 -1760q-135 -373 -496 -373z" />
    <glyph glyph-name="z" unicode="z" horiz-adv-x="1553" 
d="M1402 0h-1233v205l832 1057v14h-805v260h1178v-218l-800 -1044v-14h828v-260z" />
    <glyph glyph-name="braceleft" unicode="{" horiz-adv-x="1064" 
d="M978 -426q-149 0 -257.5 28t-179.5 92t-105.5 168t-34.5 256v288q0 162 -67 230q-66 70 -236 70v288q170 0 236 69q67 70 67 231v287q0 192 59 314.5t191 177.5q126 52 327 52v-237q-85 0 -142 -19t-91.5 -58t-49 -100t-14.5 -145v-364q0 -79 -24 -146
q-47 -140 -282 -189v-35q235 -49 282 -188q24 -68 24 -147v-364q0 -86 15 -147t49.5 -100t91.5 -57t141 -18v-237z" />
    <glyph glyph-name="bar" unicode="|" horiz-adv-x="964" 
d="M616 -660h-268v3368h268v-3368z" />
    <glyph glyph-name="braceright" unicode="}" horiz-adv-x="1064" 
d="M86 -426v237q84 0 141 18.5t91.5 58t49.5 100.5t15 145v364q0 81 25 147q47 139 281 188v35q-234 49 -281 189q-25 66 -25 146v364q0 85 -15 146t-49.5 100t-91.5 57.5t-141 18.5v237q150 -2 259 -30t179.5 -91t104.5 -166t34 -257v-288q0 -160 67 -230t236 -70v-288
q-162 0 -232 -66q-71 -66 -71 -234v-287q0 -152 -34.5 -256t-106 -168t-180 -92t-256.5 -28z" />
    <glyph glyph-name="asciitilde" unicode="~" horiz-adv-x="1837" 
d="M1208 537q-96 0 -184 42q-89 42 -196 139q-34 31 -61.5 52t-49.5 34q-44 26 -95 26q-36 -2 -68.5 -14t-56.5 -39.5t-37.5 -73t-13.5 -113.5h-253q0 176 54 286q57 114 152 165q94 51 202 51q96 0 182 -42q86 -40 197 -139q33 -30 60 -51.5t51 -35t47.5 -19.5t48.5 -6
q80 0 128 59t48 181h253q0 -340 -205 -451q-95 -51 -203 -51z" />
    <glyph glyph-name="uni00A0" unicode="&#xa0;" horiz-adv-x="746" 
 />
    <glyph glyph-name="exclamdown" unicode="&#xa1;" horiz-adv-x="827" 
d="M578 -519h-329l26 1459h277zM413 1149q-81 0 -141 57q-59 57 -59 142q0 86 59 143q60 57 141 57t140 -57q60 -57 60 -143q0 -85 -60 -142q-59 -57 -140 -57z" />
    <glyph glyph-name="cent" unicode="&#xa2;" horiz-adv-x="1599" 
d="M923 -256h-171v230q-293 38 -457 251q-163 214 -163 536q0 327 166 539q166 213 454 251v229h171v-228q223 -23 372 -150q150 -129 184 -362h-291q-10 46 -31 87.5t-54 75.5t-78 58.5t-102 36.5v-1070q210 41 265 258h291q-26 -213 -170 -351q-143 -139 -386 -163v-228z
M752 233v1060q-71 -18 -129.5 -60t-100.5 -108t-65 -155.5t-23 -201.5q0 -223 86 -360q85 -136 232 -175z" />
    <glyph glyph-name="sterling" unicode="&#xa3;" horiz-adv-x="1814" 
d="M1589 0h-1400v266h97q54 5 83 56q48 84 48 219l-9 261h-226v266h217l-12 396q0 195 80 329q92 147 236 215q145 68 303 68q92 1 173 -18t148.5 -54t120 -83.5t89 -106t55.5 -122.5t18 -132q0 -21 -1.5 -42.5t-5.5 -43.5l-289 46l1 31q0 88 -40 144.5t-104 85.5
q-71 33 -154 33q-61 0 -120.5 -20.5t-107 -65t-76.5 -115.5t-29 -171l14 -374h471v-266h-461l9 -266q0 -161 -82 -270h954v-266z" />
    <glyph glyph-name="currency" unicode="&#xa4;" horiz-adv-x="2075" 
d="M1034 -28q-157 0 -285 49.5t-228 133.5l-179 -180l-170 178l184 185q-147 219 -147 498q0 156 43 284.5t116 230.5l-196 200l170 178l199 -199q212 166 493 166q283 0 498 -170l199 203l175 -178l-204 -204q159 -222 159 -511q0 -276 -146 -494l191 -189l-175 -178
l-180 184q-100 -85 -229.5 -136t-287.5 -51zM1034 206q127 -2 235.5 49.5t187.5 139t123 202t43 239.5q0 93 -21.5 174t-60.5 150t-92.5 125t-117.5 97q-134 84 -297 84q-169 0 -302 -84q-135 -85 -211 -226q-77 -143 -80 -320q3 -185 83 -325q79 -137 211 -222
q133 -83 299 -83z" />
    <glyph glyph-name="yen" unicode="&#xa5;" horiz-adv-x="1566" 
d="M935 0h-308v434h-444v202h444v194h-444v202h350l-493 1016h332l411 -927l411 927h332l-493 -1016h336v-202h-434v-194h434v-202h-434v-434z" />
    <glyph glyph-name="brokenbar" unicode="&#xa6;" horiz-adv-x="822" 
d="M548 -384h-274v942h274v-942zM548 1110h-274v938h274v-938z" />
    <glyph glyph-name="section" unicode="&#xa7;" horiz-adv-x="1591" 
d="M769 -415q-126 0 -231 37t-180.5 105.5t-117.5 166t-42 218.5h280q0 -130 80 -198t206 -68q52 0 99.5 11.5t83.5 35.5t57.5 60.5t21.5 85.5q0 51 -19.5 89t-49.5 67.5t-65.5 52t-67.5 40.5l-390 209q-54 26 -126 83q-35 28 -65.5 64t-56.5 81q-52 89 -52 223
q9 125 85 213t186 123v6q-150 148 -150 335q-1 98 38 181t108 143t164 94t207 33q121 1 219 -38t167 -109t106 -165.5t36 -207.5h-277q0 55 -15 103t-45.5 82.5t-78 54.5t-112.5 20q-57 0 -101.5 -16t-75 -42.5t-46.5 -61t-16 -71.5q0 -41 19.5 -79t50 -70.5t67 -58.5
t70.5 -43l386 -211q54 -26 126 -83q73 -56 123 -143q51 -89 51 -221q-7 -116 -88 -209q-79 -91 -182 -124l-2 -4q151 -136 151 -340q0 -116 -44.5 -201.5t-119 -141.5t-171.5 -83.5t-201 -27.5zM983 515q55 0 114 50q58 51 66 144q0 140 -179 233l-373 203q-25 11 -48 11
q-44 0 -89 -36q-71 -57 -78 -165q0 -145 182 -237l360 -193q20 -10 45 -10z" />
    <glyph glyph-name="dieresis" unicode="&#xa8;" horiz-adv-x="1611" 
d="M512 1777q-68 0 -123 50q-54 51 -54 124q0 76 54 126q55 49 123 49q77 0 127 -51q49 -50 49 -124q0 -33 -12.5 -64.5t-35 -55.5t-55.5 -39t-73 -15zM1100 1777q-68 0 -123 50q-54 51 -54 124q0 76 54 126q55 49 123 49q77 0 127 -51q49 -50 49 -124q0 -33 -12.5 -64.5
t-35 -55.5t-55.5 -39t-73 -15z" />
    <glyph glyph-name="copyright" unicode="&#xa9;" horiz-adv-x="2331" 
d="M1166 -28q-214 0 -389 81q-295 135 -458 418q-139 238 -139 533q0 293 139 531q164 281 458 416q175 81 389 81t391 -81q293 -135 457 -416q137 -239 137 -531q0 -229 -78 -415q-167 -380 -516 -536q-177 -81 -391 -81zM1166 144q119 0 224.5 31t195 87t162 133.5
t125.5 170.5q109 193 109 438q0 123 -29 234t-82.5 206.5t-128.5 172.5t-166 131t-195 83t-215 29q-118 0 -223.5 -31t-195 -86.5t-162.5 -132.5t-125 -170q-110 -194 -110 -436q0 -192 66 -346q139 -316 428 -446q147 -68 322 -68zM1149 388q-115 0 -205 39.5t-152.5 110
t-95 168t-32.5 214.5v164q0 243 132 387q132 145 353 145q212 0 337 -108q127 -108 128 -324h-215q0 248 -244 248q-71 0 -122.5 -25.5t-86 -71.5t-51 -110t-16.5 -141v-164q0 -74 16 -138t49.5 -110.5t84.5 -73t120 -26.5q125 0 186 59t61 189h218q-1 -216 -128 -324
q-125 -108 -337 -108z" />
    <glyph glyph-name="ordfeminine" unicode="&#xaa;" horiz-adv-x="1300" 
d="M549 952q-87 0 -152 23.5t-108.5 65t-65 98.5t-21.5 125q0 74 28 133t86.5 100.5t148.5 63.5t213 22h141v69q0 176 -161 176q-82 0 -138 -32q-55 -31 -55 -104l-239 19q0 139 118 230t314 91q82 0 156 -21t129.5 -66.5t87.5 -117.5t31 -175v-432q0 -141 36 -249h-246
q-7 22 -12.5 45.5t-10.5 49.5q-102 -114 -280 -114zM610 1151q30 0 59 6.5t56 18t51 27t43 33.5v187h-141q-59 0 -102 -12.5t-71.5 -33.5t-42.5 -48.5t-14 -57.5q0 -120 162 -120z" />
    <glyph glyph-name="guillemotleft" unicode="&#xab;" horiz-adv-x="1601" 
d="M1412 220h-267l-404 600v28l404 600h267l-380 -614zM851 220h-267l-404 600v28l404 600h267l-380 -614z" />
    <glyph glyph-name="logicalnot" unicode="&#xac;" horiz-adv-x="1558" 
d="M1361 516h-279v356h-880v236h1159v-592z" />
    <glyph glyph-name="uni00AD" unicode="&#xad;" horiz-adv-x="1304" 
d="M1106 736h-908v259h908v-259z" />
    <glyph glyph-name="registered" unicode="&#xae;" horiz-adv-x="2331" 
d="M1166 -28q-214 0 -389 81q-295 135 -458 418q-139 238 -139 533q0 293 139 531q164 281 458 416q175 81 389 81t391 -81q293 -135 457 -416q137 -239 137 -531q0 -229 -78 -415q-167 -380 -516 -536q-177 -81 -391 -81zM1166 144q119 0 224.5 31t195 87t162 133.5
t125.5 170.5q109 193 109 438q0 123 -29 234t-82.5 206.5t-128.5 172.5t-166 131t-195 83t-215 29q-118 0 -223.5 -31t-195 -86.5t-162.5 -132.5t-125 -170q-110 -194 -110 -436q0 -192 66 -346q139 -316 428 -446q147 -68 322 -68zM1618 436h-214q-20 57 -20 196v76
q0 100 -46.5 146t-151.5 46h-218v-464h-210v1168h391q205 0 326 -89q121 -88 123 -266q0 -165 -167 -251q163 -73 163 -282v-84q2 -109 24 -176v-20zM1169 1084q41 0 81 9t71.5 28.5t51 50t19.5 72.5q0 98 -55 137q-56 39 -188 39h-181v-336h201z" />
    <glyph glyph-name="macron" unicode="&#xaf;" horiz-adv-x="1373" 
d="M1161 1838h-949v210h949v-210z" />
    <glyph glyph-name="degree" unicode="&#xb0;" horiz-adv-x="1285" 
d="M642 1120q-102 -2 -188 36.5t-149 104t-98.5 151t-34.5 178.5q-2 101 36.5 187.5t104 150t151 99t178.5 34.5q100 1 186.5 -37t150 -103t99.5 -151t35 -180q1 -100 -37 -186.5t-103 -149.5t-151 -99t-180 -35zM642 1348q102 0 173 71q70 70 70 171q0 103 -70 173t-173 70
q-101 0 -171 -70q-71 -71 -71 -173t70 -172t172 -70z" />
    <glyph glyph-name="plusminus" unicode="&#xb1;" horiz-adv-x="1837" 
d="M1053 518h-269v388h-530v259h530v387h269v-387h529v-259h-529v-388zM1582 90h-1328v262h1328v-262z" />
    <glyph glyph-name="uni00B2" unicode="&#xb2;" horiz-adv-x="1187" 
d="M1076 1024h-942v178l475 407q99 84 150 145q52 62 52 138q0 44 -18.5 78t-49.5 57t-72.5 34.5t-86.5 11.5q-48 0 -89 -12.5t-71.5 -37t-48 -61t-17.5 -84.5h-237q0 91 35.5 163t98 122.5t148 77.5t185.5 27q109 0 194 -29t143.5 -79.5t89.5 -118t32 -145.5
q0 -127 -78 -230q-39 -52 -100.5 -111t-146.5 -125l-232 -196v-9h586v-201z" />
    <glyph glyph-name="uni00B3" unicode="&#xb3;" horiz-adv-x="1223" 
d="M609 1008q-214 0 -353 100q-139 101 -146 264h252q10 -81 81 -120q70 -39 166 -39q105 0 177 45q73 46 73 128q0 72 -72 123q-71 51 -205 51h-113v182h113q102 0 173 45q70 45 70 123q0 67 -55 115q-56 48 -157 48q-89 0 -159 -41q-69 -41 -79 -123h-237q7 162 142 260
q135 99 334 99q104 0 188 -27t142.5 -73.5t90 -109t31.5 -134.5q0 -56 -20 -100.5t-54.5 -77t-81 -53.5t-100.5 -29v-9q78 -12 135 -38t95 -63.5t56.5 -84.5t18.5 -101q1 -81 -38 -148t-107 -114t-161 -73t-200 -25z" />
    <glyph glyph-name="acute" unicode="&#xb4;" horiz-adv-x="1400" 
d="M665 1741h-239l233 461h315z" />
    <glyph glyph-name="mu" unicode="&#xb5;" horiz-adv-x="1794" 
d="M494 -570h-293v2106h299v-899q0 -82 26.5 -152.5t77 -122t124.5 -81t169 -29.5q178 0 288 107q109 108 109 278v899h299v-1536h-294v225h-12q-69 -125 -174 -180q-103 -55 -216 -55q-114 0 -217 55q-104 55 -174 180h-12v-795z" />
    <glyph glyph-name="paragraph" unicode="&#xb6;" horiz-adv-x="1698" 
d="M1473 0h-279v1792h-248v-1032h-116q-165 -2 -292.5 47t-214.5 136t-131.5 205.5t-44.5 255.5q0 175 75 322q77 147 236 238q151 84 372 84h643v-2048z" />
    <glyph glyph-name="periodcentered" unicode="&#xb7;" horiz-adv-x="802" 
d="M404 826q-81 0 -141 57q-59 57 -59 143q0 85 59 142q60 57 141 57t140 -57q60 -57 60 -142q0 -86 -60 -143q-59 -57 -140 -57z" />
    <glyph glyph-name="cedilla" unicode="&#xb8;" horiz-adv-x="853" 
d="M271 -616l-6 167q105 0 168 31q65 30 66 100q0 58 -48.5 88.5t-161.5 39.5l41 198h196l-16 -82q41 -6 80 -21.5t69.5 -44t49 -71t18.5 -102.5q0 -66 -27.5 -121.5t-84 -96t-142.5 -63t-202 -22.5z" />
    <glyph glyph-name="uni00B9" unicode="&#xb9;" horiz-adv-x="863" 
d="M637 1024h-242v923h-12q-23 -31 -93 -62q-71 -32 -187 -33v196q137 9 215 75q77 66 85 129h234v-1228z" />
    <glyph glyph-name="ordmasculine" unicode="&#xba;" horiz-adv-x="1298" 
d="M653 951q-115 0 -205 36.5t-152.5 101.5t-95 153.5t-32.5 193.5v107q0 220 131 354q132 135 350 135q155 0 262 -65q111 -69 165 -178t54 -246v-107q0 -219 -129 -352t-348 -133zM653 1152q58 0 102 21t73.5 59t44 90t14.5 114v107q0 57 -13 108.5t-41.5 91t-74 62.5
t-109.5 23q-59 0 -104 -22t-75 -60.5t-45 -90.5t-15 -112v-107q0 -57 13.5 -108.5t42.5 -90.5t75.5 -62t111.5 -23z" />
    <glyph glyph-name="guillemotright" unicode="&#xbb;" horiz-adv-x="1604" 
d="M1004 220h-267l380 614l-380 614h267l404 -600v-28zM440 220h-267l380 614l-380 614h267l404 -600v-28z" />
    <glyph glyph-name="onequarter" unicode="&#xbc;" horiz-adv-x="2487" 
d="M2254 0h-221v189h-588v183l519 716h290v-712h155v-187h-155v-189zM608 0h-239l1408 2048h239zM583 960h-230v805h-12q-9 -14 -30 -29t-52.5 -27t-73.5 -20.5t-93 -8.5v186q121 5 190 62q72 59 76 120h225v-1088zM2037 376v461h-9l-344 -455v-6h353z" />
    <glyph glyph-name="onehalf" unicode="&#xbd;" horiz-adv-x="2598" 
d="M2501 0h-860v168l432 354q48 37 81.5 69t54.5 61t31 56t10 54q0 40 -16 69.5t-44 49.5t-64.5 30t-77.5 10t-77 -11t-64 -32t-44 -52.5t-16 -73.5h-222q-2 88 33 154t94.5 110t137.5 66t163 22q102 1 180 -27t131 -75.5t80 -108.5t27 -127q0 -109 -71 -206
q-70 -94 -224 -207l-199 -156v-9h524v-188zM608 0h-239l1408 2048h239zM583 960h-230v805h-12q-9 -14 -30 -29t-52.5 -27t-73.5 -20.5t-93 -8.5v186q121 5 190 62q72 59 76 120h225v-1088z" />
    <glyph glyph-name="threequarters" unicode="&#xbe;" horiz-adv-x="2690" 
d="M2457 0h-221v189h-588v183l519 716h290v-712h155v-187h-155v-189zM552 944q-199 0 -325 93q-125 93 -130 239h236q7 -70 71 -105t147 -35q90 0 153 39q64 40 64 108q0 30 -16 57t-46.5 47t-76 31.5t-103.5 11.5h-102v168h102q43 0 82 9t69 27t47.5 44.5t17.5 61.5
q0 59 -51 100q-50 41 -138 41q-78 0 -138 -36t-69 -105h-225q8 145 128 234q121 90 305 90t299 -88q116 -89 116 -219q0 -50 -18 -89.5t-49.5 -68t-74.5 -46.5t-93 -25v-9q70 -10 122.5 -33t86.5 -56t51 -74.5t17 -89.5q0 -140 -129 -231q-128 -91 -330 -91zM811 0h-239
l1408 2048h239zM2240 376v461h-9l-344 -455v-6h353z" />
    <glyph glyph-name="questiondown" unicode="&#xbf;" horiz-adv-x="1480" 
d="M750 -550q-98 0 -180.5 18.5t-150 53t-119 82.5t-87.5 108q-76 122 -76 283q0 169 76.5 287t211.5 197q126 71 184 176q57 105 57 282h286q0 -203 -36 -314q-36 -112 -103 -180q-66 -68 -159 -123q-212 -129 -212 -328q0 -71 26 -125.5t69 -91t98.5 -55t114.5 -18.5
q52 0 105.5 16t98.5 52t76 94.5t36 142.5h304q-11 -189 -95 -309q-84 -121 -218 -183q-139 -65 -307 -65zM801 1146q-81 0 -141 57q-59 57 -59 142q0 86 59 143q60 57 141 57q84 0 142 -58t58 -142q0 -82 -57 -140q-57 -59 -143 -59z" />
    <glyph glyph-name="Agrave" unicode="&#xc0;" horiz-adv-x="1971" 
d="M1901 0h-328l-187 542h-800l-188 -542h-328l737 2048h357zM1296 802l-302 874h-16l-302 -874h620zM1108 2253h-239l-309 461h315z" />
    <glyph glyph-name="Aacute" unicode="&#xc1;" horiz-adv-x="1971" 
d="M1901 0h-328l-187 542h-800l-188 -542h-328l737 2048h357zM1296 802l-302 874h-16l-302 -874h620zM1102 2253h-239l233 461h315z" />
    <glyph glyph-name="Acircumflex" unicode="&#xc2;" horiz-adv-x="1971" 
d="M1901 0h-328l-187 542h-800l-188 -542h-328l737 2048h357zM1296 802l-302 874h-16l-302 -874h620zM1462 2232h-271l-205 268l-206 -268h-270v15l351 424h249l352 -424v-15z" />
    <glyph glyph-name="Atilde" unicode="&#xc3;" horiz-adv-x="1971" 
d="M1901 0h-328l-187 542h-800l-188 -542h-328l737 2048h357zM1296 802l-302 874h-16l-302 -874h620zM685 2252l-201 6q0 88 25 156t68 114t99.5 70t118.5 24t113 -23q26 -14 49 -26.5t43 -25.5q38 -26 74.5 -43t85.5 -17q32 0 56 11.5t40.5 32t25 48.5t9.5 61l197 -13
q0 -88 -25 -155t-68 -112t-99 -68t-119 -24q-75 0 -124 23q-50 25 -87 52q-33 27 -69.5 44t-84.5 17q-60 0 -94 -46q-33 -45 -33 -106z" />
    <glyph glyph-name="Adieresis" unicode="&#xc4;" horiz-adv-x="1971" 
d="M1901 0h-328l-187 542h-800l-188 -542h-328l737 2048h357zM1296 802l-302 874h-16l-302 -874h620zM692 2289q-68 0 -123 50q-54 51 -54 124q0 76 54 126q55 49 123 49q77 0 127 -51q49 -50 49 -124q0 -33 -12.5 -64.5t-35 -55.5t-55.5 -39t-73 -15zM1280 2289
q-68 0 -123 50q-54 51 -54 124q0 76 54 126q55 49 123 49q77 0 127 -51q49 -50 49 -124q0 -33 -12.5 -64.5t-35 -55.5t-55.5 -39t-73 -15z" />
    <glyph glyph-name="Aring" unicode="&#xc5;" horiz-adv-x="1971" 
d="M1901 0h-328l-187 542h-800l-188 -542h-328l737 2048h357zM986 2175q-136 0 -233 91t-97 220t97 220q98 92 233 92t232 -92q97 -91 97 -220t-97 -220q-95 -91 -232 -91zM1296 802l-302 874h-16l-302 -874h620zM986 2334q33 2 61.5 13.5t49.5 31.5t33 47t12 60
q0 31 -11 58.5t-31 47.5t-49 32t-65 14q-64 0 -110 -42q-47 -42 -47 -110q0 -66 46 -109t111 -43z" />
    <glyph glyph-name="AE" unicode="&#xc6;" horiz-adv-x="2826" 
d="M2649 0h-1296v542h-698l-245 -542h-340l954 2048h1613v-266h-975v-624h908v-265h-908v-627h987v-266zM1353 802v957h-147l-433 -957h580z" />
    <glyph glyph-name="Ccedilla" unicode="&#xc7;" horiz-adv-x="2071" 
d="M916 -627l-6 167q105 0 168 31q65 30 66 100q0 58 -48.5 88.5t-161.5 39.5l37 179q-230 25 -414 153q-182 127 -294 364q-104 226 -104 529q0 254 70 446t191 326q123 134 288.5 207t371.5 73q327 0 557 -181t289 -513h-312q-42 199 -188 306q-145 106 -343 106
q-167 0 -309 -85q-142 -86 -227 -264q-81 -173 -81 -421q0 -250 81 -422q87 -180 228 -264t307 -84q193 0 341 104q147 105 191 302l312 -1q-50 -280 -243 -464q-194 -185 -516 -219l-12 -61q41 -6 80 -21.5t69.5 -44t49 -71t18.5 -102.5q0 -66 -27.5 -121.5t-84 -96
t-142.5 -63t-202 -22.5z" />
    <glyph glyph-name="Egrave" unicode="&#xc8;" horiz-adv-x="1698" 
d="M1521 0h-1296v2048h1284v-266h-975v-624h908v-265h-908v-627h987v-266zM989 2253h-239l-309 461h315z" />
    <glyph glyph-name="Eacute" unicode="&#xc9;" horiz-adv-x="1698" 
d="M1521 0h-1296v2048h1284v-266h-975v-624h908v-265h-908v-627h987v-266zM983 2253h-239l233 461h315z" />
    <glyph glyph-name="Ecircumflex" unicode="&#xca;" horiz-adv-x="1698" 
d="M1521 0h-1296v2048h1284v-266h-975v-624h908v-265h-908v-627h987v-266zM1343 2232h-271l-205 268l-206 -268h-270v15l351 424h249l352 -424v-15z" />
    <glyph glyph-name="Edieresis" unicode="&#xcb;" horiz-adv-x="1698" 
d="M1521 0h-1296v2048h1284v-266h-975v-624h908v-265h-908v-627h987v-266zM573 2289q-68 0 -123 50q-54 51 -54 124q0 76 54 126q55 49 123 49q77 0 127 -51q49 -50 49 -124q0 -33 -12.5 -64.5t-35 -55.5t-55.5 -39t-73 -15zM1161 2289q-68 0 -123 50q-54 51 -54 124
q0 76 54 126q55 49 123 49q77 0 127 -51q49 -50 49 -124q0 -33 -12.5 -64.5t-35 -55.5t-55.5 -39t-73 -15z" />
    <glyph glyph-name="Igrave" unicode="&#xcc;" horiz-adv-x="1282" 
d="M1158 0h-1034v266h363v1516h-363v266h1034v-266h-362v-1516h362v-266zM764 2253h-239l-309 461h315z" />
    <glyph glyph-name="Iacute" unicode="&#xcd;" horiz-adv-x="1282" 
d="M1158 0h-1034v266h363v1516h-363v266h1034v-266h-362v-1516h362v-266zM758 2253h-239l233 461h315z" />
    <glyph glyph-name="Icircumflex" unicode="&#xce;" horiz-adv-x="1282" 
d="M1158 0h-1034v266h363v1516h-363v266h1034v-266h-362v-1516h362v-266zM1118 2232h-271l-205 268l-206 -268h-270v15l351 424h249l352 -424v-15z" />
    <glyph glyph-name="Idieresis" unicode="&#xcf;" horiz-adv-x="1282" 
d="M1158 0h-1034v266h363v1516h-363v266h1034v-266h-362v-1516h362v-266zM348 2289q-68 0 -123 50q-54 51 -54 124q0 76 54 126q55 49 123 49q77 0 127 -51q49 -50 49 -124q0 -33 -12.5 -64.5t-35 -55.5t-55.5 -39t-73 -15zM936 2289q-68 0 -123 50q-54 51 -54 124
q0 76 54 126q55 49 123 49q77 0 127 -51q49 -50 49 -124q0 -33 -12.5 -64.5t-35 -55.5t-55.5 -39t-73 -15z" />
    <glyph glyph-name="Eth" unicode="&#xd0;" horiz-adv-x="2032" 
d="M888 0h-663v960h-306v207h306v881h684q408 0 656 -221q308 -275 308 -800q1 -245 -67 -436t-195.5 -322.5t-310.5 -200.5t-412 -68zM871 270q350 0 524 196t174 561q0 221 -70 391q-69 170 -224 268q-151 92 -385 92h-356v-611h304v-207h-304v-690h337z" />
    <glyph glyph-name="Ntilde" unicode="&#xd1;" horiz-adv-x="2103" 
d="M1878 0h-284l-1041 1502h-19v-1502h-309v2048h286l1042 -1504h19v1504h306v-2048zM751 2234l-201 6q0 88 25 156t68 114t99.5 70t118.5 24t113 -23q26 -14 49 -26.5t43 -25.5q38 -26 74.5 -43t85.5 -17q32 0 56 11.5t40.5 32t25 48.5t9.5 61l197 -13q0 -88 -25 -155
t-68 -112t-99 -68t-119 -24q-75 0 -124 23q-50 25 -87 52q-33 27 -69.5 44t-84.5 17q-60 0 -94 -46q-33 -45 -33 -106z" />
    <glyph glyph-name="Ograve" unicode="&#xd2;" horiz-adv-x="2163" 
d="M1082 -28q-279 0 -484 130q-204 130 -320 361q-119 236 -119 561q0 254 70 446q144 386 480 532q168 74 373 74q201 1 370.5 -72t293 -210t192 -332t66.5 -438q0 -254 -70 -446q-142 -385 -478 -532q-168 -74 -374 -74zM1082 254q167 0 308 84q141 86 228 265
q80 174 80 421q0 248 -80 422q-87 179 -228 263q-140 85 -308 85t-308 -85q-141 -84 -227 -263q-81 -173 -81 -422q0 -128 21 -234t60 -191.5t95 -149.5t125 -106q140 -89 315 -89zM1204 2253h-239l-309 461h315z" />
    <glyph glyph-name="Oacute" unicode="&#xd3;" horiz-adv-x="2163" 
d="M1082 -28q-279 0 -484 130q-204 130 -320 361q-119 236 -119 561q0 254 70 446q144 386 480 532q168 74 373 74q201 1 370.5 -72t293 -210t192 -332t66.5 -438q0 -254 -70 -446q-142 -385 -478 -532q-168 -74 -374 -74zM1082 254q167 0 308 84q141 86 228 265
q80 174 80 421q0 248 -80 422q-87 179 -228 263q-140 85 -308 85t-308 -85q-141 -84 -227 -263q-81 -173 -81 -422q0 -128 21 -234t60 -191.5t95 -149.5t125 -106q140 -89 315 -89zM1198 2253h-239l233 461h315z" />
    <glyph glyph-name="Ocircumflex" unicode="&#xd4;" horiz-adv-x="2163" 
d="M1082 -28q-279 0 -484 130q-204 130 -320 361q-119 236 -119 561q0 254 70 446q144 386 480 532q168 74 373 74q201 1 370.5 -72t293 -210t192 -332t66.5 -438q0 -254 -70 -446q-142 -385 -478 -532q-168 -74 -374 -74zM1082 254q167 0 308 84q141 86 228 265
q80 174 80 421q0 248 -80 422q-87 179 -228 263q-140 85 -308 85t-308 -85q-141 -84 -227 -263q-81 -173 -81 -422q0 -128 21 -234t60 -191.5t95 -149.5t125 -106q140 -89 315 -89zM1558 2232h-271l-205 268l-206 -268h-270v15l351 424h249l352 -424v-15z" />
    <glyph glyph-name="Otilde" unicode="&#xd5;" horiz-adv-x="2163" 
d="M1082 -28q-279 0 -484 130q-204 130 -320 361q-119 236 -119 561q0 254 70 446q144 386 480 532q168 74 373 74q201 1 370.5 -72t293 -210t192 -332t66.5 -438q0 -254 -70 -446q-142 -385 -478 -532q-168 -74 -374 -74zM1082 254q167 0 308 84q141 86 228 265
q80 174 80 421q0 248 -80 422q-87 179 -228 263q-140 85 -308 85t-308 -85q-141 -84 -227 -263q-81 -173 -81 -422q0 -128 21 -234t60 -191.5t95 -149.5t125 -106q140 -89 315 -89zM781 2252l-201 6q0 88 25 156t68 114t99.5 70t118.5 24t113 -23q26 -14 49 -26.5t43 -25.5
q38 -26 74.5 -43t85.5 -17q32 0 56 11.5t40.5 32t25 48.5t9.5 61l197 -13q0 -88 -25 -155t-68 -112t-99 -68t-119 -24q-75 0 -124 23q-50 25 -87 52q-33 27 -69.5 44t-84.5 17q-60 0 -94 -46q-33 -45 -33 -106z" />
    <glyph glyph-name="Odieresis" unicode="&#xd6;" horiz-adv-x="2163" 
d="M1082 -28q-279 0 -484 130q-204 130 -320 361q-119 236 -119 561q0 254 70 446q144 386 480 532q168 74 373 74q201 1 370.5 -72t293 -210t192 -332t66.5 -438q0 -254 -70 -446q-142 -385 -478 -532q-168 -74 -374 -74zM1082 254q167 0 308 84q141 86 228 265
q80 174 80 421q0 248 -80 422q-87 179 -228 263q-140 85 -308 85t-308 -85q-141 -84 -227 -263q-81 -173 -81 -422q0 -128 21 -234t60 -191.5t95 -149.5t125 -106q140 -89 315 -89zM788 2289q-68 0 -123 50q-54 51 -54 124q0 76 54 126q55 49 123 49q77 0 127 -51
q49 -50 49 -124q0 -33 -12.5 -64.5t-35 -55.5t-55.5 -39t-73 -15zM1376 2289q-68 0 -123 50q-54 51 -54 124q0 76 54 126q55 49 123 49q77 0 127 -51q49 -50 49 -124q0 -33 -12.5 -64.5t-35 -55.5t-55.5 -39t-73 -15z" />
    <glyph glyph-name="multiply" unicode="&#xd7;" horiz-adv-x="1837" 
d="M1399 137l-480 480l-481 -480l-189 189l480 480l-480 480l189 190l481 -480l480 480l189 -190l-480 -480l480 -480z" />
    <glyph glyph-name="Oslash" unicode="&#xd8;" horiz-adv-x="2163" 
d="M442 -89l-166 114l151 221q-124 133 -196 327.5t-72 450.5q0 254 70 446q144 386 480 532q168 74 373 74q279 0 497 -141l135 198l167 -114l-147 -215q125 -132 197.5 -327t72.5 -453q0 -254 -70 -446q-142 -385 -478 -532q-168 -74 -374 -74q-281 0 -501 143zM1082 254
q167 0 308 84q141 86 228 265q80 174 80 421q0 326 -139 523l-813 -1191q147 -102 336 -102zM603 504l812 1190q-146 100 -333 100q-168 0 -308 -85q-141 -84 -227 -263q-81 -173 -81 -422q0 -324 137 -520z" />
    <glyph glyph-name="Ugrave" unicode="&#xd9;" horiz-adv-x="2077" 
d="M1038 -34q-174 0 -322.5 49.5t-257.5 143t-171 228.5t-62 306v1355h309v-1350q-1 -110 39.5 -193.5t110.5 -140t161.5 -85.5t192.5 -29q97 0 188 27t161.5 82t113 139.5t42.5 199.5v1350h309v-1355q0 -116 -29 -214.5t-81.5 -179.5t-127 -143t-165 -104.5t-194.5 -64
t-217 -21.5zM1161 2253h-239l-309 461h315z" />
    <glyph glyph-name="Uacute" unicode="&#xda;" horiz-adv-x="2077" 
d="M1038 -34q-174 0 -322.5 49.5t-257.5 143t-171 228.5t-62 306v1355h309v-1350q-1 -110 39.5 -193.5t110.5 -140t161.5 -85.5t192.5 -29q97 0 188 27t161.5 82t113 139.5t42.5 199.5v1350h309v-1355q0 -116 -29 -214.5t-81.5 -179.5t-127 -143t-165 -104.5t-194.5 -64
t-217 -21.5zM1155 2253h-239l233 461h315z" />
    <glyph glyph-name="Ucircumflex" unicode="&#xdb;" horiz-adv-x="2077" 
d="M1038 -34q-174 0 -322.5 49.5t-257.5 143t-171 228.5t-62 306v1355h309v-1350q-1 -110 39.5 -193.5t110.5 -140t161.5 -85.5t192.5 -29q97 0 188 27t161.5 82t113 139.5t42.5 199.5v1350h309v-1355q0 -116 -29 -214.5t-81.5 -179.5t-127 -143t-165 -104.5t-194.5 -64
t-217 -21.5zM1515 2232h-271l-205 268l-206 -268h-270v15l351 424h249l352 -424v-15z" />
    <glyph glyph-name="Udieresis" unicode="&#xdc;" horiz-adv-x="2077" 
d="M1038 -34q-174 0 -322.5 49.5t-257.5 143t-171 228.5t-62 306v1355h309v-1350q-1 -110 39.5 -193.5t110.5 -140t161.5 -85.5t192.5 -29q97 0 188 27t161.5 82t113 139.5t42.5 199.5v1350h309v-1355q0 -116 -29 -214.5t-81.5 -179.5t-127 -143t-165 -104.5t-194.5 -64
t-217 -21.5zM745 2289q-68 0 -123 50q-54 51 -54 124q0 76 54 126q55 49 123 49q77 0 127 -51q49 -50 49 -124q0 -33 -12.5 -64.5t-35 -55.5t-55.5 -39t-73 -15zM1333 2289q-68 0 -123 50q-54 51 -54 124q0 76 54 126q55 49 123 49q77 0 127 -51q49 -50 49 -124
q0 -33 -12.5 -64.5t-35 -55.5t-55.5 -39t-73 -15z" />
    <glyph glyph-name="Yacute" unicode="&#xdd;" horiz-adv-x="1928" 
d="M1118 0h-308v804l-743 1244h351l535 -931h22l535 931h351l-743 -1244v-804zM1080 2253h-239l233 461h315z" />
    <glyph glyph-name="Thorn" unicode="&#xde;" horiz-adv-x="1814" 
d="M522 0h-309v2048h309v-408h364q228 0 386 -80q164 -86 242 -224q78 -137 78 -297q0 -161 -78 -297q-79 -138 -242 -223q-158 -80 -386 -80h-364v-439zM886 697q204 0 307 91q104 92 104 247q0 76 -24.5 139.5t-75 109.5t-128 72t-183.5 26h-364v-685h364z" />
    <glyph glyph-name="germandbls" unicode="&#xdf;" horiz-adv-x="1767" 
d="M1005 0h-239v262h219q84 0 147 26t105 69.5t63 100.5t21 120q-2 70 -25.5 130.5t-70.5 105t-116.5 70t-162.5 25.5h-172v260h120q74 -1 130 27.5t93 75t56 105t20 117.5q0 141 -90 228q-89 88 -241 88q-69 0 -130.5 -20.5t-107.5 -60t-73 -97.5t-27 -134v-1498h-299v1518
q-1 131 45 234.5t130 175.5t200 110t254 38q164 0 310 -58q148 -59 246 -189q85 -119 85 -290q0 -88 -23 -160.5t-64.5 -129t-99.5 -97t-127 -63.5v-21q98 -11 179 -49t139.5 -102t90.5 -152.5t32 -200.5q-8 -261 -174 -412q-167 -152 -443 -152z" />
    <glyph glyph-name="agrave" unicode="&#xe0;" horiz-adv-x="1603" 
d="M648 -34q-102 0 -196 27.5t-165.5 84.5t-114.5 145.5t-43 210.5q0 66 13.5 119t38.5 95.5t59 75.5t76 58q84 51 187.5 75t214.5 36q125 13 200.5 23t117 24.5t55.5 37.5t15 61q0 63 -17.5 114t-53.5 86.5t-91 55t-130 19.5q-73 0 -131.5 -17.5t-103 -47t-75.5 -68.5
t-47 -81l-281 64q41 107 106 181.5t147.5 121.5t179 68t201.5 21q293 0 454 -152q142 -133 142 -384v-1020h-292v210h-12q-27 -59 -85 -114q-139 -130 -369 -130zM713 206q94 -1 167.5 28t124 77.5t76.5 112t26 130.5v198q-38 -29 -144 -48q-43 -8 -84 -14.5t-82 -11.5
l-60 -8q-189 -20 -271 -111q-44 -50 -44 -129q0 -57 22.5 -99.5t61.5 -70t92 -41t115 -13.5zM948 1741h-239l-309 461h315z" />
    <glyph glyph-name="aacute" unicode="&#xe1;" horiz-adv-x="1603" 
d="M648 -34q-102 0 -196 27.5t-165.5 84.5t-114.5 145.5t-43 210.5q0 66 13.5 119t38.5 95.5t59 75.5t76 58q84 51 187.5 75t214.5 36q125 13 200.5 23t117 24.5t55.5 37.5t15 61q0 63 -17.5 114t-53.5 86.5t-91 55t-130 19.5q-73 0 -131.5 -17.5t-103 -47t-75.5 -68.5
t-47 -81l-281 64q41 107 106 181.5t147.5 121.5t179 68t201.5 21q293 0 454 -152q142 -133 142 -384v-1020h-292v210h-12q-27 -59 -85 -114q-139 -130 -369 -130zM713 206q94 -1 167.5 28t124 77.5t76.5 112t26 130.5v198q-38 -29 -144 -48q-43 -8 -84 -14.5t-82 -11.5
l-60 -8q-189 -20 -271 -111q-44 -50 -44 -129q0 -57 22.5 -99.5t61.5 -70t92 -41t115 -13.5zM942 1741h-239l233 461h315z" />
    <glyph glyph-name="acircumflex" unicode="&#xe2;" horiz-adv-x="1603" 
d="M648 -34q-102 0 -196 27.5t-165.5 84.5t-114.5 145.5t-43 210.5q0 66 13.5 119t38.5 95.5t59 75.5t76 58q84 51 187.5 75t214.5 36q125 13 200.5 23t117 24.5t55.5 37.5t15 61q0 63 -17.5 114t-53.5 86.5t-91 55t-130 19.5q-73 0 -131.5 -17.5t-103 -47t-75.5 -68.5
t-47 -81l-281 64q41 107 106 181.5t147.5 121.5t179 68t201.5 21q293 0 454 -152q142 -133 142 -384v-1020h-292v210h-12q-27 -59 -85 -114q-139 -130 -369 -130zM713 206q94 -1 167.5 28t124 77.5t76.5 112t26 130.5v198q-38 -29 -144 -48q-43 -8 -84 -14.5t-82 -11.5
l-60 -8q-189 -20 -271 -111q-44 -50 -44 -129q0 -57 22.5 -99.5t61.5 -70t92 -41t115 -13.5zM1302 1720h-271l-205 268l-206 -268h-270v15l351 424h249l352 -424v-15z" />
    <glyph glyph-name="atilde" unicode="&#xe3;" horiz-adv-x="1603" 
d="M648 -34q-102 0 -196 27.5t-165.5 84.5t-114.5 145.5t-43 210.5q0 66 13.5 119t38.5 95.5t59 75.5t76 58q84 51 187.5 75t214.5 36q125 13 200.5 23t117 24.5t55.5 37.5t15 61q0 63 -17.5 114t-53.5 86.5t-91 55t-130 19.5q-73 0 -131.5 -17.5t-103 -47t-75.5 -68.5
t-47 -81l-281 64q41 107 106 181.5t147.5 121.5t179 68t201.5 21q293 0 454 -152q142 -133 142 -384v-1020h-292v210h-12q-27 -59 -85 -114q-139 -130 -369 -130zM713 206q94 -1 167.5 28t124 77.5t76.5 112t26 130.5v198q-38 -29 -144 -48q-43 -8 -84 -14.5t-82 -11.5
l-60 -8q-189 -20 -271 -111q-44 -50 -44 -129q0 -57 22.5 -99.5t61.5 -70t92 -41t115 -13.5zM525 1722l-201 6q0 88 25 156t68 114t99.5 70t118.5 24t113 -23q26 -14 49 -26.5t43 -25.5q38 -26 74.5 -43t85.5 -17q32 0 56 11.5t40.5 32t25 48.5t9.5 61l197 -13
q0 -88 -25 -155t-68 -112t-99 -68t-119 -24q-75 0 -124 23q-50 25 -87 52q-33 27 -69.5 44t-84.5 17q-60 0 -94 -46q-33 -45 -33 -106z" />
    <glyph glyph-name="adieresis" unicode="&#xe4;" horiz-adv-x="1603" 
d="M648 -34q-102 0 -196 27.5t-165.5 84.5t-114.5 145.5t-43 210.5q0 66 13.5 119t38.5 95.5t59 75.5t76 58q84 51 187.5 75t214.5 36q125 13 200.5 23t117 24.5t55.5 37.5t15 61q0 63 -17.5 114t-53.5 86.5t-91 55t-130 19.5q-73 0 -131.5 -17.5t-103 -47t-75.5 -68.5
t-47 -81l-281 64q41 107 106 181.5t147.5 121.5t179 68t201.5 21q293 0 454 -152q142 -133 142 -384v-1020h-292v210h-12q-27 -59 -85 -114q-139 -130 -369 -130zM713 206q94 -1 167.5 28t124 77.5t76.5 112t26 130.5v198q-38 -29 -144 -48q-43 -8 -84 -14.5t-82 -11.5
l-60 -8q-189 -20 -271 -111q-44 -50 -44 -129q0 -57 22.5 -99.5t61.5 -70t92 -41t115 -13.5zM532 1777q-68 0 -123 50q-54 51 -54 124q0 76 54 126q55 49 123 49q77 0 127 -51q49 -50 49 -124q0 -33 -12.5 -64.5t-35 -55.5t-55.5 -39t-73 -15zM1120 1777q-68 0 -123 50
q-54 51 -54 124q0 76 54 126q55 49 123 49q77 0 127 -51q49 -50 49 -124q0 -33 -12.5 -64.5t-35 -55.5t-55.5 -39t-73 -15z" />
    <glyph glyph-name="aring" unicode="&#xe5;" horiz-adv-x="1603" 
d="M648 -34q-102 0 -196 27.5t-165.5 84.5t-114.5 145.5t-43 210.5q0 66 13.5 119t38.5 95.5t59 75.5t76 58q84 51 187.5 75t214.5 36q125 13 200.5 23t117 24.5t55.5 37.5t15 61q0 63 -17.5 114t-53.5 86.5t-91 55t-130 19.5q-73 0 -131.5 -17.5t-103 -47t-75.5 -68.5
t-47 -81l-281 64q41 107 106 181.5t147.5 121.5t179 68t201.5 21q293 0 454 -152q142 -133 142 -384v-1020h-292v210h-12q-27 -59 -85 -114q-139 -130 -369 -130zM826 1706q-151 0 -254 97t-103 239q-1 75 28 138.5t78.5 109.5t114.5 72t136 25q76 1 141 -26.5t112 -75.5
t74 -111t26 -132q0 -142 -102 -239q-101 -97 -251 -97zM713 206q94 -1 167.5 28t124 77.5t76.5 112t26 130.5v198q-38 -29 -144 -48q-43 -8 -84 -14.5t-82 -11.5l-60 -8q-189 -20 -271 -111q-44 -50 -44 -129q0 -57 22.5 -99.5t61.5 -70t92 -41t115 -13.5zM826 1866
q87 7 134 60q46 52 46 116q0 69 -50 125t-130 56q-79 0 -130 -56q-50 -56 -50 -125q0 -67 50 -122q51 -54 130 -54z" />
    <glyph glyph-name="ae" unicode="&#xe6;" horiz-adv-x="2594" 
d="M656 -34q-107 0 -203 28.5t-168.5 86.5t-115 146t-40.5 207q0 66 13.5 119t38 95.5t59 75.5t76.5 58q153 92 490 121q178 17 238 40q62 24 62 96q0 124 -71 200q-71 75 -221 75q-70 0 -128.5 -17t-104 -46.5t-77 -68.5t-47.5 -82l-281 64q41 107 106 181.5t147.5 121.5
t180 68t202.5 21q348 0 480 -231q172 231 489 231q124 0 246 -41.5t226 -136.5q96 -92 152.5 -239t56.5 -355v-106h-1093q9 -223 127 -342q118 -120 309 -120q61 0 115.5 13t100 39.5t80.5 68t58 98.5l283 -51q-26 -91 -79.5 -167t-133.5 -131t-185 -86t-233 -31
q-209 0 -356 81q-147 83 -218 220h-11q-27 -65 -81 -121t-128 -96.5t-166 -63.5t-195 -23zM713 206q94 -1 167.5 28t124 77.5t76.5 112t26 130.5v198q-38 -29 -144 -48q-43 -8 -84 -14.5t-82 -11.5l-60 -8q-189 -20 -271 -111q-44 -50 -44 -129q0 -57 22.5 -99.5t61.5 -70
t92 -41t115 -13.5zM2168 902q-2 90 -29.5 164.5t-77.5 128.5t-120 84t-158 30q-128 0 -217 -58q-94 -63 -142 -155t-54 -194h798z" />
    <glyph glyph-name="ccedilla" unicode="&#xe7;" horiz-adv-x="1599" 
d="M681 -616l-6 167q105 0 168 31q65 30 66 100q0 58 -48.5 88.5t-161.5 39.5l35 167q-287 43 -444 255q-158 214 -158 529q0 123 24 229t68.5 193.5t106.5 155.5t138 116q161 101 376 101q262 0 434 -140q171 -138 200 -376h-291q-12 53 -39 101t-69 84t-99.5 57.5
t-130.5 21.5q-187 0 -302 -144q-114 -144 -114 -392q0 -249 113 -398q112 -148 303 -148q61 0 115.5 17t98.5 50t75.5 82.5t48.5 114.5h291q-24 -209 -167 -349q-143 -139 -383 -164l-9 -47q41 -6 80 -21.5t69.5 -44t49 -71t18.5 -102.5q0 -66 -27.5 -121.5t-84 -96
t-142.5 -63t-202 -22.5z" />
    <glyph glyph-name="egrave" unicode="&#xe8;" horiz-adv-x="1654" 
d="M863 -31q-234 0 -395 100q-162 100 -247 274q-89 178 -89 415q0 247 91 423t246 274q160 101 373 101q125 0 246.5 -40.5t222.5 -133.5q211 -201 211 -598v-106h-1092q6 -117 40.5 -204t91.5 -144t134.5 -85.5t169.5 -28.5q61 0 115.5 13t100 39.5t80.5 68t58 98.5
l283 -51q-26 -92 -79.5 -168t-134.5 -131t-187.5 -85.5t-238.5 -30.5zM1229 902q-2 90 -29.5 164.5t-77.5 128.5t-120 84t-158 30q-64 0 -118 -15.5t-98.5 -43t-79 -65t-58.5 -80.5q-26 -46 -40.5 -96.5t-18.5 -106.5h798zM953 1741h-239l-309 461h315z" />
    <glyph glyph-name="eacute" unicode="&#xe9;" horiz-adv-x="1654" 
d="M863 -31q-234 0 -395 100q-162 100 -247 274q-89 178 -89 415q0 247 91 423t246 274q160 101 373 101q125 0 246.5 -40.5t222.5 -133.5q211 -201 211 -598v-106h-1092q6 -117 40.5 -204t91.5 -144t134.5 -85.5t169.5 -28.5q61 0 115.5 13t100 39.5t80.5 68t58 98.5
l283 -51q-26 -92 -79.5 -168t-134.5 -131t-187.5 -85.5t-238.5 -30.5zM1229 902q-2 90 -29.5 164.5t-77.5 128.5t-120 84t-158 30q-64 0 -118 -15.5t-98.5 -43t-79 -65t-58.5 -80.5q-26 -46 -40.5 -96.5t-18.5 -106.5h798zM947 1741h-239l233 461h315z" />
    <glyph glyph-name="ecircumflex" unicode="&#xea;" horiz-adv-x="1654" 
d="M863 -31q-234 0 -395 100q-162 100 -247 274q-89 178 -89 415q0 247 91 423t246 274q160 101 373 101q125 0 246.5 -40.5t222.5 -133.5q211 -201 211 -598v-106h-1092q6 -117 40.5 -204t91.5 -144t134.5 -85.5t169.5 -28.5q61 0 115.5 13t100 39.5t80.5 68t58 98.5
l283 -51q-26 -92 -79.5 -168t-134.5 -131t-187.5 -85.5t-238.5 -30.5zM1229 902q-2 90 -29.5 164.5t-77.5 128.5t-120 84t-158 30q-64 0 -118 -15.5t-98.5 -43t-79 -65t-58.5 -80.5q-26 -46 -40.5 -96.5t-18.5 -106.5h798zM1307 1720h-271l-205 268l-206 -268h-270v15
l351 424h249l352 -424v-15z" />
    <glyph glyph-name="edieresis" unicode="&#xeb;" horiz-adv-x="1654" 
d="M863 -31q-234 0 -395 100q-162 100 -247 274q-89 178 -89 415q0 247 91 423t246 274q160 101 373 101q125 0 246.5 -40.5t222.5 -133.5q211 -201 211 -598v-106h-1092q6 -117 40.5 -204t91.5 -144t134.5 -85.5t169.5 -28.5q61 0 115.5 13t100 39.5t80.5 68t58 98.5
l283 -51q-26 -92 -79.5 -168t-134.5 -131t-187.5 -85.5t-238.5 -30.5zM1229 902q-2 90 -29.5 164.5t-77.5 128.5t-120 84t-158 30q-64 0 -118 -15.5t-98.5 -43t-79 -65t-58.5 -80.5q-26 -46 -40.5 -96.5t-18.5 -106.5h798zM537 1777q-68 0 -123 50q-54 51 -54 124
q0 76 54 126q55 49 123 49q77 0 127 -51q49 -50 49 -124q0 -33 -12.5 -64.5t-35 -55.5t-55.5 -39t-73 -15zM1125 1777q-68 0 -123 50q-54 51 -54 124q0 76 54 126q55 49 123 49q77 0 127 -51q49 -50 49 -124q0 -33 -12.5 -64.5t-35 -55.5t-55.5 -39t-73 -15z" />
    <glyph glyph-name="igrave" unicode="&#xec;" horiz-adv-x="701" 
d="M500 0h-299v1536h299v-1536zM475 1741h-239l-309 461h315z" />
    <glyph glyph-name="iacute" unicode="&#xed;" horiz-adv-x="701" 
d="M500 0h-299v1536h299v-1536zM468 1741h-239l233 461h315z" />
    <glyph glyph-name="icircumflex" unicode="&#xee;" horiz-adv-x="701" 
d="M500 0h-299v1536h299v-1536zM828 1720h-271l-205 268l-206 -268h-270v15l351 424h249l352 -424v-15z" />
    <glyph glyph-name="idieresis" unicode="&#xef;" horiz-adv-x="701" 
d="M500 0h-299v1536h299v-1536zM58 1777q-68 0 -123 50q-54 51 -54 124q0 77 55 126q53 49 122 49q77 0 127 -51q49 -50 49 -124q0 -33 -12.5 -64.5t-35 -55.5t-55.5 -39t-73 -15zM646 1777q-68 0 -123 50q-54 51 -54 124q0 76 54 126q55 49 123 49q77 0 127 -51
q49 -50 49 -124q0 -33 -12.5 -64.5t-35 -55.5t-55.5 -39t-73 -15z" />
    <glyph glyph-name="eth" unicode="&#xf0;" horiz-adv-x="1625" 
d="M812 -32q-108 0 -200 26t-166.5 73t-131.5 112.5t-97 144.5q-83 168 -83 380q0 214 80 377q42 84 97 148.5t118.5 108.5t135 68t146.5 28q155 0 261 -62q105 -61 160 -148h20q-107 259 -321 465l-353 -174l-84 171l277 136q-110 79 -249 153l132 201q180 -91 355 -237
l318 156l84 -170l-254 -125q92 -96 171 -211t137.5 -247t92 -280t33.5 -310q0 -129 -23 -237t-65 -194.5t-101.5 -151.5t-132.5 -108q-153 -93 -357 -93zM818 220q98 0 172.5 35.5t124.5 99t75 150.5t25 189q0 61 -9 122t-29 117t-51.5 105t-75.5 84.5t-101.5 56
t-130.5 20.5q-67 0 -122 -17.5t-98 -49t-74.5 -75.5t-52.5 -98q-45 -113 -45 -254q0 -65 9.5 -125.5t30.5 -114.5t53.5 -99.5t77.5 -80.5q86 -65 221 -65z" />
    <glyph glyph-name="ntilde" unicode="&#xf1;" horiz-adv-x="1682" 
d="M1483 0h-299v941q0 88 -24.5 155t-68 111.5t-103 67t-130.5 22.5q-73 0 -138 -23t-114 -70t-77.5 -120t-28.5 -172v-912h-299v1536h287v-250h19q27 62 68.5 112t98 85t128 54t158.5 19q108 -1 203.5 -34t167 -103t112.5 -179.5t40 -262.5v-977zM541 1722l-201 6
q0 88 25 156t68 114t99.5 70t118.5 24t113 -23q26 -14 49 -26.5t43 -25.5q38 -26 74.5 -43t85.5 -17q32 0 56 11.5t40.5 32t25 48.5t9.5 61l197 -13q0 -88 -25 -155t-68 -112t-99 -68t-119 -24q-75 0 -124 23q-50 25 -87 52q-33 27 -69.5 44t-84.5 17q-60 0 -94 -46
q-33 -45 -33 -106z" />
    <glyph glyph-name="ograve" unicode="&#xf2;" horiz-adv-x="1696" 
d="M848 -31q-113 0 -209 26.5t-174.5 76t-139.5 119t-104 155.5q-89 180 -89 415q-2 182 50.5 329.5t147.5 251t227 159.5t291 55q113 0 209 -26.5t175 -76t139.5 -119t103.5 -155.5q89 -180 89 -418q0 -124 -24 -230t-68 -193.5t-106.5 -155t-139.5 -114.5
q-161 -99 -378 -99zM849 220q106 0 183.5 43t128.5 117t76 172.5t25 209.5q0 102 -22.5 199.5t-72 174t-128 123.5t-190.5 47q-106 0 -184 -44t-129.5 -118.5t-76.5 -173t-25 -208.5q0 -105 23 -203t73.5 -173t129 -120.5t189.5 -45.5zM971 1741h-239l-309 461h315z" />
    <glyph glyph-name="oacute" unicode="&#xf3;" horiz-adv-x="1696" 
d="M848 -31q-113 0 -209 26.5t-174.5 76t-139.5 119t-104 155.5q-89 180 -89 415q-2 182 50.5 329.5t147.5 251t227 159.5t291 55q113 0 209 -26.5t175 -76t139.5 -119t103.5 -155.5q89 -180 89 -418q0 -124 -24 -230t-68 -193.5t-106.5 -155t-139.5 -114.5
q-161 -99 -378 -99zM849 220q106 0 183.5 43t128.5 117t76 172.5t25 209.5q0 102 -22.5 199.5t-72 174t-128 123.5t-190.5 47q-106 0 -184 -44t-129.5 -118.5t-76.5 -173t-25 -208.5q0 -105 23 -203t73.5 -173t129 -120.5t189.5 -45.5zM964 1741h-239l233 461h315z" />
    <glyph glyph-name="ocircumflex" unicode="&#xf4;" horiz-adv-x="1696" 
d="M848 -31q-113 0 -209 26.5t-174.5 76t-139.5 119t-104 155.5q-89 180 -89 415q-2 182 50.5 329.5t147.5 251t227 159.5t291 55q113 0 209 -26.5t175 -76t139.5 -119t103.5 -155.5q89 -180 89 -418q0 -124 -24 -230t-68 -193.5t-106.5 -155t-139.5 -114.5
q-161 -99 -378 -99zM849 220q106 0 183.5 43t128.5 117t76 172.5t25 209.5q0 102 -22.5 199.5t-72 174t-128 123.5t-190.5 47q-106 0 -184 -44t-129.5 -118.5t-76.5 -173t-25 -208.5q0 -105 23 -203t73.5 -173t129 -120.5t189.5 -45.5zM1324 1720h-271l-205 268l-206 -268
h-270v15l351 424h249l352 -424v-15z" />
    <glyph glyph-name="otilde" unicode="&#xf5;" horiz-adv-x="1673" 
d="M850 -31q-113 0 -209 26.5t-174.5 76t-139.5 119t-104 155.5q-89 180 -89 415q-2 182 50.5 329.5t147.5 251t227 159.5t291 55q113 0 209 -26.5t175 -76t139.5 -119t103.5 -155.5q89 -180 89 -418q0 -124 -24 -230t-68 -193.5t-106.5 -155t-139.5 -114.5
q-161 -99 -378 -99zM851 220q106 0 183.5 43t128.5 117t76 172.5t25 209.5q0 102 -22.5 199.5t-72 174t-128 123.5t-190.5 47q-106 0 -184 -44t-129.5 -118.5t-76.5 -173t-25 -208.5q0 -105 23 -203t73.5 -173t129 -120.5t189.5 -45.5zM603 1722l-201 6q0 88 25 156t68 114
t99.5 70t118.5 24t113 -23q26 -14 49 -26.5t43 -25.5q38 -26 74.5 -43t85.5 -17q32 0 56 11.5t40.5 32t25 48.5t9.5 61l197 -13q0 -88 -25 -155t-68 -112t-99 -68t-119 -24q-75 0 -124 23q-50 25 -87 52q-33 27 -69.5 44t-84.5 17q-60 0 -94 -46q-33 -45 -33 -106z" />
    <glyph glyph-name="odieresis" unicode="&#xf6;" horiz-adv-x="1696" 
d="M848 -31q-113 0 -209 26.5t-174.5 76t-139.5 119t-104 155.5q-89 180 -89 415q-2 182 50.5 329.5t147.5 251t227 159.5t291 55q113 0 209 -26.5t175 -76t139.5 -119t103.5 -155.5q89 -180 89 -418q0 -124 -24 -230t-68 -193.5t-106.5 -155t-139.5 -114.5
q-161 -99 -378 -99zM849 220q106 0 183.5 43t128.5 117t76 172.5t25 209.5q0 102 -22.5 199.5t-72 174t-128 123.5t-190.5 47q-106 0 -184 -44t-129.5 -118.5t-76.5 -173t-25 -208.5q0 -105 23 -203t73.5 -173t129 -120.5t189.5 -45.5zM554 1777q-68 0 -123 50
q-54 51 -54 124q0 76 54 126q55 49 123 49q77 0 127 -51q49 -50 49 -124q0 -33 -12.5 -64.5t-35 -55.5t-55.5 -39t-73 -15zM1142 1777q-68 0 -123 50q-54 51 -54 124q0 76 54 126q55 49 123 49q77 0 127 -51q49 -50 49 -124q0 -33 -12.5 -64.5t-35 -55.5t-55.5 -39t-73 -15z
" />
    <glyph glyph-name="divide" unicode="&#xf7;" horiz-adv-x="1837" 
d="M1578 675h-1320v263h1320v-263zM918 1138q-86 0 -143 59q-57 60 -57 142q0 79 57 138t143 59q83 0 140 -57t57 -140q0 -85 -59 -144q-59 -57 -138 -57zM918 77q-84 0 -142 57q-58 58 -58 144q0 77 55 136q55 60 145 60q84 0 140 -59q57 -59 57 -137q0 -91 -60 -146
q-59 -55 -137 -55z" />
    <glyph glyph-name="oslash" unicode="&#xf8;" horiz-adv-x="1698" 
d="M390 -89l-167 114l108 158q-91 97 -145 240.5t-54 336.5q-2 182 50.5 329.5t147.5 251t227 159.5t291 55q204 0 358 -88l100 146l167 -114l-108 -158q94 -100 146.5 -244t52.5 -337q0 -124 -24 -230t-68 -193.5t-106.5 -155t-139.5 -114.5q-161 -99 -378 -99
q-205 0 -359 88zM849 219q106 0 183.5 43t128.5 117t76 172.5t25 209.5q0 182 -69 328l-553 -812q85 -58 209 -58zM503 435l553 812q-83 58 -207 58q-106 0 -184 -44t-129.5 -118.5t-76.5 -173t-25 -208.5q0 -188 69 -326z" />
    <glyph glyph-name="ugrave" unicode="&#xf9;" horiz-adv-x="1674" 
d="M705 -20q-133 0 -249 59q-115 60 -187 193q-68 128 -68 327v977h299v-941q0 -83 24 -147t66.5 -107.5t99.5 -66t123 -22.5q83 0 164 40q82 40 141 130q55 86 56 215v899h300v-1536h-294v266h-16q-27 -62 -69 -114.5t-99.5 -90.5t-130 -59.5t-160.5 -21.5zM962 1741h-239
l-309 461h315z" />
    <glyph glyph-name="uacute" unicode="&#xfa;" horiz-adv-x="1674" 
d="M705 -20q-133 0 -249 59q-115 60 -187 193q-68 128 -68 327v977h299v-941q0 -83 24 -147t66.5 -107.5t99.5 -66t123 -22.5q83 0 164 40q82 40 141 130q55 86 56 215v899h300v-1536h-294v266h-16q-27 -62 -69 -114.5t-99.5 -90.5t-130 -59.5t-160.5 -21.5zM955 1741h-239
l233 461h315z" />
    <glyph glyph-name="ucircumflex" unicode="&#xfb;" horiz-adv-x="1674" 
d="M705 -20q-133 0 -249 59q-115 60 -187 193q-68 128 -68 327v977h299v-941q0 -83 24 -147t66.5 -107.5t99.5 -66t123 -22.5q83 0 164 40q82 40 141 130q55 86 56 215v899h300v-1536h-294v266h-16q-27 -62 -69 -114.5t-99.5 -90.5t-130 -59.5t-160.5 -21.5zM1316 1720h-271
l-205 268l-206 -268h-270v15l351 424h249l352 -424v-15z" />
    <glyph glyph-name="udieresis" unicode="&#xfc;" horiz-adv-x="1674" 
d="M705 -20q-133 0 -249 59q-115 60 -187 193q-68 128 -68 327v977h299v-941q0 -83 24 -147t66.5 -107.5t99.5 -66t123 -22.5q83 0 164 40q82 40 141 130q55 86 56 215v899h300v-1536h-294v266h-16q-27 -62 -69 -114.5t-99.5 -90.5t-130 -59.5t-160.5 -21.5zM546 1777
q-68 0 -123 50q-54 51 -54 124q0 76 54 126q55 49 123 49q77 0 127 -51q49 -50 49 -124q0 -33 -12.5 -64.5t-35 -55.5t-55.5 -39t-73 -15zM1134 1777q-68 0 -123 50q-54 51 -54 124q0 76 54 126q55 49 123 49q77 0 127 -51q49 -50 49 -124q0 -33 -12.5 -64.5t-35 -55.5
t-55.5 -39t-73 -15z" />
    <glyph glyph-name="yacute" unicode="&#xfd;" horiz-adv-x="1595" 
d="M379 -597q-72 0 -123 11t-77 24l72 248q66 -20 120 -20q37 0 69 9t60 30.5t52.5 59t45.5 94.5l44 121l-562 1556h320l389 -1192h16l389 1192h321l-640 -1760q-135 -373 -496 -373zM913 1741h-239l233 461h315z" />
    <glyph glyph-name="thorn" unicode="&#xfe;" horiz-adv-x="1719" 
d="M500 -576h-299v2624h299v-734h19q128 242 422 242q176 0 323 -90q147 -89 238 -275q84 -177 84 -426q0 -129 -22.5 -238t-63.5 -197t-98.5 -154t-126.5 -111q-146 -95 -332 -95q-172 0 -288 86q-90 65 -136 158h-19v-790zM882 225q104 -2 181.5 40.5t128.5 116t76.5 173
t25.5 213.5q0 233 -94 375q-107 159 -318 159q-103 1 -178 -39t-124 -111t-73 -169.5t-24 -214.5q0 -145 40 -268q40 -124 132 -202q88 -73 227 -73z" />
    <glyph glyph-name="ydieresis" unicode="&#xff;" horiz-adv-x="1595" 
d="M379 -597q-72 0 -123 11t-77 24l72 248q66 -20 120 -20q37 0 69 9t60 30.5t52.5 59t45.5 94.5l44 121l-562 1556h320l389 -1192h16l389 1192h321l-640 -1760q-135 -373 -496 -373zM503 1777q-68 0 -123 50q-54 51 -54 124q0 76 54 126q55 49 123 49q77 0 127 -51
q49 -50 49 -124q0 -33 -12.5 -64.5t-35 -55.5t-55.5 -39t-73 -15zM1091 1777q-68 0 -123 50q-54 51 -54 124q0 76 54 126q55 49 123 49q77 0 127 -51q49 -50 49 -124q0 -33 -12.5 -64.5t-35 -55.5t-55.5 -39t-73 -15z" />
    <glyph glyph-name="Amacron" unicode="&#x100;" horiz-adv-x="1971" 
d="M1901 0h-328l-187 542h-800l-188 -542h-328l737 2048h357zM1296 802l-302 874h-16l-302 -874h620zM1460 2350h-949v210h949v-210z" />
    <glyph glyph-name="amacron" unicode="&#x101;" horiz-adv-x="1603" 
d="M648 -34q-102 0 -196 27.5t-165.5 84.5t-114.5 145.5t-43 210.5q0 66 13.5 119t38.5 95.5t59 75.5t76 58q84 51 187.5 75t214.5 36q125 13 200.5 23t117 24.5t55.5 37.5t15 61q0 63 -17.5 114t-53.5 86.5t-91 55t-130 19.5q-73 0 -131.5 -17.5t-103 -47t-75.5 -68.5
t-47 -81l-281 64q41 107 106 181.5t147.5 121.5t179 68t201.5 21q293 0 454 -152q142 -133 142 -384v-1020h-292v210h-12q-27 -59 -85 -114q-139 -130 -369 -130zM713 206q94 -1 167.5 28t124 77.5t76.5 112t26 130.5v198q-38 -29 -144 -48q-43 -8 -84 -14.5t-82 -11.5
l-60 -8q-189 -20 -271 -111q-44 -50 -44 -129q0 -57 22.5 -99.5t61.5 -70t92 -41t115 -13.5zM1300 1838h-949v210h949v-210z" />
    <glyph glyph-name="Abreve" unicode="&#x102;" horiz-adv-x="1971" 
d="M1901 0h-328l-187 542h-800l-188 -542h-328l737 2048h357zM1296 802l-302 874h-16l-302 -874h620zM986 2188q-106 0 -188 29t-138 80t-85 120.5t-29 150.5h245q0 -37 9.5 -71t32 -60.5t60 -42.5t93.5 -16q52 0 89.5 15.5t61 42t34.5 60.5t11 72h246q0 -80 -28.5 -149.5
t-84 -120.5t-138.5 -80.5t-191 -29.5z" />
    <glyph glyph-name="abreve" unicode="&#x103;" horiz-adv-x="1603" 
d="M648 -34q-102 0 -196 27.5t-165.5 84.5t-114.5 145.5t-43 210.5q0 66 13.5 119t38.5 95.5t59 75.5t76 58q84 51 187.5 75t214.5 36q125 13 200.5 23t117 24.5t55.5 37.5t15 61q0 63 -17.5 114t-53.5 86.5t-91 55t-130 19.5q-73 0 -131.5 -17.5t-103 -47t-75.5 -68.5
t-47 -81l-281 64q41 107 106 181.5t147.5 121.5t179 68t201.5 21q293 0 454 -152q142 -133 142 -384v-1020h-292v210h-12q-27 -59 -85 -114q-139 -130 -369 -130zM713 206q94 -1 167.5 28t124 77.5t76.5 112t26 130.5v198q-38 -29 -144 -48q-43 -8 -84 -14.5t-82 -11.5
l-60 -8q-189 -20 -271 -111q-44 -50 -44 -129q0 -57 22.5 -99.5t61.5 -70t92 -41t115 -13.5zM826 1676q-106 0 -188 29t-138 80t-85 120.5t-29 150.5h245q0 -37 9.5 -71t32 -60.5t60 -42.5t93.5 -16q52 0 89.5 15.5t61 42t34.5 60.5t11 72h246q0 -80 -28.5 -149.5
t-84 -120.5t-138.5 -80.5t-191 -29.5z" />
    <glyph glyph-name="Aogonek" unicode="&#x104;" horiz-adv-x="1971" 
d="M1710 -591q-125 0 -208 68q-90 73 -94 219q0 78 38.5 158t125.5 150l-186 538h-800l-188 -542h-328l737 2048h357l737 -2048q-48 -30 -89.5 -61t-71.5 -65t-47.5 -71t-17.5 -78q0 -98 102 -98q63 0 125 32l26 -190q-95 -60 -218 -60zM1296 802l-302 874h-16l-302 -874
h620z" />
    <glyph glyph-name="aogonek" unicode="&#x105;" horiz-adv-x="1603" 
d="M1215 -591q-119 0 -204 65q-92 71 -98 224q0 86 47 171.5t154 161.5v179h-12q-20 -42 -57.5 -85t-94 -78.5t-132 -58t-170.5 -22.5q-105 0 -199 29t-165 87t-113 146t-42 206q0 216 147 323q150 108 442 136l89 10q166 15 232 37q67 22 67 92q0 66 -17 118t-53 88.5
t-91 56t-131 19.5q-74 0 -133 -18t-103 -47.5t-74.5 -68t-46.5 -80.5l-281 64q40 106 105 180.5t147.5 121.5t180 68.5t201.5 21.5q291 0 457 -154q139 -135 139 -382v-1020q-52 -32 -94 -64.5t-71 -66.5t-45 -69.5t-16 -74.5q0 -98 102 -98q63 0 125 32l26 -190
q-95 -60 -218 -60zM713 206q94 -1 167.5 28t124 77.5t76.5 112t26 130.5v198q-38 -29 -144 -48q-43 -8 -84 -14.5t-82 -11.5l-60 -8q-189 -20 -271 -111q-44 -50 -44 -129q0 -57 22.5 -99.5t61.5 -70t92 -41t115 -13.5z" />
    <glyph glyph-name="Cacute" unicode="&#x106;" horiz-adv-x="2071" 
d="M1080 -28q-202 -1 -371.5 72t-292.5 210t-191 332t-66 438q0 254 70 446q54 146 136.5 258.5t190 189t239.5 116.5t285 42q324 0 556 -182q232 -181 290 -512h-312q-42 199 -189 306q-145 106 -342 106q-169 0 -309 -85q-142 -86 -227 -264q-81 -173 -81 -421
q0 -250 81 -422q87 -180 228 -264t307 -84q193 0 341 104q147 105 191 302l312 -1q-21 -111 -61 -203.5t-97 -167t-128.5 -131.5t-155.5 -97q-177 -88 -404 -88zM1196 2253h-239l233 461h315z" />
    <glyph glyph-name="cacute" unicode="&#x107;" horiz-adv-x="1599" 
d="M848 -31q-117 0 -215 27.5t-177 77.5t-138.5 120.5t-99.5 156.5q-86 180 -86 410q0 247 91 422q94 180 251 276.5t371 96.5q261 0 434 -140q171 -138 200 -376h-291q-12 55 -39 103t-69.5 84t-100 56.5t-129.5 20.5q-187 0 -302 -145q-114 -144 -114 -391
q0 -250 111 -398t305 -148q118 0 209 64q92 65 129 200h291q-14 -114 -62.5 -209t-129 -163.5t-191.5 -106.5t-248 -38zM959 1741h-239l233 461h315z" />
    <glyph glyph-name="Ccircumflex" unicode="&#x108;" horiz-adv-x="2071" 
d="M1080 -28q-202 -1 -371.5 72t-292.5 210t-191 332t-66 438q0 254 70 446q54 146 136.5 258.5t190 189t239.5 116.5t285 42q324 0 556 -182q232 -181 290 -512h-312q-42 199 -189 306q-145 106 -342 106q-169 0 -309 -85q-142 -86 -227 -264q-81 -173 -81 -421
q0 -250 81 -422q87 -180 228 -264t307 -84q193 0 341 104q147 105 191 302l312 -1q-21 -111 -61 -203.5t-97 -167t-128.5 -131.5t-155.5 -97q-177 -88 -404 -88zM1556 2232h-271l-205 268l-206 -268h-270v15l351 424h249l352 -424v-15z" />
    <glyph glyph-name="ccircumflex" unicode="&#x109;" horiz-adv-x="1599" 
d="M848 -31q-117 0 -215 27.5t-177 77.5t-138.5 120.5t-99.5 156.5q-86 180 -86 410q0 247 91 422q94 180 251 276.5t371 96.5q261 0 434 -140q171 -138 200 -376h-291q-12 55 -39 103t-69.5 84t-100 56.5t-129.5 20.5q-187 0 -302 -145q-114 -144 -114 -391
q0 -250 111 -398t305 -148q118 0 209 64q92 65 129 200h291q-14 -114 -62.5 -209t-129 -163.5t-191.5 -106.5t-248 -38zM1319 1720h-271l-205 268l-206 -268h-270v15l351 424h249l352 -424v-15z" />
    <glyph glyph-name="Cdotaccent" unicode="&#x10a;" horiz-adv-x="2071" 
d="M1080 -28q-202 -1 -371.5 72t-292.5 210t-191 332t-66 438q0 254 70 446q54 146 136.5 258.5t190 189t239.5 116.5t285 42q324 0 556 -182q232 -181 290 -512h-312q-42 199 -189 306q-145 106 -342 106q-169 0 -309 -85q-142 -86 -227 -264q-81 -173 -81 -421
q0 -250 81 -422q87 -180 228 -264t307 -84q193 0 341 104q147 105 191 302l312 -1q-21 -111 -61 -203.5t-97 -167t-128.5 -131.5t-155.5 -97q-177 -88 -404 -88zM1080 2285q-80 0 -135 52q-54 52 -54 126q0 76 55 127q55 52 134 52q73 0 131 -50q58 -49 58 -129
q0 -76 -57 -127q-56 -51 -132 -51z" />
    <glyph glyph-name="cdotaccent" unicode="&#x10b;" horiz-adv-x="1599" 
d="M848 -31q-117 0 -215 27.5t-177 77.5t-138.5 120.5t-99.5 156.5q-86 180 -86 410q0 247 91 422q94 180 251 276.5t371 96.5q261 0 434 -140q171 -138 200 -376h-291q-12 55 -39 103t-69.5 84t-100 56.5t-129.5 20.5q-187 0 -302 -145q-114 -144 -114 -391
q0 -250 111 -398t305 -148q118 0 209 64q92 65 129 200h291q-14 -114 -62.5 -209t-129 -163.5t-191.5 -106.5t-248 -38zM843 1773q-80 0 -135 52q-54 52 -54 126q0 76 55 127q55 52 134 52q73 0 131 -50q58 -49 58 -129q0 -76 -57 -127q-56 -51 -132 -51z" />
    <glyph glyph-name="Ccaron" unicode="&#x10c;" horiz-adv-x="2071" 
d="M1080 -28q-202 -1 -371.5 72t-292.5 210t-191 332t-66 438q0 254 70 446q54 146 136.5 258.5t190 189t239.5 116.5t285 42q324 0 556 -182q232 -181 290 -512h-312q-42 199 -189 306q-145 106 -342 106q-169 0 -309 -85q-142 -86 -227 -264q-81 -173 -81 -421
q0 -250 81 -422q87 -180 228 -264t307 -84q193 0 341 104q147 105 191 302l312 -1q-21 -111 -61 -203.5t-97 -167t-128.5 -131.5t-155.5 -97q-177 -88 -404 -88zM1204 2232h-249l-351 424v15h270l206 -268l205 268h271v-15z" />
    <glyph glyph-name="ccaron" unicode="&#x10d;" horiz-adv-x="1599" 
d="M848 -31q-117 0 -215 27.5t-177 77.5t-138.5 120.5t-99.5 156.5q-86 180 -86 410q0 247 91 422q94 180 251 276.5t371 96.5q261 0 434 -140q171 -138 200 -376h-291q-12 55 -39 103t-69.5 84t-100 56.5t-129.5 20.5q-187 0 -302 -145q-114 -144 -114 -391
q0 -250 111 -398t305 -148q118 0 209 64q92 65 129 200h291q-14 -114 -62.5 -209t-129 -163.5t-191.5 -106.5t-248 -38zM967 1720h-249l-351 424v15h270l206 -268l205 268h271v-15z" />
    <glyph glyph-name="Dcaron" unicode="&#x10e;" horiz-adv-x="2032" 
d="M888 0h-663v2048h684q408 0 656 -221q308 -275 308 -800q1 -245 -67 -436t-195.5 -322.5t-310.5 -200.5t-412 -68zM871 270q350 0 524 196t174 561q0 221 -70 391q-69 170 -224 268q-151 92 -385 92h-356v-1508h337zM966 2232h-249l-351 424v15h270l206 -268l205 268h271
v-15z" />
    <glyph glyph-name="dcaron" unicode="&#x10f;" horiz-adv-x="1966" 
d="M778 -30q-85 0 -165.5 21t-152 66t-133 114.5t-108.5 167.5q-83 180 -83 426q0 130 22.5 238.5t64 195.5t99 152.5t127.5 110.5q145 94 331 94q195 0 308 -98q83 -74 134 -171h18v761h299v-2048h-292v239h-25q-53 -105 -139 -173q-119 -96 -305 -96zM844 225q98 0 173 40
t125.5 111.5t76.5 171.5t26 220q0 122 -26 221t-77 168.5t-126 107t-172 37.5q-101 1 -177 -40t-127 -113.5t-76.5 -170.5t-25.5 -210q0 -109 23.5 -207.5t73 -173t126 -118.5t183.5 -44zM1829 1335l-209 61q120 259 120 488v164h260v-153q0 -139 -40 -283
q-20 -73 -52.5 -142t-78.5 -135z" />
    <glyph glyph-name="Dcroat" unicode="&#x110;" horiz-adv-x="2032" 
d="M888 0h-663v960h-306v207h306v881h684q408 0 656 -221q308 -275 308 -800q1 -245 -67 -436t-195.5 -322.5t-310.5 -200.5t-412 -68zM871 270q350 0 524 196t174 561q0 221 -70 391q-69 170 -224 268q-151 92 -385 92h-356v-611h304v-207h-304v-690h337z" />
    <glyph glyph-name="dcroat" unicode="&#x111;" horiz-adv-x="1762" 
d="M776 -30q-85 0 -165.5 21t-152 66t-133 114.5t-108.5 167.5q-83 180 -83 426q0 130 22.5 238.5t64 195.5t99 152.5t127.5 110.5q145 94 331 94q195 0 308 -98q83 -74 134 -171h18v372h-415v207h415v182h299v-182h205v-207h-205v-1659h-292v239h-25q-53 -105 -139 -173
q-119 -96 -305 -96zM842 225q98 0 173 40t125.5 111.5t76.5 171.5t26 220q0 122 -26 221t-77 168.5t-126 107t-172 37.5q-101 1 -177 -40t-127 -113.5t-76.5 -170.5t-25.5 -210q0 -109 23.5 -207.5t73 -173t126 -118.5t183.5 -44z" />
    <glyph glyph-name="Emacron" unicode="&#x112;" horiz-adv-x="1698" 
d="M1521 0h-1296v2048h1284v-266h-975v-624h908v-265h-908v-627h987v-266zM1341 2350h-949v210h949v-210z" />
    <glyph glyph-name="emacron" unicode="&#x113;" horiz-adv-x="1654" 
d="M863 -31q-234 0 -395 100q-162 100 -247 274q-89 178 -89 415q0 247 91 423t246 274q160 101 373 101q125 0 246.5 -40.5t222.5 -133.5q211 -201 211 -598v-106h-1092q6 -117 40.5 -204t91.5 -144t134.5 -85.5t169.5 -28.5q61 0 115.5 13t100 39.5t80.5 68t58 98.5
l283 -51q-26 -92 -79.5 -168t-134.5 -131t-187.5 -85.5t-238.5 -30.5zM1229 902q-2 90 -29.5 164.5t-77.5 128.5t-120 84t-158 30q-64 0 -118 -15.5t-98.5 -43t-79 -65t-58.5 -80.5q-26 -46 -40.5 -96.5t-18.5 -106.5h798zM1305 1838h-949v210h949v-210z" />
    <glyph glyph-name="Ebreve" unicode="&#x114;" horiz-adv-x="1698" 
d="M1521 0h-1296v2048h1284v-266h-975v-624h908v-265h-908v-627h987v-266zM867 2188q-106 0 -188 29t-138 80t-85 120.5t-29 150.5h245q0 -37 9.5 -71t32 -60.5t60 -42.5t93.5 -16q52 0 89.5 15.5t61 42t34.5 60.5t11 72h246q0 -80 -28.5 -149.5t-84 -120.5t-138.5 -80.5
t-191 -29.5z" />
    <glyph glyph-name="ebreve" unicode="&#x115;" horiz-adv-x="1654" 
d="M863 -31q-234 0 -395 100q-162 100 -247 274q-89 178 -89 415q0 247 91 423t246 274q160 101 373 101q125 0 246.5 -40.5t222.5 -133.5q211 -201 211 -598v-106h-1092q6 -117 40.5 -204t91.5 -144t134.5 -85.5t169.5 -28.5q61 0 115.5 13t100 39.5t80.5 68t58 98.5
l283 -51q-26 -92 -79.5 -168t-134.5 -131t-187.5 -85.5t-238.5 -30.5zM1229 902q-2 90 -29.5 164.5t-77.5 128.5t-120 84t-158 30q-64 0 -118 -15.5t-98.5 -43t-79 -65t-58.5 -80.5q-26 -46 -40.5 -96.5t-18.5 -106.5h798zM831 1676q-106 0 -188 29t-138 80t-85 120.5
t-29 150.5h245q0 -37 9.5 -71t32 -60.5t60 -42.5t93.5 -16q52 0 89.5 15.5t61 42t34.5 60.5t11 72h246q0 -80 -28.5 -149.5t-84 -120.5t-138.5 -80.5t-191 -29.5z" />
    <glyph glyph-name="Edotaccent" unicode="&#x116;" horiz-adv-x="1698" 
d="M1521 0h-1296v2048h1284v-266h-975v-624h908v-265h-908v-627h987v-266zM867 2285q-80 0 -135 52q-54 52 -54 126q0 76 55 127q55 52 134 52q73 0 131 -50q58 -49 58 -129q0 -76 -57 -127q-56 -51 -132 -51z" />
    <glyph glyph-name="edotaccent" unicode="&#x117;" horiz-adv-x="1654" 
d="M863 -31q-234 0 -395 100q-162 100 -247 274q-89 178 -89 415q0 247 91 423t246 274q160 101 373 101q125 0 246.5 -40.5t222.5 -133.5q211 -201 211 -598v-106h-1092q6 -117 40.5 -204t91.5 -144t134.5 -85.5t169.5 -28.5q61 0 115.5 13t100 39.5t80.5 68t58 98.5
l283 -51q-26 -92 -79.5 -168t-134.5 -131t-187.5 -85.5t-238.5 -30.5zM1229 902q-2 90 -29.5 164.5t-77.5 128.5t-120 84t-158 30q-64 0 -118 -15.5t-98.5 -43t-79 -65t-58.5 -80.5q-26 -46 -40.5 -96.5t-18.5 -106.5h798zM831 1773q-80 0 -135 52q-54 52 -54 126
q0 76 55 127q55 52 134 52q73 0 131 -50q58 -49 58 -129q0 -76 -57 -127q-56 -51 -132 -51z" />
    <glyph glyph-name="Eogonek" unicode="&#x118;" horiz-adv-x="1698" 
d="M1330 -591q-125 0 -208 68q-90 73 -94 219q0 173 159 304h-962v2048h1284v-266h-975v-624h908v-265h-908v-627h987v-266q-48 -30 -89.5 -61t-71.5 -65t-47.5 -71t-17.5 -78q0 -98 102 -98q63 0 125 32l26 -190q-95 -60 -218 -60z" />
    <glyph glyph-name="eogonek" unicode="&#x119;" horiz-adv-x="1654" 
d="M917 -577q-125 0 -208 68q-90 74 -94 216q0 149 119 271q-293 50 -447 256q-155 209 -155 524q0 124 24 230.5t68.5 194t106.5 156t138 116.5q160 101 373 101q84 -1 167 -18.5t159 -55.5t141 -98.5t112.5 -146t74.5 -198t26 -255.5v-106h-1092q5 -117 39.5 -204t92 -144
t135 -85.5t169.5 -28.5q61 0 115.5 13t100 39.5t80.5 68t58 98.5l283 -51q-85 -298 -425 -390q-196 -127 -196 -255q0 -98 102 -98q63 0 125 32l26 -190q-95 -60 -218 -60zM1229 902q-2 90 -29.5 164.5t-77.5 128.5t-120 84t-158 30q-64 0 -118 -15.5t-98.5 -43t-79 -65
t-58.5 -80.5q-26 -46 -40.5 -96.5t-18.5 -106.5h798z" />
    <glyph glyph-name="Ecaron" unicode="&#x11a;" horiz-adv-x="1698" 
d="M1521 0h-1296v2048h1284v-266h-975v-624h908v-265h-908v-627h987v-266zM991 2232h-249l-351 424v15h270l206 -268l205 268h271v-15z" />
    <glyph glyph-name="ecaron" unicode="&#x11b;" horiz-adv-x="1654" 
d="M863 -31q-234 0 -395 100q-162 100 -247 274q-89 178 -89 415q0 247 91 423t246 274q160 101 373 101q125 0 246.5 -40.5t222.5 -133.5q211 -201 211 -598v-106h-1092q6 -117 40.5 -204t91.5 -144t134.5 -85.5t169.5 -28.5q61 0 115.5 13t100 39.5t80.5 68t58 98.5
l283 -51q-26 -92 -79.5 -168t-134.5 -131t-187.5 -85.5t-238.5 -30.5zM1229 902q-2 90 -29.5 164.5t-77.5 128.5t-120 84t-158 30q-64 0 -118 -15.5t-98.5 -43t-79 -65t-58.5 -80.5q-26 -46 -40.5 -96.5t-18.5 -106.5h798zM955 1720h-249l-351 424v15h270l206 -268l205 268
h271v-15z" />
    <glyph glyph-name="Gcircumflex" unicode="&#x11c;" horiz-adv-x="2128" 
d="M1090 -28q-144 0 -268 34t-226.5 97.5t-182.5 155t-136 205.5q-118 235 -118 559q0 252 71 447q145 385 482 532q168 74 372 74q170 1 316.5 -49t259 -140t187 -214t101.5 -272h-317q-56 183 -195 288q-140 105 -349 105q-165 0 -307 -85q-142 -84 -231 -263
q-83 -174 -83 -421q-2 -188 46 -332.5t132 -242t198.5 -147t247.5 -49.5q176 0 298 69q124 70 194 187t77 283h-522v255h825v-1048h-238l-28 245h-10q-120 -143 -267.5 -208t-328.5 -65zM1549 2232h-271l-205 268l-206 -268h-270v15l351 424h249l352 -424v-15z" />
    <glyph glyph-name="gcircumflex" unicode="&#x11d;" horiz-adv-x="1738" 
d="M845 -605q-137 0 -246 28.5t-190 76.5t-135 110t-82 130l257 106q112 -210 399 -210q78 0 150 18.5t126 59.5t85.5 106t30.5 158v302h-19q-38 -81 -137 -165q-115 -92 -308 -92q-173 0 -319 82q-147 83 -238 257q-85 166 -85 412q0 128 22.5 235t64 193t99 151t127.5 110
q145 93 331 93q311 0 445 -269h22v249h293v-1570q0 -147 -53.5 -254.5t-146.5 -178t-219.5 -104.5t-273.5 -34zM842 271q102 0 177.5 37t125 103.5t74 160t24.5 206.5q0 109 -23.5 205t-72 167t-124.5 112t-181 40q-71 0 -127.5 -19t-101 -52.5t-77 -81t-54.5 -104.5
q-46 -117 -46 -267q0 -105 23.5 -197.5t72.5 -162t125.5 -109.5t184.5 -38zM1340 1720h-271l-205 268l-206 -268h-270v15l351 424h249l352 -424v-15z" />
    <glyph glyph-name="Gbreve" unicode="&#x11e;" horiz-adv-x="2128" 
d="M1090 -28q-144 0 -268 34t-226.5 97.5t-182.5 155t-136 205.5q-118 235 -118 559q0 252 71 447q145 385 482 532q168 74 372 74q170 1 316.5 -49t259 -140t187 -214t101.5 -272h-317q-56 183 -195 288q-140 105 -349 105q-165 0 -307 -85q-142 -84 -231 -263
q-83 -174 -83 -421q-2 -188 46 -332.5t132 -242t198.5 -147t247.5 -49.5q176 0 298 69q124 70 194 187t77 283h-522v255h825v-1048h-238l-28 245h-10q-120 -143 -267.5 -208t-328.5 -65zM1073 2188q-106 0 -188 29t-138 80t-85 120.5t-29 150.5h245q0 -37 9.5 -71t32 -60.5
t60 -42.5t93.5 -16q52 0 89.5 15.5t61 42t34.5 60.5t11 72h246q0 -80 -28.5 -149.5t-84 -120.5t-138.5 -80.5t-191 -29.5z" />
    <glyph glyph-name="gbreve" unicode="&#x11f;" horiz-adv-x="1738" 
d="M845 -605q-137 0 -246 28.5t-190 76.5t-135 110t-82 130l257 106q112 -210 399 -210q78 0 150 18.5t126 59.5t85.5 106t30.5 158v302h-19q-38 -81 -137 -165q-115 -92 -308 -92q-173 0 -319 82q-147 83 -238 257q-85 166 -85 412q0 128 22.5 235t64 193t99 151t127.5 110
q145 93 331 93q311 0 445 -269h22v249h293v-1570q0 -147 -53.5 -254.5t-146.5 -178t-219.5 -104.5t-273.5 -34zM842 271q102 0 177.5 37t125 103.5t74 160t24.5 206.5q0 109 -23.5 205t-72 167t-124.5 112t-181 40q-71 0 -127.5 -19t-101 -52.5t-77 -81t-54.5 -104.5
q-46 -117 -46 -267q0 -105 23.5 -197.5t72.5 -162t125.5 -109.5t184.5 -38zM864 1676q-106 0 -188 29t-138 80t-85 120.5t-29 150.5h245q0 -37 9.5 -71t32 -60.5t60 -42.5t93.5 -16q52 0 89.5 15.5t61 42t34.5 60.5t11 72h246q0 -80 -28.5 -149.5t-84 -120.5t-138.5 -80.5
t-191 -29.5z" />
    <glyph glyph-name="Gdotaccent" unicode="&#x120;" horiz-adv-x="2128" 
d="M1090 -28q-144 0 -268 34t-226.5 97.5t-182.5 155t-136 205.5q-118 235 -118 559q0 252 71 447q145 385 482 532q168 74 372 74q170 1 316.5 -49t259 -140t187 -214t101.5 -272h-317q-56 183 -195 288q-140 105 -349 105q-165 0 -307 -85q-142 -84 -231 -263
q-83 -174 -83 -421q-2 -188 46 -332.5t132 -242t198.5 -147t247.5 -49.5q176 0 298 69q124 70 194 187t77 283h-522v255h825v-1048h-238l-28 245h-10q-120 -143 -267.5 -208t-328.5 -65zM1073 2285q-80 0 -135 52q-54 52 -54 126q0 76 55 127q55 52 134 52q73 0 131 -50
q58 -49 58 -129q0 -76 -57 -127q-56 -51 -132 -51z" />
    <glyph glyph-name="gdotaccent" unicode="&#x121;" horiz-adv-x="1738" 
d="M845 -605q-137 0 -246 28.5t-190 76.5t-135 110t-82 130l257 106q112 -210 399 -210q78 0 150 18.5t126 59.5t85.5 106t30.5 158v302h-19q-38 -81 -137 -165q-115 -92 -308 -92q-173 0 -319 82q-147 83 -238 257q-85 166 -85 412q0 128 22.5 235t64 193t99 151t127.5 110
q145 93 331 93q311 0 445 -269h22v249h293v-1570q0 -147 -53.5 -254.5t-146.5 -178t-219.5 -104.5t-273.5 -34zM842 271q102 0 177.5 37t125 103.5t74 160t24.5 206.5q0 109 -23.5 205t-72 167t-124.5 112t-181 40q-71 0 -127.5 -19t-101 -52.5t-77 -81t-54.5 -104.5
q-46 -117 -46 -267q0 -105 23.5 -197.5t72.5 -162t125.5 -109.5t184.5 -38zM864 1773q-80 0 -135 52q-54 52 -54 126q0 76 55 127q55 52 134 52q73 0 131 -50q58 -49 58 -129q0 -76 -57 -127q-56 -51 -132 -51z" />
    <glyph glyph-name="uni0122" unicode="&#x122;" horiz-adv-x="2128" 
d="M1090 -28q-144 0 -268 34t-226.5 97.5t-182.5 155t-136 205.5q-118 235 -118 559q0 252 71 447q145 385 482 532q168 74 372 74q170 1 316.5 -49t259 -140t187 -214t101.5 -272h-317q-56 183 -195 288q-140 105 -349 105q-165 0 -307 -85q-142 -84 -231 -263
q-83 -174 -83 -421q-2 -188 46 -332.5t132 -242t198.5 -147t247.5 -49.5q176 0 298 69q124 70 194 187t77 283h-522v255h825v-1048h-238l-28 245h-10q-120 -143 -267.5 -208t-328.5 -65zM1031 -837l-209 61q120 259 120 488v164h260v-153q0 -139 -40 -283
q-20 -73 -52.5 -142t-78.5 -135z" />
    <glyph glyph-name="uni0123" unicode="&#x123;" horiz-adv-x="1738" 
d="M845 -605q-137 0 -246 28.5t-190 76.5t-135 110t-82 130l257 106q112 -210 399 -210q78 0 150 18.5t126 59.5t85.5 106t30.5 158v302h-19q-38 -81 -137 -165q-115 -92 -308 -92q-173 0 -319 82q-147 83 -238 257q-85 166 -85 412q0 128 22.5 235t64 193t99 151t127.5 110
q145 93 331 93q311 0 445 -269h22v249h293v-1570q0 -147 -53.5 -254.5t-146.5 -178t-219.5 -104.5t-273.5 -34zM842 271q102 0 177.5 37t125 103.5t74 160t24.5 206.5q0 109 -23.5 205t-72 167t-124.5 112t-181 40q-71 0 -127.5 -19t-101 -52.5t-77 -81t-54.5 -104.5
q-46 -117 -46 -267q0 -105 23.5 -197.5t72.5 -162t125.5 -109.5t184.5 -38zM1003 1743h-290v181q-1 70 18 136.5t48.5 124t66 102.5t71.5 72l175 -118q-87 -146 -87 -330z" />
    <glyph glyph-name="Hcircumflex" unicode="&#x124;" horiz-adv-x="2090" 
d="M1865 0h-310v893h-1021v-893h-309v2048h309v-890h1021v890h310v-2048zM1529 2235h-271l-205 268l-206 -268h-270v15l351 424h249l352 -424v-15z" />
    <glyph glyph-name="hcircumflex" unicode="&#x125;" horiz-adv-x="1695" 
d="M1496 0h-299v941q0 90 -24.5 157t-68 111t-104 66t-132.5 22q-75 0 -141.5 -23t-117 -70.5t-80 -120t-29.5 -171.5v-912h-299v2048h295v-762h19q53 126 164.5 198t290.5 72q235 0 373 -135q153 -149 153 -444v-977zM827 2232h-271l-205 268l-206 -268h-270v15l351 424
h249l352 -424v-15z" />
    <glyph glyph-name="Hbar" unicode="&#x126;" horiz-adv-x="2219" 
d="M1930 0h-310v893h-1021v-893h-309v1422h-166v220h166v406h309v-406h1021v406h310v-406h165v-220h-165v-1422zM1620 1158v264h-1021v-264h1021z" />
    <glyph glyph-name="hbar" unicode="&#x127;" horiz-adv-x="1695" 
d="M1496 0h-299v941q0 90 -24.5 157t-68 111t-104 66t-132.5 22q-75 0 -141.5 -23t-117 -70.5t-80 -120t-29.5 -171.5v-912h-299v1682h-311v207h311v159h295v-159h313v-207h-313v-396h19q53 126 164.5 198t290.5 72q235 0 373 -135q153 -149 153 -444v-977z" />
    <glyph glyph-name="Itilde" unicode="&#x128;" horiz-adv-x="1282" 
d="M1158 0h-1034v266h363v1516h-363v266h1034v-266h-362v-1516h362v-266zM341 2234l-201 6q0 88 25 156t68 114t99.5 70t118.5 24t113 -23q26 -14 49 -26.5t43 -25.5q38 -26 74.5 -43t85.5 -17q32 0 56 11.5t40.5 32t25 48.5t9.5 61l197 -13q0 -88 -25 -155t-68 -112
t-99 -68t-119 -24q-75 0 -124 23q-50 25 -87 52q-33 27 -69.5 44t-84.5 17q-60 0 -94 -46q-33 -45 -33 -106z" />
    <glyph glyph-name="itilde" unicode="&#x129;" horiz-adv-x="823" 
d="M570 0h-299v1536h299v-1536zM182 1722l-201 6q0 88 25 156t68 114t99.5 70t118.5 24t113 -23q26 -14 49 -26.5t43 -25.5q38 -26 74.5 -43t85.5 -17q32 0 56 11.5t40.5 32t25 48.5t9.5 61l197 -13q0 -88 -25 -155t-68 -112t-99 -68t-119 -24q-75 0 -124 23q-50 25 -87 52
q-33 27 -69.5 44t-84.5 17q-60 0 -94 -46q-33 -45 -33 -106z" />
    <glyph glyph-name="Imacron" unicode="&#x12a;" horiz-adv-x="1282" 
d="M1158 0h-1034v266h363v1516h-363v266h1034v-266h-362v-1516h362v-266zM1116 2350h-949v210h949v-210z" />
    <glyph glyph-name="imacron" unicode="&#x12b;" horiz-adv-x="701" 
d="M500 0h-299v1536h299v-1536zM827 1838h-949v210h949v-210z" />
    <glyph glyph-name="Ibreve" unicode="&#x12c;" horiz-adv-x="1282" 
d="M1158 0h-1034v266h363v1516h-363v266h1034v-266h-362v-1516h362v-266zM642 2188q-106 0 -188 29t-138 80t-85 120.5t-29 150.5h245q0 -37 9.5 -71t32 -60.5t60 -42.5t93.5 -16q52 0 89.5 15.5t61 42t34.5 60.5t11 72h246q0 -80 -28.5 -149.5t-84 -120.5t-138.5 -80.5
t-191 -29.5z" />
    <glyph glyph-name="ibreve" unicode="&#x12d;" horiz-adv-x="701" 
d="M500 0h-299v1536h299v-1536zM352 1676q-106 0 -188 29t-138 80t-85 120.5t-29 150.5h245q0 -37 9.5 -71t32 -60.5t60 -42.5t93.5 -16q52 0 89.5 15.5t61 42t34.5 60.5t11 72h246q0 -80 -28.5 -149.5t-84 -120.5t-138.5 -80.5t-191 -29.5z" />
    <glyph glyph-name="Iogonek" unicode="&#x12e;" horiz-adv-x="1282" 
d="M968 -591q-125 0 -208 68q-90 73 -94 219q0 173 159 304h-701v266h363v1516h-363v266h1034v-266h-362v-1516h362v-265l1 -1q-48 -30 -89.5 -61t-71.5 -65t-47.5 -71t-17.5 -78q0 -98 102 -98q63 0 125 32l26 -190q-95 -60 -218 -60z" />
    <glyph glyph-name="iogonek" unicode="&#x12f;" horiz-adv-x="712" 
d="M299 -591q-119 0 -204 65q-92 71 -98 224q0 88 47 172.5t150 157.5v1508h299v-1536h-3q-48 -30 -89.5 -61t-71.5 -65t-47.5 -71t-17.5 -78q0 -98 102 -98q63 0 125 32l26 -190q-95 -60 -218 -60zM345 1773q-80 0 -135 52q-54 52 -54 126q0 76 55 127q55 52 134 52
q73 0 131 -50q58 -49 58 -129q0 -76 -57 -127q-56 -51 -132 -51z" />
    <glyph glyph-name="Idotaccent" unicode="&#x130;" horiz-adv-x="1282" 
d="M1158 0h-1034v266h363v1516h-363v266h1034v-266h-362v-1516h362v-266zM642 2285q-80 0 -135 52q-54 52 -54 126q0 76 55 127q55 52 134 52q73 0 131 -50q58 -49 58 -129q0 -76 -57 -127q-56 -51 -132 -51z" />
    <glyph glyph-name="dotlessi" unicode="&#x131;" horiz-adv-x="701" 
d="M500 0h-299v1536h299v-1536z" />
    <glyph glyph-name="IJ" unicode="&#x132;" horiz-adv-x="2836" 
d="M124 0zM1158 0h-1034v266h363v1516h-363v266h1034v-266h-362v-1516h362v-266zM1988 -28q-126 0 -237 34t-193 101.5t-129.5 168.5t-47.5 236h307q6 -136 92 -207t216 -71q70 0 126 22t96 66.5t61.5 112.5t23.5 161v1452h308v-1452q-4 -298 -173 -461q-167 -163 -450 -163
z" />
    <glyph glyph-name="ij" unicode="&#x133;" horiz-adv-x="1402" 
d="M717 -574h-64v258l48 -1q106 0 153.5 56.5t47.5 164.5v1632h299v-1634q0 -110 -29 -198t-89 -150t-151 -95t-215 -33zM500 0h-299v1536h299v-1536zM352 1773q-80 0 -135 52q-54 52 -54 126q0 76 55 127q55 52 134 52q73 0 131 -50q58 -49 58 -129q0 -76 -57 -127
q-56 -51 -132 -51zM1050 1773q-80 0 -135 52q-54 52 -54 126q0 76 55 127q55 52 134 52q73 0 131 -50q58 -49 58 -129q0 -76 -57 -127q-56 -51 -132 -51z" />
    <glyph glyph-name="Jcircumflex" unicode="&#x134;" horiz-adv-x="1554" 
d="M706 -28q-126 0 -237 34t-193 101.5t-129.5 168.5t-47.5 236h307q6 -136 92 -207t216 -71q70 0 126 22t96 66.5t61.5 112.5t23.5 161v1452h308v-1452q-4 -298 -173 -461q-167 -163 -450 -163zM1651 2232h-271l-205 268l-206 -268h-270v15l351 424h249l352 -424v-15z" />
    <glyph glyph-name="jcircumflex" unicode="&#x135;" horiz-adv-x="701" 
d="M16 -574h-64v258l48 -1q106 0 153.5 56.5t47.5 164.5v1632h299v-1634q0 -110 -29 -198t-89 -150t-151 -95t-215 -33zM825 1720h-271l-205 268l-206 -268h-270v15l351 424h249l352 -424v-15z" />
    <glyph glyph-name="uni0136" unicode="&#x136;" horiz-adv-x="1871" 
d="M1810 0h-372l-662 915l-242 -278v-637h-309v2048h309v-978h25l859 978h389l-826 -922zM897 -837l-209 61q120 259 120 488v164h260v-153q0 -139 -40 -283q-20 -73 -52.5 -142t-78.5 -135z" />
    <glyph glyph-name="uni0137" unicode="&#x137;" horiz-adv-x="1567" 
d="M1538 0h-367l-522 694l-149 -149v-545h-299v2048h299v-1162h26l612 650h358l-622 -659zM769 -838l-209 61q120 259 120 488v164h260v-153q0 -139 -40 -283q-20 -73 -52.5 -142t-78.5 -135z" />
    <glyph glyph-name="kgreenlandic" unicode="&#x138;" horiz-adv-x="1814" 
d="M1586 0h-411l-475 598h-148v-598h-325v1488h325v-599h116l483 599h399l-589 -720z" />
    <glyph glyph-name="Lacute" unicode="&#x139;" horiz-adv-x="1589" 
d="M1462 0h-1237v2048h309v-1782h928v-266zM495 2253h-239l233 461h315z" />
    <glyph glyph-name="lacute" unicode="&#x13a;" horiz-adv-x="768" 
d="M585 -11q-384 0 -384 369v1690h299v-1628q0 -96 25 -137.5t89 -41.5q66 2 99 13l4 1l54 -239q-65 -23 -186 -27zM465 2253h-239l233 461h315z" />
    <glyph glyph-name="uni013B" unicode="&#x13b;" horiz-adv-x="1589" 
d="M1462 0h-1237v2048h309v-1782h928v-266zM805 -838l-209 61q120 259 120 488v164h260v-153q0 -139 -40 -283q-20 -73 -52.5 -142t-78.5 -135z" />
    <glyph glyph-name="uni013C" unicode="&#x13c;" horiz-adv-x="768" 
d="M585 -11q-384 0 -384 369v1690h299v-1628q0 -96 25 -137.5t89 -41.5q66 2 99 13l4 1l54 -239q-65 -23 -186 -27zM381 -838l-209 61q120 259 120 488v164h260v-153q0 -139 -40 -283q-20 -73 -52.5 -142t-78.5 -135z" />
    <glyph glyph-name="Lcaron" unicode="&#x13d;" horiz-adv-x="1589" 
d="M1462 0h-1237v2048h309v-1782h928v-266zM963 1335l-209 61q120 259 120 488v164h260v-153q0 -139 -40 -283q-20 -73 -52.5 -142t-78.5 -135z" />
    <glyph glyph-name="lcaron" unicode="&#x13e;" horiz-adv-x="892" 
d="M588 -11q-384 0 -384 369v1690h299v-1628q0 -96 25 -137.5t89 -41.5q66 2 99 13l4 1l54 -239q-65 -23 -186 -27zM756 1335l-209 61q120 259 120 488v164h260v-153q0 -139 -40 -283q-20 -73 -52.5 -142t-78.5 -135z" />
    <glyph glyph-name="Ldot" unicode="&#x13f;" horiz-adv-x="1600" 
d="M1464 0h-1237v2048h309v-1782h928v-266zM994 1017q-80 0 -135 52q-54 52 -54 126q0 76 55 127q55 52 134 52q73 0 131 -50q58 -49 58 -129q0 -76 -57 -127q-56 -51 -132 -51z" />
    <glyph glyph-name="ldot" unicode="&#x140;" horiz-adv-x="978" 
d="M588 -11q-384 0 -384 369v1690h299v-1628q0 -96 25 -137.5t89 -41.5q66 2 99 13l4 1l54 -239q-65 -23 -186 -27zM819 959q-80 0 -135 52q-54 52 -54 126q0 76 55 127q55 52 134 52q73 0 131 -50q58 -49 58 -129q0 -76 -57 -127q-56 -51 -132 -51z" />
    <glyph glyph-name="Lslash" unicode="&#x141;" horiz-adv-x="1606" 
d="M1491 0h-1237v899l-200 -60v199l200 60v950h309v-857l341 103v-199l-341 -103v-726h928v-266z" />
    <glyph glyph-name="lslash" unicode="&#x142;" horiz-adv-x="778" 
d="M595 -11q-384 0 -384 369v563l-214 -76v196l214 76v931h299v-824l207 74v-196l-207 -74v-608q0 -96 25 -137.5t89 -41.5q66 2 99 13l4 1l54 -239q-65 -23 -186 -27z" />
    <glyph glyph-name="Nacute" unicode="&#x143;" horiz-adv-x="2103" 
d="M1878 0h-284l-1041 1502h-19v-1502h-309v2048h286l1042 -1504h19v1504h306v-2048zM1168 2253h-239l233 461h315z" />
    <glyph glyph-name="nacute" unicode="&#x144;" horiz-adv-x="1682" 
d="M1483 0h-299v941q0 88 -24.5 155t-68 111.5t-103 67t-130.5 22.5q-73 0 -138 -23t-114 -70t-77.5 -120t-28.5 -172v-912h-299v1536h287v-250h19q27 62 68.5 112t98 85t128 54t158.5 19q108 -1 203.5 -34t167 -103t112.5 -179.5t40 -262.5v-977zM958 1741h-239l233 461
h315z" />
    <glyph glyph-name="uni0145" unicode="&#x145;" horiz-adv-x="2103" 
d="M1878 0h-284l-1041 1502h-19v-1502h-309v2048h286l1042 -1504h19v1504h306v-2048zM1014 -838l-209 61q120 259 120 488v164h260v-153q0 -139 -40 -283q-20 -73 -52.5 -142t-78.5 -135z" />
    <glyph glyph-name="uni0146" unicode="&#x146;" horiz-adv-x="1682" 
d="M1483 0h-299v941q0 88 -24.5 155t-68 111.5t-103 67t-130.5 22.5q-73 0 -138 -23t-114 -70t-77.5 -120t-28.5 -172v-912h-299v1536h287v-250h19q27 62 68.5 112t98 85t128 54t158.5 19q108 -1 203.5 -34t167 -103t112.5 -179.5t40 -262.5v-977zM804 -838l-209 61
q120 259 120 488v164h260v-153q0 -139 -40 -283q-20 -73 -52.5 -142t-78.5 -135z" />
    <glyph glyph-name="Ncaron" unicode="&#x147;" horiz-adv-x="2103" 
d="M1878 0h-284l-1041 1502h-19v-1502h-309v2048h286l1042 -1504h19v1504h306v-2048zM1176 2232h-249l-351 424v15h270l206 -268l205 268h271v-15z" />
    <glyph glyph-name="ncaron" unicode="&#x148;" horiz-adv-x="1682" 
d="M1483 0h-299v941q0 88 -24.5 155t-68 111.5t-103 67t-130.5 22.5q-73 0 -138 -23t-114 -70t-77.5 -120t-28.5 -172v-912h-299v1536h287v-250h19q27 62 68.5 112t98 85t128 54t158.5 19q108 -1 203.5 -34t167 -103t112.5 -179.5t40 -262.5v-977zM966 1720h-249l-351 424
v15h270l206 -268l205 268h271v-15z" />
    <glyph glyph-name="Eng" unicode="&#x14a;" horiz-adv-x="2103" 
d="M1406 -586q-89 0 -143 15v243q44 -10 100 -10q231 0 231 202v136l-1041 1502h-19v-1502h-309v2048h286l1042 -1504h19v1504h306v-2185q0 -156 -62 -254q-33 -51 -77 -88t-96.5 -61t-112.5 -35t-124 -11z" />
    <glyph glyph-name="eng" unicode="&#x14b;" horiz-adv-x="1691" 
d="M1034 -582q-111 0 -163 13l10 249q39 -10 93 -10q99 0 154.5 44t55.5 148v1079q0 88 -24.5 155t-68 111.5t-103 67t-130.5 22.5q-73 0 -138 -23t-114 -70t-77.5 -120t-28.5 -172v-912h-299v1536h287v-250h19q27 62 68.5 112t98 85t128 54t158.5 19q108 -1 203.5 -34
t167 -103t112.5 -179.5t40 -262.5v-1115q1 -110 -33 -193t-95 -138.5t-143.5 -84t-177.5 -28.5z" />
    <glyph glyph-name="Omacron" unicode="&#x14c;" horiz-adv-x="2163" 
d="M1082 -28q-279 0 -484 130q-204 130 -320 361q-119 236 -119 561q0 254 70 446q144 386 480 532q168 74 373 74q201 1 370.5 -72t293 -210t192 -332t66.5 -438q0 -254 -70 -446q-142 -385 -478 -532q-168 -74 -374 -74zM1082 254q167 0 308 84q141 86 228 265
q80 174 80 421q0 248 -80 422q-87 179 -228 263q-140 85 -308 85t-308 -85q-141 -84 -227 -263q-81 -173 -81 -422q0 -128 21 -234t60 -191.5t95 -149.5t125 -106q140 -89 315 -89zM1556 2350h-949v210h949v-210z" />
    <glyph glyph-name="omacron" unicode="&#x14d;" horiz-adv-x="1696" 
d="M848 -31q-113 0 -209 26.5t-174.5 76t-139.5 119t-104 155.5q-89 180 -89 415q-2 182 50.5 329.5t147.5 251t227 159.5t291 55q113 0 209 -26.5t175 -76t139.5 -119t103.5 -155.5q89 -180 89 -418q0 -124 -24 -230t-68 -193.5t-106.5 -155t-139.5 -114.5
q-161 -99 -378 -99zM849 220q106 0 183.5 43t128.5 117t76 172.5t25 209.5q0 102 -22.5 199.5t-72 174t-128 123.5t-190.5 47q-106 0 -184 -44t-129.5 -118.5t-76.5 -173t-25 -208.5q0 -105 23 -203t73.5 -173t129 -120.5t189.5 -45.5zM1323 1838h-949v210h949v-210z" />
    <glyph glyph-name="Obreve" unicode="&#x14e;" horiz-adv-x="2163" 
d="M1082 -28q-279 0 -484 130q-204 130 -320 361q-119 236 -119 561q0 254 70 446q144 386 480 532q168 74 373 74q201 1 370.5 -72t293 -210t192 -332t66.5 -438q0 -254 -70 -446q-142 -385 -478 -532q-168 -74 -374 -74zM1082 254q167 0 308 84q141 86 228 265
q80 174 80 421q0 248 -80 422q-87 179 -228 263q-140 85 -308 85t-308 -85q-141 -84 -227 -263q-81 -173 -81 -422q0 -128 21 -234t60 -191.5t95 -149.5t125 -106q140 -89 315 -89zM1082 2188q-106 0 -188 29t-138 80t-85 120.5t-29 150.5h245q0 -37 9.5 -71t32 -60.5
t60 -42.5t93.5 -16q52 0 89.5 15.5t61 42t34.5 60.5t11 72h246q0 -80 -28.5 -149.5t-84 -120.5t-138.5 -80.5t-191 -29.5z" />
    <glyph glyph-name="obreve" unicode="&#x14f;" horiz-adv-x="1696" 
d="M848 -31q-113 0 -209 26.5t-174.5 76t-139.5 119t-104 155.5q-89 180 -89 415q-2 182 50.5 329.5t147.5 251t227 159.5t291 55q113 0 209 -26.5t175 -76t139.5 -119t103.5 -155.5q89 -180 89 -418q0 -124 -24 -230t-68 -193.5t-106.5 -155t-139.5 -114.5
q-161 -99 -378 -99zM849 220q106 0 183.5 43t128.5 117t76 172.5t25 209.5q0 102 -22.5 199.5t-72 174t-128 123.5t-190.5 47q-106 0 -184 -44t-129.5 -118.5t-76.5 -173t-25 -208.5q0 -105 23 -203t73.5 -173t129 -120.5t189.5 -45.5zM848 1676q-106 0 -188 29t-138 80
t-85 120.5t-29 150.5h245q0 -37 9.5 -71t32 -60.5t60 -42.5t93.5 -16q52 0 89.5 15.5t61 42t34.5 60.5t11 72h246q0 -80 -28.5 -149.5t-84 -120.5t-138.5 -80.5t-191 -29.5z" />
    <glyph glyph-name="Ohungarumlaut" unicode="&#x150;" horiz-adv-x="2163" 
d="M1082 -28q-279 0 -484 130q-204 130 -320 361q-119 236 -119 561q0 254 70 446q144 386 480 532q168 74 373 74q201 1 370.5 -72t293 -210t192 -332t66.5 -438q0 -254 -70 -446q-142 -385 -478 -532q-168 -74 -374 -74zM1082 254q167 0 308 84q141 86 228 265
q80 174 80 421q0 248 -80 422q-87 179 -228 263q-140 85 -308 85t-308 -85q-141 -84 -227 -263q-81 -173 -81 -422q0 -128 21 -234t60 -191.5t95 -149.5t125 -106q140 -89 315 -89zM1385 2219h-239l311 421h296zM925 2219h-224l238 421h293z" />
    <glyph glyph-name="ohungarumlaut" unicode="&#x151;" horiz-adv-x="1696" 
d="M848 -31q-113 0 -209 26.5t-174.5 76t-139.5 119t-104 155.5q-89 180 -89 415q-2 182 50.5 329.5t147.5 251t227 159.5t291 55q113 0 209 -26.5t175 -76t139.5 -119t103.5 -155.5q89 -180 89 -418q0 -124 -24 -230t-68 -193.5t-106.5 -155t-139.5 -114.5
q-161 -99 -378 -99zM849 220q106 0 183.5 43t128.5 117t76 172.5t25 209.5q0 102 -22.5 199.5t-72 174t-128 123.5t-190.5 47q-106 0 -184 -44t-129.5 -118.5t-76.5 -173t-25 -208.5q0 -105 23 -203t73.5 -173t129 -120.5t189.5 -45.5zM1152 1707h-239l311 421h296z
M692 1707h-224l238 421h293z" />
    <glyph glyph-name="OE" unicode="&#x152;" horiz-adv-x="2745" 
d="M2568 0h-1496q-206 -1 -374.5 71.5t-288.5 207t-185.5 323.5t-64.5 421q0 165 31.5 304t88.5 252t138 199.5t180 145.5q205 124 475 124h1484v-266h-975v-624h908v-265h-908v-627h987v-266zM1272 266v1516h-200q-138 0 -250.5 -52.5t-192 -150.5t-122.5 -238.5
t-43 -317.5q0 -123 20.5 -226.5t58.5 -186.5t92 -146.5t120 -106.5q136 -91 317 -91h200z" />
    <glyph glyph-name="oe" unicode="&#x153;" horiz-adv-x="2775" 
d="M2002 -31q-202 0 -348 74t-237 202q-45 -63 -103 -114t-129 -87t-155 -55.5t-180 -19.5q-113 0 -209 26.5t-174.5 76t-139.5 119t-104 155.5q-89 180 -89 415q-2 182 50.5 329.5t147.5 251t227 159.5t291 55q194 0 337 -75.5t233 -204.5q45 64 102.5 116t128 88.5t153 56
t177.5 19.5q125 0 246.5 -40.5t222.5 -133.5q211 -201 211 -598v-106h-1092q6 -117 40.5 -204t91.5 -144t134.5 -85.5t169.5 -28.5q61 0 115.5 13t100 39.5t80.5 68t58 98.5l283 -51q-26 -92 -79.5 -168t-134.5 -131t-187.5 -85.5t-238.5 -30.5zM851 220q106 0 183.5 43
t128.5 117t76 172.5t25 209.5q0 102 -22.5 199.5t-72 174t-128 123.5t-190.5 47q-106 0 -184 -44t-129.5 -118.5t-76.5 -173t-25 -208.5q0 -105 23 -203t73.5 -173t129 -120.5t189.5 -45.5zM2368 902q-2 90 -29.5 164.5t-77.5 128.5t-120 84t-158 30q-64 0 -118 -15.5
t-98.5 -43t-79 -65t-58.5 -80.5q-26 -46 -40.5 -96.5t-18.5 -106.5h798z" />
    <glyph glyph-name="Racute" unicode="&#x154;" horiz-adv-x="1816" 
d="M1742 0h-352l-416 775h-440v-775h-309v2048h730q238 0 395 -82q164 -89 239 -234q75 -146 75 -326q0 -98 -21.5 -185.5t-67 -161.5t-116.5 -132.5t-171 -97.5zM926 1041q427 0 427 365q0 377 -431 377h-388v-742h392zM1012 2253h-239l233 461h315z" />
    <glyph glyph-name="racute" unicode="&#x155;" horiz-adv-x="1082" 
d="M500 0h-299v1536h289v-244h16q55 138 160 202q107 65 230 65q35 0 66.5 -1.5t60.5 -5.5v-286q-21 6 -63 12t-93 6q-159 0 -263 -98t-104 -248v-938zM713 1741h-239l233 461h315z" />
    <glyph glyph-name="uni0156" unicode="&#x156;" horiz-adv-x="1816" 
d="M1742 0h-352l-416 775h-440v-775h-309v2048h730q238 0 395 -82q164 -89 239 -234q75 -146 75 -326q0 -98 -21.5 -185.5t-67 -161.5t-116.5 -132.5t-171 -97.5zM926 1041q427 0 427 365q0 377 -431 377h-388v-742h392zM893 -838l-209 61q120 259 120 488v164h260v-153
q0 -139 -40 -283q-20 -73 -52.5 -142t-78.5 -135z" />
    <glyph glyph-name="uni0157" unicode="&#x157;" horiz-adv-x="1082" 
d="M500 0h-299v1536h289v-244h16q55 138 160 202q107 65 230 65q35 0 66.5 -1.5t60.5 -5.5v-286q-21 6 -63 12t-93 6q-159 0 -263 -98t-104 -248v-938zM312 -838l-209 61q120 259 120 488v164h260v-153q0 -139 -40 -283q-20 -73 -52.5 -142t-78.5 -135z" />
    <glyph glyph-name="Rcaron" unicode="&#x158;" horiz-adv-x="1816" 
d="M1742 0h-352l-416 775h-440v-775h-309v2048h730q238 0 395 -82q164 -89 239 -234q75 -146 75 -326q0 -98 -21.5 -185.5t-67 -161.5t-116.5 -132.5t-171 -97.5zM926 1041q427 0 427 365q0 377 -431 377h-388v-742h392zM1020 2232h-249l-351 424v15h270l206 -268l205 268
h271v-15z" />
    <glyph glyph-name="rcaron" unicode="&#x159;" horiz-adv-x="1082" 
d="M500 0h-299v1536h289v-244h16q55 138 160 202q107 65 230 65q35 0 66.5 -1.5t60.5 -5.5v-286q-21 6 -63 12t-93 6q-159 0 -263 -98t-104 -248v-938zM721 1720h-249l-351 424v15h270l206 -268l205 268h271v-15z" />
    <glyph glyph-name="Sacute" unicode="&#x15a;" horiz-adv-x="1812" 
d="M910 -34q-344 0 -546 159q-202 160 -220 441h310q9 -87 47.5 -149t99.5 -102t139.5 -58.5t167.5 -19.5q203 0 328 91q126 91 126 241q0 68 -30 117.5t-82.5 86t-123.5 62t-152 46.5l-242 66q-533 141 -533 541q0 92 26 171t73 144t112.5 115t145.5 85q162 73 369 73
q217 0 375 -75q166 -81 250.5 -208.5t89.5 -282.5h-298q-23 150 -140 224q-116 75 -284 75q-99 0 -176 -24.5t-129 -65.5t-79 -96.5t-27 -116.5q5 -174 205 -256q43 -18 84 -32t83 -24l200 -52q226 -51 392 -173q197 -149 197 -403q0 -163 -86 -302q-87 -138 -262 -220
q-170 -78 -410 -78zM1021 2253h-239l233 461h315z" />
    <glyph glyph-name="sacute" unicode="&#x15b;" horiz-adv-x="1509" 
d="M754 -31q-250 0 -414 106q-164 107 -207 319l289 44q30 -118 116.5 -173t213.5 -55q77 0 137 17.5t101.5 46.5t63 67.5t21.5 80.5q0 146 -217 195l-260 57q-420 94 -420 427q0 72 21 133t59 111t90.5 88.5t116.5 65.5q133 57 306 57q124 0 222 -28t170 -79.5t119 -124.5
t70 -163l-271 -48q-11 39 -34.5 76t-61 66t-90 46.5t-121.5 17.5q-121 0 -207 -53q-90 -57 -90 -158q0 -141 241 -192l244 -56q219 -50 319.5 -154.5t100.5 -261.5q0 -147 -82 -251q-83 -104 -218 -162q-144 -62 -328 -62zM891 1741h-239l233 461h315z" />
    <glyph glyph-name="Scircumflex" unicode="&#x15c;" horiz-adv-x="1812" 
d="M910 -34q-344 0 -546 159q-202 160 -220 441h310q9 -87 47.5 -149t99.5 -102t139.5 -58.5t167.5 -19.5q203 0 328 91q126 91 126 241q0 68 -30 117.5t-82.5 86t-123.5 62t-152 46.5l-242 66q-533 141 -533 541q0 92 26 171t73 144t112.5 115t145.5 85q162 73 369 73
q217 0 375 -75q166 -81 250.5 -208.5t89.5 -282.5h-298q-23 150 -140 224q-116 75 -284 75q-99 0 -176 -24.5t-129 -65.5t-79 -96.5t-27 -116.5q5 -174 205 -256q43 -18 84 -32t83 -24l200 -52q226 -51 392 -173q197 -149 197 -403q0 -163 -86 -302q-87 -138 -262 -220
q-170 -78 -410 -78zM1381 2232h-271l-205 268l-206 -268h-270v15l351 424h249l352 -424v-15z" />
    <glyph glyph-name="scircumflex" unicode="&#x15d;" horiz-adv-x="1509" 
d="M754 -31q-250 0 -414 106q-164 107 -207 319l289 44q30 -118 116.5 -173t213.5 -55q77 0 137 17.5t101.5 46.5t63 67.5t21.5 80.5q0 146 -217 195l-260 57q-420 94 -420 427q0 72 21 133t59 111t90.5 88.5t116.5 65.5q133 57 306 57q124 0 222 -28t170 -79.5t119 -124.5
t70 -163l-271 -48q-11 39 -34.5 76t-61 66t-90 46.5t-121.5 17.5q-121 0 -207 -53q-90 -57 -90 -158q0 -141 241 -192l244 -56q219 -50 319.5 -154.5t100.5 -261.5q0 -147 -82 -251q-83 -104 -218 -162q-144 -62 -328 -62zM1251 1720h-271l-205 268l-206 -268h-270v15
l351 424h249l352 -424v-15z" />
    <glyph glyph-name="Scedilla" unicode="&#x15e;" horiz-adv-x="1812" 
d="M747 -616l-6 167q105 0 168 31q65 30 66 100q0 58 -48.5 88.5t-161.5 39.5l33 161q-293 29 -464 180t-190 415h310q7 -86 46 -147.5t100.5 -102t140.5 -60t167 -19.5q203 0 328 91q126 91 126 241q0 69 -30 118.5t-82.5 85.5t-123 61.5t-152.5 46.5l-242 66
q-533 141 -533 541q0 93 26 172t73.5 143.5t113 114.5t144.5 85q162 73 369 73q110 0 204 -20t171.5 -56t138 -86t104.5 -111q91 -127 97 -293h-298q-23 150 -140 224q-116 75 -284 75q-101 0 -177.5 -24.5t-128.5 -66t-78.5 -96.5t-26.5 -116q1 -96 61 -159
q94 -100 311 -153l200 -52q230 -52 392 -173q197 -152 197 -403q0 -245 -175 -408q-176 -164 -499 -189l-8 -43q41 -6 80 -21.5t69.5 -44t49 -71t18.5 -102.5q0 -66 -27.5 -121.5t-84 -96t-142.5 -63t-202 -22.5z" />
    <glyph glyph-name="scedilla" unicode="&#x15f;" horiz-adv-x="1509" 
d="M605 -616l-6 167q105 0 168 31q65 30 66 100q0 58 -48.5 88.5t-161.5 39.5l34 163q-105 10 -193 41t-155 83.5t-112 126.5t-64 170l289 44q30 -118 116.5 -173t213.5 -55q77 0 137 17.5t101.5 46.5t63 67.5t21.5 80.5q0 146 -217 195l-260 57q-420 94 -420 427
q0 72 21 133t59 111t90.5 88.5t116.5 65.5q133 57 306 57q124 0 222 -28t170 -79.5t119 -124.5t70 -163l-271 -48q-11 39 -34.5 76t-61 66t-90 46.5t-121.5 17.5q-121 0 -207 -53q-90 -57 -90 -158q0 -141 241 -192l244 -56q219 -50 319.5 -154.5t100.5 -261.5
q0 -98 -38.5 -178.5t-108.5 -141t-167.5 -99t-214.5 -51.5l-9 -48q41 -6 80 -21.5t69.5 -44t49 -71t18.5 -102.5q0 -66 -27.5 -121.5t-84 -96t-142.5 -63t-202 -22.5z" />
    <glyph glyph-name="Scaron" unicode="&#x160;" horiz-adv-x="1812" 
d="M910 -34q-344 0 -546 159q-202 160 -220 441h310q9 -87 47.5 -149t99.5 -102t139.5 -58.5t167.5 -19.5q203 0 328 91q126 91 126 241q0 68 -30 117.5t-82.5 86t-123.5 62t-152 46.5l-242 66q-533 141 -533 541q0 92 26 171t73 144t112.5 115t145.5 85q162 73 369 73
q217 0 375 -75q166 -81 250.5 -208.5t89.5 -282.5h-298q-23 150 -140 224q-116 75 -284 75q-99 0 -176 -24.5t-129 -65.5t-79 -96.5t-27 -116.5q5 -174 205 -256q43 -18 84 -32t83 -24l200 -52q226 -51 392 -173q197 -149 197 -403q0 -163 -86 -302q-87 -138 -262 -220
q-170 -78 -410 -78zM1029 2232h-249l-351 424v15h270l206 -268l205 268h271v-15z" />
    <glyph glyph-name="scaron" unicode="&#x161;" horiz-adv-x="1509" 
d="M754 -31q-250 0 -414 106q-164 107 -207 319l289 44q30 -118 116.5 -173t213.5 -55q77 0 137 17.5t101.5 46.5t63 67.5t21.5 80.5q0 146 -217 195l-260 57q-420 94 -420 427q0 72 21 133t59 111t90.5 88.5t116.5 65.5q133 57 306 57q124 0 222 -28t170 -79.5t119 -124.5
t70 -163l-271 -48q-11 39 -34.5 76t-61 66t-90 46.5t-121.5 17.5q-121 0 -207 -53q-90 -57 -90 -158q0 -141 241 -192l244 -56q219 -50 319.5 -154.5t100.5 -261.5q0 -147 -82 -251q-83 -104 -218 -162q-144 -62 -328 -62zM899 1720h-249l-351 424v15h270l206 -268l205 268
h271v-15z" />
    <glyph glyph-name="uni0162" unicode="&#x162;" horiz-adv-x="1833" 
d="M778 -616l-6 167q105 0 168 31q65 30 66 100q0 58 -48.5 88.5t-161.5 39.5l39 190h-73v1782h-638v266h1585v-266h-639v-1782h-39l-14 -74q41 -6 80 -21.5t69.5 -44t49 -71t18.5 -102.5q0 -66 -27.5 -121.5t-84 -96t-142.5 -63t-202 -22.5z" />
    <glyph glyph-name="uni0163" unicode="&#x163;" horiz-adv-x="1047" 
d="M545 -616l-6 167q105 0 168 31q65 30 66 100q0 58 -48.5 88.5t-161.5 39.5l39 187q-130 33 -213 131q-84 99 -85 261v907h-225v240h225v368h299v-368h315v-240h-315v-845q0 -64 15 -104t40.5 -62.5t59 -30.5t69.5 -8q54 0 105 13l54 -247q-44 -20 -151 -30l-11 -56
q41 -6 80 -21.5t69.5 -44t49 -71t18.5 -102.5q0 -66 -27.5 -121.5t-84 -96t-142.5 -63t-202 -22.5z" />
    <glyph glyph-name="Tcaron" unicode="&#x164;" horiz-adv-x="1833" 
d="M1070 0h-308v1782h-638v266h1585v-266h-639v-1782zM1041 2232h-249l-351 424v15h270l206 -268l205 268h271v-15z" />
    <glyph glyph-name="tcaron" unicode="&#x165;" horiz-adv-x="1145" 
d="M752 -20q-127 0 -221 42q-100 42 -161.5 132.5t-65.5 234.5v907h-225v240h225v368h299v-368h315v-240h-315v-845q0 -64 15 -104t40.5 -62.5t59 -30.5t69.5 -8q54 0 105 13l54 -247q-78 -29 -194 -32zM872 1617l-209 61q120 259 120 488v164h260v-153q0 -139 -40 -283
q-20 -73 -52.5 -142t-78.5 -135z" />
    <glyph glyph-name="Tbar" unicode="&#x166;" horiz-adv-x="1833" 
d="M1070 0h-308v927h-306v207h306v648h-638v266h1585v-266h-639v-648h305v-207h-305v-927z" />
    <glyph glyph-name="tbar" unicode="&#x167;" horiz-adv-x="1047" 
d="M752 -20q-127 0 -221 42q-100 42 -161.5 132.5t-65.5 234.5v428h-225v190h225v289h-225v240h225v368h299v-368h315v-240h-315v-289h315v-190h-315v-366q0 -64 15 -104t40.5 -62.5t59 -30.5t69.5 -8q54 0 105 13l54 -247q-78 -29 -194 -32z" />
    <glyph glyph-name="Utilde" unicode="&#x168;" horiz-adv-x="2077" 
d="M1038 -34q-174 0 -322.5 49.5t-257.5 143t-171 228.5t-62 306v1355h309v-1350q-1 -110 39.5 -193.5t110.5 -140t161.5 -85.5t192.5 -29q97 0 188 27t161.5 82t113 139.5t42.5 199.5v1350h309v-1355q0 -116 -29 -214.5t-81.5 -179.5t-127 -143t-165 -104.5t-194.5 -64
t-217 -21.5zM737 2234l-201 6q0 88 25 156t68 114t99.5 70t118.5 24t113 -23q26 -14 49 -26.5t43 -25.5q38 -26 74.5 -43t85.5 -17q32 0 56 11.5t40.5 32t25 48.5t9.5 61l197 -13q0 -88 -25 -155t-68 -112t-99 -68t-119 -24q-75 0 -124 23q-50 25 -87 52q-33 27 -69.5 44
t-84.5 17q-60 0 -94 -46q-33 -45 -33 -106z" />
    <glyph glyph-name="utilde" unicode="&#x169;" horiz-adv-x="1674" 
d="M705 -20q-133 0 -249 59q-115 60 -187 193q-68 128 -68 327v977h299v-941q0 -83 24 -147t66.5 -107.5t99.5 -66t123 -22.5q83 0 164 40q82 40 141 130q55 86 56 215v899h300v-1536h-294v266h-16q-27 -62 -69 -114.5t-99.5 -90.5t-130 -59.5t-160.5 -21.5zM538 1722
l-201 6q0 88 25 156t68 114t99.5 70t118.5 24t113 -23q26 -14 49 -26.5t43 -25.5q38 -26 74.5 -43t85.5 -17q32 0 56 11.5t40.5 32t25 48.5t9.5 61l197 -13q0 -88 -25 -155t-68 -112t-99 -68t-119 -24q-75 0 -124 23q-50 25 -87 52q-33 27 -69.5 44t-84.5 17q-60 0 -94 -46
q-33 -45 -33 -106z" />
    <glyph glyph-name="Umacron" unicode="&#x16a;" horiz-adv-x="2077" 
d="M1038 -34q-174 0 -322.5 49.5t-257.5 143t-171 228.5t-62 306v1355h309v-1350q-1 -110 39.5 -193.5t110.5 -140t161.5 -85.5t192.5 -29q97 0 188 27t161.5 82t113 139.5t42.5 199.5v1350h309v-1355q0 -116 -29 -214.5t-81.5 -179.5t-127 -143t-165 -104.5t-194.5 -64
t-217 -21.5zM1513 2350h-949v210h949v-210z" />
    <glyph glyph-name="umacron" unicode="&#x16b;" horiz-adv-x="1674" 
d="M705 -20q-133 0 -249 59q-115 60 -187 193q-68 128 -68 327v977h299v-941q0 -83 24 -147t66.5 -107.5t99.5 -66t123 -22.5q83 0 164 40q82 40 141 130q55 86 56 215v899h300v-1536h-294v266h-16q-27 -62 -69 -114.5t-99.5 -90.5t-130 -59.5t-160.5 -21.5zM1314 1838h-949
v210h949v-210z" />
    <glyph glyph-name="Ubreve" unicode="&#x16c;" horiz-adv-x="2077" 
d="M1038 -34q-174 0 -322.5 49.5t-257.5 143t-171 228.5t-62 306v1355h309v-1350q-1 -110 39.5 -193.5t110.5 -140t161.5 -85.5t192.5 -29q97 0 188 27t161.5 82t113 139.5t42.5 199.5v1350h309v-1355q0 -116 -29 -214.5t-81.5 -179.5t-127 -143t-165 -104.5t-194.5 -64
t-217 -21.5zM1039 2188q-106 0 -188 29t-138 80t-85 120.5t-29 150.5h245q0 -37 9.5 -71t32 -60.5t60 -42.5t93.5 -16q52 0 89.5 15.5t61 42t34.5 60.5t11 72h246q0 -80 -28.5 -149.5t-84 -120.5t-138.5 -80.5t-191 -29.5z" />
    <glyph glyph-name="ubreve" unicode="&#x16d;" horiz-adv-x="1674" 
d="M705 -20q-133 0 -249 59q-115 60 -187 193q-68 128 -68 327v977h299v-941q0 -83 24 -147t66.5 -107.5t99.5 -66t123 -22.5q83 0 164 40q82 40 141 130q55 86 56 215v899h300v-1536h-294v266h-16q-27 -62 -69 -114.5t-99.5 -90.5t-130 -59.5t-160.5 -21.5zM840 1676
q-106 0 -188 29t-138 80t-85 120.5t-29 150.5h245q0 -37 9.5 -71t32 -60.5t60 -42.5t93.5 -16q52 0 89.5 15.5t61 42t34.5 60.5t11 72h246q0 -80 -28.5 -149.5t-84 -120.5t-138.5 -80.5t-191 -29.5z" />
    <glyph glyph-name="Uring" unicode="&#x16e;" horiz-adv-x="2077" 
d="M1038 -34q-174 0 -322.5 49.5t-257.5 143t-171 228.5t-62 306v1355h309v-1350q-1 -110 39.5 -193.5t110.5 -140t161.5 -85.5t192.5 -29q97 0 188 27t161.5 82t113 139.5t42.5 199.5v1350h309v-1355q0 -116 -29 -214.5t-81.5 -179.5t-127 -143t-165 -104.5t-194.5 -64
t-217 -21.5zM1039 2175q-136 0 -233 91t-97 220t97 220q98 92 233 92t232 -92q97 -91 97 -220t-97 -220q-95 -91 -232 -91zM1039 2334q33 2 61.5 13.5t49.5 31.5t33 47t12 60q0 31 -11 58.5t-31 47.5t-49 32t-65 14q-64 0 -110 -42q-47 -42 -47 -110q0 -66 46 -109t111 -43z
" />
    <glyph glyph-name="uring" unicode="&#x16f;" horiz-adv-x="1674" 
d="M705 -20q-133 0 -249 59q-115 60 -187 193q-68 128 -68 327v977h299v-941q0 -83 24 -147t66.5 -107.5t99.5 -66t123 -22.5q83 0 164 40q82 40 141 130q55 86 56 215v899h300v-1536h-294v266h-16q-27 -62 -69 -114.5t-99.5 -90.5t-130 -59.5t-160.5 -21.5zM840 1706
q-151 0 -254 97t-103 239q-1 75 28 138.5t78.5 109.5t114.5 72t136 25q76 1 141 -26.5t112 -75.5t74 -111t26 -132q0 -142 -102 -239q-101 -97 -251 -97zM840 1866q87 7 134 60q46 52 46 116q0 69 -50 125t-130 56q-79 0 -130 -56q-50 -56 -50 -125q0 -67 50 -122
q51 -54 130 -54z" />
    <glyph glyph-name="Uhungarumlaut" unicode="&#x170;" horiz-adv-x="2077" 
d="M1038 -34q-174 0 -322.5 49.5t-257.5 143t-171 228.5t-62 306v1355h309v-1350q-1 -110 39.5 -193.5t110.5 -140t161.5 -85.5t192.5 -29q97 0 188 27t161.5 82t113 139.5t42.5 199.5v1350h309v-1355q0 -116 -29 -214.5t-81.5 -179.5t-127 -143t-165 -104.5t-194.5 -64
t-217 -21.5zM1342 2219h-239l311 421h296zM882 2219h-224l238 421h293z" />
    <glyph glyph-name="uhungarumlaut" unicode="&#x171;" horiz-adv-x="1674" 
d="M705 -20q-133 0 -249 59q-115 60 -187 193q-68 128 -68 327v977h299v-941q0 -83 24 -147t66.5 -107.5t99.5 -66t123 -22.5q83 0 164 40q82 40 141 130q55 86 56 215v899h300v-1536h-294v266h-16q-27 -62 -69 -114.5t-99.5 -90.5t-130 -59.5t-160.5 -21.5zM1143 1707h-239
l311 421h296zM683 1707h-224l238 421h293z" />
    <glyph glyph-name="Uogonek" unicode="&#x172;" horiz-adv-x="2077" 
d="M1065 -588q-119 0 -204 65q-92 71 -98 224q0 147 128 275q-138 19 -259 73t-211.5 144t-143 215t-52.5 285v1355h309v-1350q0 -74 19 -136t52.5 -111.5t80 -86.5t101.5 -61q117 -53 251 -53q98 0 189.5 28t161.5 84t112 140t42 196v1350h309v-1355q0 -103 -22 -191
t-62 -161.5t-96 -132t-124 -102.5q-72 -46 -152.5 -77t-172.5 -47q-40 -26 -75 -54.5t-61.5 -60t-41.5 -66.5t-15 -73q0 -98 102 -98q63 0 125 32l26 -190q-95 -60 -218 -60z" />
    <glyph glyph-name="uogonek" unicode="&#x173;" horiz-adv-x="1674" 
d="M1283 -591q-119 0 -204 65q-92 71 -98 224q0 193 199 332v236h-16q-55 -128 -173 -208q-117 -78 -286 -78q-104 0 -196.5 34.5t-161 105.5t-108 180t-38.5 259v977h299v-941q0 -82 24 -146t66 -107.5t99 -66.5t124 -23q83 0 164 40q82 40 141 130q55 86 56 215v899h300
v-1536q-48 -30 -89.5 -61t-71.5 -65t-47.5 -71t-17.5 -78q0 -98 102 -98q63 0 125 32l26 -190q-95 -60 -218 -60z" />
    <glyph glyph-name="Wcircumflex" unicode="&#x174;" horiz-adv-x="2754" 
d="M2127 0h-311l-431 1534h-16l-431 -1534h-312l-568 2048h325l399 -1586h19l415 1586h322l415 -1587h19l398 1587h326zM1853 2232h-271l-205 268l-206 -268h-270v15l351 424h249l352 -424v-15z" />
    <glyph glyph-name="wcircumflex" unicode="&#x175;" horiz-adv-x="2323" 
d="M1790 0h-305l-312 1109h-23l-312 -1109h-304l-452 1536h309l301 -1128h15l302 1128h309l300 -1123h15l299 1123h309zM1638 1720h-271l-205 268l-206 -268h-270v15l351 424h249l352 -424v-15z" />
    <glyph glyph-name="Ycircumflex" unicode="&#x176;" horiz-adv-x="1928" 
d="M1118 0h-308v804l-743 1244h351l535 -931h22l535 931h351l-743 -1244v-804zM1440 2232h-271l-205 268l-206 -268h-270v15l351 424h249l352 -424v-15z" />
    <glyph glyph-name="ycircumflex" unicode="&#x177;" horiz-adv-x="1595" 
d="M379 -597q-72 0 -123 11t-77 24l72 248q66 -20 120 -20q37 0 69 9t60 30.5t52.5 59t45.5 94.5l44 121l-562 1556h320l389 -1192h16l389 1192h321l-640 -1760q-135 -373 -496 -373zM1273 1720h-271l-205 268l-206 -268h-270v15l351 424h249l352 -424v-15z" />
    <glyph glyph-name="Ydieresis" unicode="&#x178;" horiz-adv-x="1928" 
d="M1118 0h-308v804l-743 1244h351l535 -931h22l535 931h351l-743 -1244v-804zM670 2289q-68 0 -123 50q-54 51 -54 124q0 76 54 126q55 49 123 49q77 0 127 -51q49 -50 49 -124q0 -33 -12.5 -64.5t-35 -55.5t-55.5 -39t-73 -15zM1258 2289q-68 0 -123 50q-54 51 -54 124
q0 76 54 126q55 49 123 49q77 0 127 -51q49 -50 49 -124q0 -33 -12.5 -64.5t-35 -55.5t-55.5 -39t-73 -15z" />
    <glyph glyph-name="Zacute" unicode="&#x179;" horiz-adv-x="1799" 
d="M1636 0h-1464v206l1077 1576h-1086v266h1464v-206l-1077 -1576h1086v-266zM1017 2253h-239l233 461h315z" />
    <glyph glyph-name="zacute" unicode="&#x17a;" horiz-adv-x="1553" 
d="M1402 0h-1233v205l832 1057v14h-805v260h1178v-218l-800 -1044v-14h828v-260zM891 1741h-239l233 461h315z" />
    <glyph glyph-name="Zdotaccent" unicode="&#x17b;" horiz-adv-x="1799" 
d="M1636 0h-1464v206l1077 1576h-1086v266h1464v-206l-1077 -1576h1086v-266zM901 2285q-80 0 -135 52q-54 52 -54 126q0 76 55 127q55 52 134 52q73 0 131 -50q58 -49 58 -129q0 -76 -57 -127q-56 -51 -132 -51z" />
    <glyph glyph-name="zdotaccent" unicode="&#x17c;" horiz-adv-x="1553" 
d="M1402 0h-1233v205l832 1057v14h-805v260h1178v-218l-800 -1044v-14h828v-260zM775 1773q-80 0 -135 52q-54 52 -54 126q0 76 55 127q55 52 134 52q73 0 131 -50q58 -49 58 -129q0 -76 -57 -127q-56 -51 -132 -51z" />
    <glyph glyph-name="Zcaron" unicode="&#x17d;" horiz-adv-x="1799" 
d="M1636 0h-1464v206l1077 1576h-1086v266h1464v-206l-1077 -1576h1086v-266zM1025 2232h-249l-351 424v15h270l206 -268l205 268h271v-15z" />
    <glyph glyph-name="zcaron" unicode="&#x17e;" horiz-adv-x="1553" 
d="M1402 0h-1233v205l832 1057v14h-805v260h1178v-218l-800 -1044v-14h828v-260zM899 1720h-249l-351 424v15h270l206 -268l205 268h271v-15z" />
    <glyph glyph-name="longs" unicode="&#x17f;" horiz-adv-x="773" 
d="M352 0h-324v1631q2 132 39.5 228t103.5 158.5t159 92.5t206 30q90 0 205 -28l-32 -242q-47 12 -125 12q-119 0 -176 -69q-56 -70 -56 -182v-1631z" />
    <glyph glyph-name="uni0180" unicode="&#x180;" horiz-adv-x="1762" 
d="M986 -30q-190 0 -306 98q-89 73 -138 171h-25v-239h-292v1659h-310v207h310v182h299v-182h310v-207h-310v-372h18q48 97 134 171q113 98 307 98q135 0 253 -51.5t206 -151.5t137.5 -248t48.5 -340q1 -189 -48 -337t-135.5 -250t-204.5 -155.5t-254 -52.5zM919 225
q70 0 127 19.5t101.5 54.5t77.5 84t55 108q46 122 46 277q0 106 -22.5 203t-71.5 170.5t-126.5 117t-186.5 43.5q-100 0 -175 -39t-125.5 -109.5t-75.5 -168.5t-25 -217q0 -111 24 -210.5t73.5 -173.5t124.5 -117.5t179 -41.5z" />
    <glyph glyph-name="uni0181" unicode="&#x181;" horiz-adv-x="2320" 
d="M1488 0h-785v1783h-109q-62 1 -98.5 -20.5t-56 -57t-25.5 -81t-7 -91.5v-91h-283v158q0 96 30.5 178t90 142t146.5 94t200 34h862q217 0 362 -71q148 -76 216 -200q68 -122 68 -267q0 -96 -28.5 -169.5t-76 -126.5t-110 -86.5t-130.5 -49.5v-20q46 -3 95 -17.5
t96.5 -42.5t90 -69t74 -96.5t50.5 -126t19 -155.5q0 -151 -71 -276t-229 -202q-152 -73 -391 -73zM1458 265q112 0 190.5 23t128 63.5t72.5 95.5t23 119q0 75 -28 140t-80 112.5t-126.5 75t-168.5 27.5h-457v-656h446zM1426 1162q163 0 267 89q103 90 103 235
q0 62 -21 116.5t-65 95t-112.5 64t-163.5 23.5h-422v-623h414z" />
    <glyph glyph-name="uni0182" unicode="&#x182;" horiz-adv-x="1842" 
d="M992 0h-767v2048h1277v-266h-968v-560h458q239 0 395 -76q162 -81 241.5 -213.5t79.5 -311.5q0 -84 -18.5 -162.5t-58.5 -148t-102 -128.5t-149 -103q-159 -79 -388 -79zM992 260q103 -1 179.5 30t127.5 82.5t76.5 117.5t26.5 135q0 64 -24.5 125t-74.5 108.5t-127.5 76
t-183.5 27.5h-458v-702h458z" />
    <glyph glyph-name="uni0183" unicode="&#x183;" horiz-adv-x="1762" 
d="M986 -30q-190 0 -306 98q-89 73 -138 171h-25v-239h-292v2048h1194v-249h-895v-512h18q48 97 134 171q113 98 307 98q135 0 253 -51.5t206 -151.5t137.5 -248t48.5 -340q1 -189 -48 -337t-135.5 -250t-204.5 -155.5t-254 -52.5zM919 225q70 0 127 19.5t101.5 54.5
t77.5 84t55 108q46 122 46 277q0 106 -22.5 203t-71.5 170.5t-126.5 117t-186.5 43.5q-100 0 -175 -39t-125.5 -109.5t-75.5 -168.5t-25 -217q0 -111 24 -210.5t73.5 -173.5t124.5 -117.5t179 -41.5z" />
    <glyph glyph-name="uni0184" unicode="&#x184;" horiz-adv-x="2078" 
d="M1282 0h-767v1782h-485v266h795v-826h457q239 0 395 -76q162 -81 241.5 -213.5t79.5 -311.5q0 -84 -18.5 -162.5t-58.5 -148t-102 -128.5t-149 -103q-159 -79 -388 -79zM1282 260q103 -1 180 30t128 82.5t77 117.5t26 135q0 63 -24 124t-74 109t-127.5 76.5t-185.5 27.5
h-457v-702h457z" />
    <glyph glyph-name="uni0185" unicode="&#x185;" horiz-adv-x="1811" 
d="M1097 -30q-176 0 -291 87q-85 64 -133 157h-27v-214h-292v1440h-12l-236 264v142l236 266h67v-64h245v-734h19q48 93 132 156q113 86 289 86t323 -90q147 -89 238 -275q84 -177 84 -426q1 -189 -47.5 -337t-135 -250t-204.5 -155.5t-255 -52.5zM1036 225q105 -1 182.5 41
t128 115.5t75 173t25.5 213.5q0 235 -97 377q-106 157 -314 157q-101 0 -176 -39.5t-124.5 -109.5t-74 -166t-24.5 -209q0 -87 9.5 -156t34.5 -136q20 -57 52 -105t76.5 -82.5t101 -54t125.5 -19.5z" />
    <glyph glyph-name="uni0186" unicode="&#x186;" horiz-adv-x="2071" 
d="M991 -28q-117 0 -219.5 23.5t-190.5 66.5t-159.5 104t-126.5 135q-114 153 -149 358l311 1q44 -197 191 -302q148 -104 341 -104q167 0 308 84t228 264q81 172 81 422q1 189 -46 333t-130.5 241t-197 146.5t-244.5 49.5q-197 0 -343 -106q-146 -107 -188 -306h-311
q58 331 289 512q232 182 556 182q200 1 369.5 -71.5t292.5 -209t191.5 -332t67.5 -439.5q0 -255 -70 -447q-144 -387 -477 -531q-168 -74 -374 -74z" />
    <glyph glyph-name="uni0187" unicode="&#x187;" horiz-adv-x="2234" 
d="M1080 -28q-202 -1 -371.5 72t-292.5 210t-191 332t-66 438q0 254 70 446q54 146 136.5 258.5t190 189t239.5 116.5t285 42q82 0 162.5 -12.5t156.5 -39.5t147.5 -68.5t135.5 -99.5q65 120 176 175q114 56 242 56q42 0 82 -1.5t76 -10.5v-248l-27 3q-13 2 -29 3t-35 1
q-45 0 -88.5 -10.5t-77 -36.5t-54.5 -69t-21 -108v-228h-312q-42 199 -189 306q-145 106 -342 106q-169 0 -309 -85q-142 -86 -227 -264q-81 -173 -81 -421q0 -250 81 -422q87 -180 228 -264t307 -84q193 0 341 104q147 105 191 302l312 -1q-21 -111 -61 -203.5t-97 -167
t-128.5 -131.5t-155.5 -97q-177 -88 -404 -88z" />
    <glyph glyph-name="uni0188" unicode="&#x188;" horiz-adv-x="1750" 
d="M848 -31q-117 0 -215 27.5t-177 77.5t-138.5 120.5t-99.5 156.5q-86 180 -86 410q0 247 91 422q94 180 251 276.5t371 96.5q226 0 386 -106q61 125 168 181t227 56q96 0 150 -16v-226q-45 9 -86 9q-48 0 -87 -10.5t-66 -34.5t-41.5 -63t-14.5 -96v-210h-293
q-12 55 -39 103t-69.5 84t-100 56.5t-129.5 20.5q-187 0 -302 -145q-114 -144 -114 -391q0 -250 111 -398t305 -148q118 0 209 64q92 65 129 200h291q-14 -114 -62.5 -209t-129 -163.5t-191.5 -106.5t-248 -38z" />
    <glyph glyph-name="uni0189" unicode="&#x189;" horiz-adv-x="2032" 
d="M888 0h-663v960h-306v207h306v881h684q408 0 656 -221q308 -275 308 -800q1 -245 -67 -436t-195.5 -322.5t-310.5 -200.5t-412 -68zM871 270q350 0 524 196t174 561q0 221 -70 391q-69 170 -224 268q-151 92 -385 92h-356v-611h304v-207h-304v-690h337z" />
    <glyph glyph-name="uni018A" unicode="&#x18a;" horiz-adv-x="2524" 
d="M1380 0h-663v1778h-123q-62 1 -98.5 -20t-56 -55.5t-25.5 -79t-7 -90.5v-91h-283v158q0 96 30.5 178t90 142t146.5 94t200 34h810q408 0 656 -221q308 -275 308 -800q1 -245 -67 -436t-195.5 -322.5t-310.5 -200.5t-412 -68zM1363 270q350 0 524 196t174 561
q0 221 -70 391q-69 170 -224 268q-151 92 -385 92h-356v-1508h337z" />
    <glyph glyph-name="uni018B" unicode="&#x18b;" horiz-adv-x="1814" 
d="M1649 0h-764q-118 0 -216.5 21t-178 60t-139.5 94t-100 123q-85 139 -85 323q0 97 23 179t65.5 148.5t104 118t139.5 87.5q160 75 387 75h429v514h-939v273h1274v-2016zM1314 268v690h-429q-101 0 -173 -26t-118.5 -71t-68.5 -105.5t-22 -130.5q1 -67 21 -132t65 -115.5
t118 -81t178 -28.5h429z" />
    <glyph glyph-name="uni018C" unicode="&#x18c;" horiz-adv-x="1762" 
d="M776 -30q-85 0 -165.5 21t-152 66t-133 114.5t-108.5 167.5q-83 180 -83 426q-1 188 48.5 335.5t136.5 248.5t205 154t255 53q193 0 308 -98q85 -73 133 -171h18v512h-895v249h1194v-2048h-292v239h-25q-53 -105 -139 -173q-119 -96 -305 -96zM843 225q98 0 173 40
t125.5 111.5t76.5 171.5t26 220q0 122 -26 221t-77 168.5t-126 107t-172 37.5q-102 1 -178.5 -40t-127 -113.5t-76 -170.5t-25.5 -210q0 -109 23.5 -207.5t73 -173t126.5 -118.5t184 -44z" />
    <glyph glyph-name="uni018D" unicode="&#x18d;" horiz-adv-x="1628" 
d="M1314 -516h-1024v252h597q-72 79 -262 232q-202 164 -327 329.5t-155 324.5q-7 36 -10 76.5t-3 85.5q0 198 77 366q76 166 237 270q153 96 370 96q365 0 553 -263q135 -188 135 -453v-28q0 -258 -162 -441q-160 -183 -439 -225q-24 -3 -49 -3q161 -141 275.5 -249.5
t186.5 -187.5v-182zM796 290q133 0 219 65q88 70 125 175q38 108 38 226q0 64 -5 116.5t-15 96t-25.5 79.5t-36.5 67q-93 143 -282 143q-184 0 -278 -142q-85 -127 -85 -332q0 -139 34 -222q70 -178 205 -258q45 -14 106 -14z" />
    <glyph glyph-name="uni018E" unicode="&#x18e;" horiz-adv-x="1687" 
d="M1455 0h-1284v266h975v624h-908v265h908v627h-987v266h1296v-2048z" />
    <glyph glyph-name="uni018F" unicode="&#x18f;" horiz-adv-x="2072" 
d="M1038 -28q-144 0 -262 30t-212 86.5t-164 137t-116 182.5q-96 208 -96 492v192h1362q-3 291 -141 463q-153 191 -464 191q-85 0 -160 -8.5t-139.5 -22t-117.5 -31t-93 -34.5l-69 259q14 10 41 21t65 25t88 26.5t112 25.5q122 25 280 25q228 0 402.5 -71t293 -198.5
t179 -303.5t60.5 -386v-150q0 -221 -67 -392q-141 -347 -444 -487q-153 -72 -338 -72zM1038 254q115 -1 204.5 43.5t153.5 122t101.5 183t48.5 227.5h-1024q0 -40 1 -73.5t4 -63t8 -57.5t14 -58q19 -71 56.5 -130.5t97 -102.5t142.5 -67t193 -24z" />
    <glyph glyph-name="uni0190" unicode="&#x190;" horiz-adv-x="1814" 
d="M926 -28q-342 0 -543 135q-221 150 -221 453q0 90 24.5 164t70 131.5t110 100t144.5 70.5q-71 29 -129.5 70.5t-100 95.5t-64.5 121t-23 147q0 97 24.5 176.5t70 142.5t110 109.5t143.5 78.5q166 65 384 65q144 0 270.5 -39t221 -111t149.5 -175.5t55 -232.5h-334
q0 131 -102 208q-102 78 -260 78q-103 0 -178 -23t-123.5 -63t-71.5 -94t-23 -115q0 -94 35 -163.5t123 -109.5q84 -38 218 -38h232v-264h-232q-208 0 -306.5 -81.5t-98.5 -247.5q1 -164 117 -243q115 -78 308 -78q92 0 164.5 25t122.5 67.5t76.5 100t26.5 123.5h335
q0 -77 -17 -143t-47.5 -121.5t-73.5 -101t-95 -80.5q-51 -35 -109.5 -61t-121.5 -43t-129 -25.5t-132 -8.5z" />
    <glyph glyph-name="uni0191" unicode="&#x191;" horiz-adv-x="1671" 
d="M58 -576q-25 0 -52 3t-57 8v245q39 -6 79 -6q51 0 91.5 9.5t68.5 32t43 58t15 88.5v2186h1270v-266h-961v-624h870v-265h-870v-1034q0 -114 -35 -196t-100 -135.5t-156.5 -78.5t-205.5 -25z" />
    <glyph glyph-name="florin" unicode="&#x192;" horiz-adv-x="1166" 
d="M234 -600q-45 0 -87.5 5t-84.5 15l20 254q15 -4 34 -7t37.5 -5t35 -3t27.5 -1q47 0 81 18t55.5 50.5t32 76.5t10.5 95v1353h-242v237h242v143q5 249 133 379q129 130 339 130q120 0 237 -34l-54 -251q-53 15 -120 15q-52 0 -94.5 -14t-72.5 -43t-47 -74t-18 -108v-143
h287v-237h-287v-1353q0 -128 -33 -221.5t-93.5 -155t-146.5 -91.5t-191 -30z" />
    <glyph glyph-name="uni0193" unicode="&#x193;" horiz-adv-x="2234" 
d="M1090 -28q-144 0 -268 34t-226.5 97.5t-182.5 155t-136 205.5q-118 235 -118 559q0 252 71 447q145 385 482 532q168 74 372 74q192 0 343.5 -58.5t260.5 -155.5q52 114 158.5 180t271.5 66q100 0 158 -16v-246q-21 4 -43.5 6t-46.5 2q-51 0 -95 -9.5t-75.5 -32.5
t-49.5 -63t-18 -100v-248h-317q-56 183 -195 288q-140 105 -349 105q-165 0 -307 -85q-142 -84 -231 -263q-83 -174 -83 -421q-2 -188 46 -332.5t132 -242t198.5 -147t247.5 -49.5q176 0 298 69q124 70 194 187t77 283h-522v255h825v-1048h-238l-28 245h-10
q-120 -143 -267.5 -208t-328.5 -65z" />
    <glyph glyph-name="uni0194" unicode="&#x194;" horiz-adv-x="1883" 
d="M942 -600q-83 0 -159.5 19t-134.5 60.5t-92 107.5t-33 161q0 69 40 165q20 48 46 106t59 130q26 57 56 121t63 139l-729 1627h342l540 -1271l542 1271h344l-730 -1636q31 -69 59 -131t54 -117q69 -140 108 -237.5t39 -166.5q0 -86 -30 -151.5t-85 -109t-131 -65.5
t-168 -22zM942 -350q54 0 80 33q27 33 27 70q0 47 -25 116q-23 67 -81 190l-29 -66q-19 -42 -34 -76.5t-25 -63.5t-15.5 -53.5t-5.5 -46.5q0 -20 6 -38.5t19.5 -32.5t33.5 -23t49 -9z" />
    <glyph glyph-name="uni0195" unicode="&#x195;" horiz-adv-x="2698" 
d="M1745 -28q-152 0 -278 66q-125 66 -200 213q-70 139 -70 354v336q0 90 -24.5 157t-68 111t-104 66t-132.5 22q-75 0 -141.5 -23t-117 -70.5t-80 -120t-29.5 -171.5v-912h-299v2048h295v-762h19q53 126 164.5 198t290.5 72q235 0 373 -135q153 -149 153 -444v-372
q0 -210 89 -304q70 -73 176 -73q93 0 173 62.5t138.5 197t92 345.5t33.5 508v195h300v-195q1 -359 -53 -617.5t-153 -425t-238 -246t-309 -80.5z" />
    <glyph glyph-name="uni0196" unicode="&#x196;" horiz-adv-x="1037" 
d="M670 -28q-109 0 -202 29.5t-161 91.5t-106.5 158t-38.5 230v1631h324v-1631q0 -55 13.5 -101t42 -79t72.5 -51.5t104 -18.5q65 0 125 15l32 -246q-115 -28 -205 -28z" />
    <glyph glyph-name="uni0197" unicode="&#x197;" horiz-adv-x="1282" 
d="M1158 0h-1034v266h363v694h-306v207h306v615h-363v266h1034v-266h-362v-615h304v-207h-304v-694h362v-266z" />
    <glyph glyph-name="uni0198" unicode="&#x198;" horiz-adv-x="1946" 
d="M1837 0h-373l-675 900l-255 -282v-618h-309v2048h309v-971h25l766 834q154 162 338 162q133 0 260 -82l-113 -225q-53 32 -105 32q-84 0 -173 -95l-550 -586z" />
    <glyph glyph-name="uni0199" unicode="&#x199;" horiz-adv-x="1542" 
d="M1512 0h-345l-495 664l-172 -187v-477h-299v1641q0 153 62 250q64 98 166 142q99 43 214 43q112 0 163 -13v-241q-20 4 -41 6t-44 2q-49 0 -89.5 -9.5t-70 -32t-45.5 -58.5t-16 -89v-746h20l572 641h366l-596 -656z" />
    <glyph glyph-name="uni019A" unicode="&#x19a;" horiz-adv-x="768" 
d="M585 -11q-384 0 -384 369v602h-309v207h309v881h299v-881h311v-207h-311v-540q0 -96 25 -137.5t89 -41.5q66 2 99 13l4 1l54 -239q-65 -23 -186 -27z" />
    <glyph glyph-name="uni019B" unicode="&#x19b;" horiz-adv-x="1811" 
d="M1512 -25q-71 0 -127 13.5t-101 46.5t-81 88.5t-67 139.5l-279 729l-352 -992h-354l537 1426l-54 128l-359 -128v246l266 96q-47 75 -141 75q-47 0 -70 -4l-4 243q18 5 39 8.5t46 5.5q49 6 84 6q151 0 233 -58q82 -59 123 -165l143 51v-247l-58 -21l511 -1291
q44 -125 135 -125h48l6 -257q-48 -14 -124 -14z" />
    <glyph glyph-name="uni019C" unicode="&#x19c;" horiz-adv-x="2591" 
d="M1630 -28q-75 0 -140.5 14t-120 45t-98.5 80.5t-75 119.5q-142 -259 -475 -259q-155 0 -266 60q-229 124 -229 568v1404h323v-1404q-1 -108 19 -177.5t54 -110.5t78 -57.5t91 -17.5q72 0 129.5 17t100.5 49t72.5 77t46.5 102q-2 28 -3.5 57t-1.5 61v1404h320v-1404
q-1 -108 19.5 -177.5t55 -110.5t79.5 -57.5t92 -17.5q142 0 226 64.5t118 176.5v1526h321v-2004h-300l-11 162q-145 -190 -425 -190z" />
    <glyph glyph-name="uni019D" unicode="&#x19d;" horiz-adv-x="2112" 
d="M94 -576q-56 0 -95 3t-62 8v245q39 -6 79 -6q51 0 91.5 9.5t68.5 32t43 58t15 88.5v2186h286l1042 -1504h19v1504h306v-2048h-284l-1041 1502h-19v-1643q0 -115 -37 -197t-99 -135t-143 -78t-170 -25z" />
    <glyph glyph-name="uni019E" unicode="&#x19e;" horiz-adv-x="1682" 
d="M1483 -576h-299v1517q0 80 -21 145.5t-62 112.5t-102 72.5t-141 25.5q-73 0 -138 -23t-114 -70.5t-77.5 -120t-28.5 -171.5v-912h-299v1536h287v-250h19q26 63 67 113t97 85t128 53.5t161 18.5q108 -1 204 -33.5t167.5 -102.5t112 -179.5t39.5 -263.5v-1553z" />
    <glyph glyph-name="uni019F" unicode="&#x19f;" horiz-adv-x="2163" 
d="M1082 -28q-279 0 -484 130q-204 130 -320 361q-119 236 -119 561q0 254 70 446q144 386 480 532q168 74 373 74q201 1 370.5 -72t293 -210t192 -332t66.5 -438q0 -254 -70 -446q-142 -385 -478 -532q-168 -74 -374 -74zM1082 254q238 0 405 161q166 162 204 470
q-65 -25 -123.5 -39t-112.5 -16l-47 -1q-134 0 -341 65q-64 22 -131.5 38t-139.5 26q-18 2 -36.5 3.5t-38.5 1.5q-115 0 -251 -42q30 -326 198 -497q168 -170 414 -170zM1440 1087q113 0 254 44q-32 324 -199 493q-168 170 -413 170q-238 0 -404 -160q-167 -161 -204 -467
q127 48 235 54l39 1q93 0 176.5 -19t168.5 -47q127 -44 273 -64q18 -2 36.5 -3.5t37.5 -1.5z" />
    <glyph glyph-name="Ohorn" unicode="&#x1a0;" horiz-adv-x="2217" 
d="M1082 -28q-279 0 -484 130q-204 130 -320 361q-119 236 -119 561q0 254 70 446q144 386 480 532q168 74 373 74q385 0 645 -264q203 53 203 368h248q0 -205 -76 -348q-77 -143 -242 -201q144 -255 144 -607q0 -254 -70 -446q-142 -385 -478 -532q-168 -74 -374 -74z
M1082 254q167 0 308 84q141 86 228 265q80 174 80 421q0 248 -80 422q-87 179 -228 263q-140 85 -308 85t-308 -85q-141 -84 -227 -263q-81 -173 -81 -422q0 -128 21 -234t60 -191.5t95 -149.5t125 -106q140 -89 315 -89z" />
    <glyph glyph-name="ohorn" unicode="&#x1a1;" horiz-adv-x="1716" 
d="M848 -31q-113 0 -209 26.5t-174.5 76t-139.5 119t-104 155.5q-89 180 -89 415q-2 182 50.5 329.5t147.5 251t227 159.5t291 55q177 0 308.5 -61.5t219.5 -165.5q33 19 54 49.5t33 70t17 88.5t5 106h231q0 -173 -56 -293t-183 -176q87 -177 87 -413q0 -124 -24 -230
t-68 -193.5t-106.5 -155t-139.5 -114.5q-161 -99 -378 -99zM849 220q106 0 183.5 43t128.5 117t76 172.5t25 209.5q0 102 -22.5 199.5t-72 174t-128 123.5t-190.5 47q-106 0 -184 -44t-129.5 -118.5t-76.5 -173t-25 -208.5q0 -105 23 -203t73.5 -173t129 -120.5t189.5 -45.5
z" />
    <glyph glyph-name="uni01A2" unicode="&#x1a2;" horiz-adv-x="2399" 
d="M2257 -572h-323v2228l-202 -80v-1310q-68 -104 -225 -189q-194 -105 -506 -105q-239 0 -436 107q-195 106 -313 332q-110 215 -110 524v134q0 157 29.5 289t83.5 238t130.5 186.5t170.5 135.5q193 114 445 114q122 0 220.5 -15.5t176 -42t136 -60.5t100.5 -70l376 160
h247v-2576zM1017 240q95 -1 161 12t111 33t73 42.5t48 41.5v1264q-13 16 -31.5 30.5t-42.5 28.5q-24 15 -54.5 27.5t-70 21.5t-90 14.5t-113.5 5.5q-118 0 -215.5 -42.5t-167 -128t-108 -216t-38.5 -305.5v-134q0 -197 56 -357q55 -157 181 -251q118 -87 301 -87z" />
    <glyph glyph-name="uni01A3" unicode="&#x1a3;" horiz-adv-x="1882" 
d="M1779 -572h-322v1666l-160 -83v-793q-39 -53 -91 -98t-117 -78t-142 -51.5t-166 -18.5q-339 0 -514 222q-167 209 -167 525q0 53 2 98t6 83q9 78 34 157q31 102 86.5 186.5t135.5 145t184 94t233 33.5q72 0 137 -13t122 -36.5t105 -56t87 -71.5l307 149h240v-2060z
M779 231q115 0 194 61v896q-77 70 -196 70q-199 0 -283 -155q-71 -131 -71 -334q0 -51 2 -94t6 -78t12 -69t19 -67q77 -230 317 -230z" />
    <glyph glyph-name="uni01A4" unicode="&#x1a4;" horiz-adv-x="2278" 
d="M1012 0h-309v1783h-109q-62 1 -98.5 -20.5t-56 -57t-25.5 -81t-7 -91.5v-91h-283v158q0 96 30.5 178t90 142t146.5 94t200 34h842q178 0 311 -50.5t221.5 -140t132.5 -210.5t44 -262q0 -182 -75 -333q-75 -152 -239 -245q-158 -87 -396 -87h-420v-720zM1404 982
q114 0 195 30t132.5 84t75.5 128t24 161q-1 81 -23.5 153.5t-73 127t-132.5 86.5t-202 31h-388v-801h392z" />
    <glyph glyph-name="uni01A5" unicode="&#x1a5;" horiz-adv-x="1738" 
d="M500 -576h-299v2112q0 98 30 169.5t86 118t135 68.5t178 22q115 0 164 -16v-228q-47 12 -96 12q-205 -1 -205 -146v-249h25q48 97 134 171q113 98 307 98q135 0 253 -51.5t206 -151.5t137.5 -248t48.5 -340q1 -189 -48 -337t-135.5 -250t-204.5 -155.5t-254 -52.5
q-190 0 -306 98q-89 73 -138 171h-18v-815zM895 225q70 0 127 19.5t101.5 54.5t77.5 84t55 108q46 122 46 277q0 106 -22.5 203t-71.5 170.5t-126.5 117t-186.5 43.5q-100 0 -175 -39t-125.5 -109.5t-75.5 -168.5t-25 -217q0 -111 24 -210.5t73.5 -173.5t124.5 -117.5
t179 -41.5z" />
    <glyph glyph-name="uni01A6" unicode="&#x1a6;" horiz-adv-x="2070" 
d="M1923 -491h-358l-673 1271h-406v-780h-339v2004h1v140h338v-140h365q209 0 374 -63t261 -202q89 -134 89 -340q0 -101 -26 -185.5t-74 -152.5t-116.5 -119.5t-153.5 -85.5l718 -1330v-17zM851 1048q97 0 170.5 26t122 71t73 107t24.5 134q0 165 -95 255.5t-295 90.5h-365
v-684h365z" />
    <glyph glyph-name="uni01A7" unicode="&#x1a7;" horiz-adv-x="1812" 
d="M902 -34q-124 0 -228 20.5t-187.5 58.5t-147 92t-105.5 120q-90 136 -90 309q0 254 197 403q166 122 392 173l200 52q80 19 168 56q199 82 204 256q0 65 -28 120.5t-81 96t-129.5 63.5t-172.5 23q-168 0 -285 -75q-117 -74 -139 -224h-298q5 89 31.5 164.5t72 137.5
t107.5 110t139 83q160 71 365 71q287 0 481 -135q245 -170 245 -453q0 -104 -36 -189t-104.5 -152.5t-167.5 -117t-225 -82.5l-242 -66q-81 -21 -152 -46.5t-123.5 -62t-82.5 -86t-30 -117.5q-1 -81 36 -143t100 -104t145.5 -63.5t172.5 -21.5q105 0 207 32q98 31 170 107
q65 73 77 190h310q-18 -281 -220 -441q-203 -159 -546 -159z" />
    <glyph glyph-name="uni01A8" unicode="&#x1a8;" horiz-adv-x="1509" 
d="M755 -31q-140 -1 -256 35t-199 99.5t-128.5 151t-44.5 189.5q0 157 100.5 261.5t319.5 154.5l244 56q241 51 241 192q0 100 -85 155q-85 56 -212 56q-69 0 -121 -17.5t-89 -46t-60.5 -65.5t-36.5 -77l-271 48q24 90 71 163t119 124.5t169 79.5t222 28q183 0 313.5 -58.5
t203.5 -157.5q76 -101 76 -239q0 -333 -420 -427l-260 -57q-217 -49 -217 -195q0 -42 21.5 -80.5t63 -67.5t101.5 -46.5t137 -17.5q129 0 215 55.5t115 172.5l289 -44q-42 -209 -204 -317q-161 -108 -417 -108z" />
    <glyph glyph-name="uni01A9" unicode="&#x1a9;" horiz-adv-x="1815" 
d="M1608 0h-1427v209l641 795l-641 800v212h1374v-274h-933l556 -724v-25l-555 -719h985v-274z" />
    <glyph glyph-name="uni01AA" unicode="&#x1aa;" horiz-adv-x="1626" 
d="M1282 -571q-111 0 -193 35t-135.5 100.5t-80 159.5t-26.5 213v1250q-84 -34 -180 -34q-75 0 -141 18.5t-121 52t-99 79t-74 99.5q-67 113 -68 251q3 75 21.5 140.5t51.5 120.5t78 98t100 75q112 66 252 66q107 1 198.5 -38.5t159 -107.5t106 -159.5t40.5 -194.5v-1716
q0 -121 44 -182t143 -61q41 0 100 12v-254q-75 -23 -176 -23zM668 1440q41 0 78 12t65.5 38.5t45 67.5t16.5 99q0 53 -16 93t-44 67t-65 41t-80 14q-42 0 -80 -12t-67 -38t-46.5 -67t-17.5 -98q0 -109 60 -163t151 -54z" />
    <glyph glyph-name="uni01AB" unicode="&#x1ab;" horiz-adv-x="1056" 
d="M533 -575q-97 0 -151 14v227q40 -8 87 -8q229 0 229 201v122q-165 12 -278 113q-111 101 -116 295v907h-225v240h225v368h299v-368h315v-240h-315v-845q0 -159 94 -190q42 -15 90 -15q24 0 44 3l124 25v-415q0 -106 -32 -187t-88.5 -136t-133.5 -83t-168 -28z" />
    <glyph glyph-name="uni01AC" unicode="&#x1ac;" horiz-adv-x="1940" 
d="M1178 0h-308v1782h-287q-57 0 -94 -20t-58.5 -52.5t-29.5 -75t-8 -87.5v-90h-269v145q0 99 30 181t88 141t143.5 91.5t197.5 32.5h1233v-266h-638v-1782z" />
    <glyph glyph-name="uni01AD" unicode="&#x1ad;" horiz-adv-x="1109" 
d="M749 -28q-79 0 -148 24t-120.5 77.5t-81.5 138t-30 205.5v834h-252v237h252v232q-2 116 37 198t104 134.5t149 76.5t173 24q86 0 163 -21v-215q-44 12 -85 12q-218 0 -218 -209v-232h269v-237h-269v-819q0 -191 157 -191q21 0 43 2t45 6l32 5v-251q-87 -31 -220 -31z" />
    <glyph glyph-name="uni01AE" unicode="&#x1ae;" horiz-adv-x="1833" 
d="M1382 -576h-156q-83 0 -166 21.5t-149 72t-107.5 133.5t-41.5 206v1925h-638v266h1585v-266h-639v-1923q0 -55 20 -89.5t53 -54t75 -26.5t85 -7h79v-258z" />
    <glyph glyph-name="Uhorn" unicode="&#x1af;" horiz-adv-x="2441" 
d="M1038 -34q-174 0 -322.5 49.5t-257.5 143t-171 228.5t-62 306v1355h309v-1350q-1 -110 39.5 -193.5t110.5 -140t161.5 -85.5t192.5 -29q97 0 188 27t161.5 82t113 139.5t42.5 199.5v1350h309v-290q118 27 167 120q51 94 51 277h247q0 -137 -26 -243t-82 -182t-144.5 -122
t-212.5 -62v-853q0 -116 -29 -214.5t-81.5 -179.5t-127 -143t-165 -104.5t-194.5 -64t-217 -21.5z" />
    <glyph glyph-name="uhorn" unicode="&#x1b0;" horiz-adv-x="1834" 
d="M708 -20q-104 0 -196.5 34.5t-161 105.5t-108 180t-38.5 259v977h299v-941q0 -82 24 -146t66 -107.5t99 -66.5t124 -23q83 0 164 40q82 40 141 130q55 86 56 215v899h300v-232q129 15 160 90q29 67 29 184l-1 32h221q0 -111 -20 -196.5t-67.5 -145.5t-126 -94.5
t-195.5 -43.5v-1130h-294v266h-16q-28 -63 -71 -115.5t-100.5 -90.5t-129.5 -59t-158 -21z" />
    <glyph glyph-name="uni01B1" unicode="&#x1b1;" horiz-adv-x="2160" 
d="M1080 -28q-140 0 -261.5 33.5t-223.5 95.5t-183 150t-139 196q-119 223 -119 511q0 143 29 264.5t83 222.5t130.5 181t170.5 140v16h-413v266h756v-336q-92 -39 -174.5 -108.5t-144 -164.5t-97 -213.5t-34.5 -256.5q0 -212 82 -370q82 -159 219 -252q137 -92 319 -92
q92 -1 173.5 24t151 71.5t124.5 112t93 145t58.5 171t19.5 190.5q0 183 -62 333q-125 293 -388 410v336h756v-266h-413v-16q194 -122 303 -325q110 -203 110 -483q0 -150 -32 -280.5t-90.5 -239t-141 -194.5t-182.5 -146q-209 -126 -480 -126z" />
    <glyph glyph-name="uni01B2" unicode="&#x1b2;" horiz-adv-x="1811" 
d="M906 -28q-153 0 -289.5 40.5t-239 125t-162 214.5t-59.5 310v1342h334v-1342q1 -107 30 -186t82 -131.5t130 -78.5t174 -26q194 0 304 104t110 318v861q0 121 -50 176t-165 55q-64 0 -99 -8v261q90 24 172 24q110 0 199 -33.5t151.5 -98t96.5 -159.5t34 -217v-861
q0 -171 -59.5 -300t-162 -216t-239.5 -130.5t-292 -43.5z" />
    <glyph glyph-name="uni01B3" unicode="&#x1b3;" horiz-adv-x="2066" 
d="M1142 0h-308v826l-759 1222h347l554 -931h24l422 707q155 248 397 248q97 0 196 -42l-73 -242q-48 19 -94 19q-51 0 -93 -27t-81 -94l-39 -67l-493 -793v-826z" />
    <glyph glyph-name="uni01B4" unicode="&#x1b4;" horiz-adv-x="1730" 
d="M348 -600q-20 0 -44 1.5t-51 5.5q-55 6 -89 15v257q18 -7 102 -7q69 0 122.5 13t93.5 40.5t68 69.5t46 100l41 119l-550 1522h319l372 -1085q181 528 273.5 798.5t97.5 283.5q75 190 198 285q92 71 235 71q110 0 260 -67l-54 -220q-79 38 -153 38q-84 -6 -135 -77
q-51 -72 -98 -211l-544 -1578q-28 -80 -75.5 -148.5t-112 -118.5t-145.5 -78.5t-177 -28.5z" />
    <glyph glyph-name="uni01B5" unicode="&#x1b5;" horiz-adv-x="1799" 
d="M1636 0h-1464v206l515 754h-223v207h365l420 615h-1086v266h1464v-206l-461 -675h217v-207h-359l-474 -694h1086v-266z" />
    <glyph glyph-name="uni01B6" unicode="&#x1b6;" horiz-adv-x="1553" 
d="M1402 0h-1233v205l364 462h-219v207h382l305 388v14h-805v260h1178v-218l-340 -444h199v-207h-358l-301 -393v-14h828v-260z" />
    <glyph glyph-name="uni01B7" unicode="&#x1b7;" horiz-adv-x="1924" 
d="M949 -570q-233 0 -414 92t-288 245q-111 158 -123 365h314q18 -193 167 -312q148 -118 348 -118q83 0 154 21.5t128 60t101 92.5t73 119q62 135 62 295q0 187 -80 320q-80 132 -216 207.5t-324 75.5h-175v243l646 626v16h-1083v270h1492v-224l-705 -689v-20
q246 -20 412 -132q170 -118 257.5 -297.5t87.5 -402.5q0 -194 -62 -346t-167 -263q-104 -111 -256 -177.5t-349 -66.5z" />
    <glyph glyph-name="uni01B8" unicode="&#x1b8;" horiz-adv-x="1924" 
d="M975 -570q-199 0 -349 67q-303 135 -423 443q-62 154 -62 343q0 213 86 397q43 93 108.5 168.5t153.5 136.5q169 112 409 130v20l-705 689v224h1492v-270h-1083v-16l646 -626v-243h-175q-192 0 -328 -78q-135 -78 -213.5 -209.5t-78.5 -315.5q0 -147 57 -282t184 -226
q116 -80 277 -80q200 0 348 118q149 119 167 312h314q-15 -219 -127 -373q-117 -159 -301 -244q-180 -85 -397 -85z" />
    <glyph glyph-name="uni01B9" unicode="&#x1b9;" horiz-adv-x="1794" 
d="M908 -540q-158 -1 -292 44t-231.5 126t-152.5 192.5t-53 243.5q0 238 168 408q170 170 457 194v16l-548 628v224h1272v-265h-868v-15l492 -568v-234h-183q-169 0 -273 -52q-54 -27 -93 -63t-63.5 -78t-36 -89t-11.5 -96q0 -87 32 -152.5t88 -109.5t131 -66t162 -22
q164 0 279 77q114 76 132 219h313q-11 -136 -70.5 -240.5t-155.5 -176t-223 -108t-272 -37.5z" />
    <glyph glyph-name="uni01BA" unicode="&#x1ba;" horiz-adv-x="1554" 
d="M738 -600q-97 0 -179 15.5t-148.5 44t-117 68.5t-85.5 89q-74 101 -74 232q0 93 36 164.5t106.5 126.5t174.5 93.5t241 65.5q170 32 239 78t69 130q0 75 -62 118.5t-197 43.5h-271v195l465 366h-728v258h1211v-190l-462 -411q186 -51 274 -157q88 -104 88 -235
q1 -101 -40 -173t-114 -124t-173.5 -87t-218.5 -61q-91 -19 -152.5 -41t-99 -49t-53.5 -59t-16 -71q0 -38 16.5 -72t51.5 -59t88 -39.5t127 -14.5q52 0 106.5 12t100.5 40.5t77 77t35 120.5h313q0 -62 -19.5 -126.5t-62 -124.5t-111 -112t-166.5 -89q-116 -43 -269 -43z" />
    <glyph glyph-name="uni01BB" unicode="&#x1bb;" horiz-adv-x="1727" 
d="M1545 0h-1348v224l717 744h-193v207h374q123 153 123 311q1 82 -29 144t-81 104t-117.5 63t-138.5 21q-87 0 -154.5 -26.5t-113 -74.5t-69.5 -115t-25 -148h-295q-1 95 22 178t65 152.5t102.5 124t134.5 92t159.5 56.5t179.5 19q147 1 268 -44.5t207 -124.5t133 -185.5
t46 -226.5q0 -172 -90 -320h218v-207h-367q-49 -57 -109.5 -122t-133.5 -140l-407 -426v-15h922v-265z" />
    <glyph glyph-name="uni01BC" unicode="&#x1bc;" horiz-adv-x="1717" 
d="M889 -28q-101 0 -188.5 20t-159.5 56t-129.5 86t-98.5 111q-86 127 -95 289h300q23 -146 126 -224q105 -78 245 -78q175 0 291 120q115 119 115 304q0 188 -117 308q-115 121 -302 126q-44 0 -89 -7.5t-89.5 -22t-85.5 -36t-75 -50.5l-283 42l85 767h-245v265h1401v-265
h-869l-65 -573h12q58 58 152.5 97t220.5 39q98 0 183 -24t156.5 -67.5t127.5 -104t97 -134.5q82 -155 84 -354q-3 -212 -94 -363q-100 -163 -259 -245q-158 -82 -352 -82z" />
    <glyph glyph-name="uni01BD" unicode="&#x1bd;" horiz-adv-x="1628" 
d="M862 -24q-69 0 -141 11.5t-139.5 35.5t-127.5 61t-104 87t-69.5 114t-24.5 143l314 22q8 -105 88 -159q83 -53 204 -53q77 0 132.5 19.5t91 55t52 83.5t16.5 105q0 116 -73 188q-72 73 -215 73q-182 0 -268 -119l-284 19l69 559h-230v267h1237v-267h-705l-39 -299
q26 16 59 30t75 25q84 24 171 24q250 0 387 -134t137 -376q-1 -108 -35 -202.5t-107.5 -164.5t-189.5 -110t-281 -38z" />
    <glyph glyph-name="uni01BE" unicode="&#x1be;" horiz-adv-x="1554" 
d="M794 -28q-153 0 -271 43t-198.5 113t-122 159.5t-41.5 182.5h317q3 -72 33.5 -120.5t76.5 -78t101 -42t107 -12.5q138 0 209 53t71 132q0 41 -15.5 72.5t-42 57t-61 47.5t-72.5 45q-85 48 -164 113q-78 66 -123 178q-28 72 -28 179v157h-252v237h252v361h324v-361h268
v-237h-268v-153q4 -124 73 -190q35 -32 75 -60.5t87 -51.5q48 -29 96 -59t86.5 -72t62 -100t22.5 -142q1 -101 -42.5 -184t-123.5 -142.5t-191 -92.5t-245 -32z" />
    <glyph glyph-name="uni01BF" unicode="&#x1bf;" horiz-adv-x="1817" 
d="M578 -572h-325v2060h299l14 -150q150 178 409 178q99 0 181 -26t147 -73t113.5 -114t80.5 -148q67 -162 67 -426q0 -388 -261 -616q-244 -208 -725 -341v-344zM578 28q145 39 266.5 98t209.5 144t137 198.5t48 260.5q0 116 -17.5 208t-66.5 171q-92 144 -273 144
q-213 0 -304 -175v-1049z" />
    <glyph glyph-name="uni01C0" unicode="&#x1c0;" horiz-adv-x="780" 
d="M505 0h-230v2036h230v-2036z" />
    <glyph glyph-name="uni01C1" unicode="&#x1c1;" horiz-adv-x="1042" 
d="M439 0h-230v2036h230v-2036zM811 0h-230v2036h230v-2036z" />
    <glyph glyph-name="uni01C2" unicode="&#x1c2;" horiz-adv-x="920" 
d="M578 0h-230v620h-345v207h345v457h-361v207h361v545h230v-545h328v-207h-328v-457h344v-207h-344v-620z" />
    <glyph glyph-name="uni01C3" unicode="&#x1c3;" horiz-adv-x="827" 
d="M552 589h-277l-26 1459h329zM413 -19q-81 0 -141 57q-59 57 -59 143q0 85 59 142q60 57 141 57t140 -57q60 -57 60 -142q0 -86 -60 -143q-59 -57 -140 -57z" />
    <glyph glyph-name="uni01C5" unicode="&#x1c5;" horiz-adv-x="3585" 
d="M888 0h-663v2048h684q408 0 656 -221q308 -275 308 -800q1 -245 -67 -436t-195.5 -322.5t-310.5 -200.5t-412 -68zM871 270q350 0 524 196t174 561q0 221 -70 391q-69 170 -224 268q-151 92 -385 92h-356v-1508h337zM3434 0h-1233v205l832 1057v14h-805v260h1178v-218
l-800 -1044v-14h828v-260zM2931 1720h-249l-351 424v15h270l206 -268l205 268h271v-15z" />
    <glyph glyph-name="uni01C6" unicode="&#x1c6;" horiz-adv-x="3035" 
d="M776 -30q-85 0 -165.5 21t-152 66t-133 114.5t-108.5 167.5q-83 180 -83 426q0 130 22.5 238.5t64 195.5t99 152.5t127.5 110.5q145 94 331 94q195 0 308 -98q83 -74 134 -171h18v761h299v-2048h-292v239h-25q-53 -105 -139 -173q-119 -96 -305 -96zM2884 0h-1233v205
l832 1057v14h-805v260h1178v-218l-800 -1044v-14h828v-260zM842 225q98 0 173 40t125.5 111.5t76.5 171.5t26 220q0 122 -26 221t-77 168.5t-126 107t-172 37.5q-101 1 -177 -40t-127 -113.5t-76.5 -170.5t-25.5 -210q0 -109 23.5 -207.5t73 -173t126 -118.5t183.5 -44z
M2381 1720h-249l-351 424v15h270l206 -268l205 268h271v-15z" />
    <glyph glyph-name="uni01C7" unicode="&#x1c7;" horiz-adv-x="3142" 
d="M1462 0h-1237v2048h309v-1782h928v-266zM2295 -28q-126 0 -237 34t-193 101.5t-129.5 168.5t-47.5 236h307q6 -136 92 -207t216 -71q70 0 126 22t96 66.5t61.5 112.5t23.5 161v1452h308v-1452q-4 -298 -173 -461q-167 -163 -450 -163z" />
    <glyph glyph-name="uni01C8" unicode="&#x1c8;" horiz-adv-x="2290" 
d="M1462 0h-1237v2048h309v-1782h928v-266zM1605 -574h-64v258l48 -1q106 0 153.5 56.5t47.5 164.5v1632h299v-1634q0 -110 -29 -198t-89 -150t-151 -95t-215 -33zM1938 1773q-80 0 -135 52q-54 52 -54 126q0 76 55 127q55 52 134 52q73 0 131 -50q58 -49 58 -129
q0 -76 -57 -127q-56 -51 -132 -51z" />
    <glyph glyph-name="uni01C9" unicode="&#x1c9;" horiz-adv-x="1469" 
d="M201 0zM585 -11q-384 0 -384 369v1690h299v-1628q0 -96 25 -137.5t89 -41.5q66 2 99 13l4 1l54 -239q-65 -23 -186 -27zM784 -574h-64v258l48 -1q106 0 153.5 56.5t47.5 164.5v1632h299v-1634q0 -110 -29 -198t-89 -150t-151 -95t-215 -33zM1117 1773q-80 0 -135 52
q-54 52 -54 126q0 76 55 127q55 52 134 52q73 0 131 -50q58 -49 58 -129q0 -76 -57 -127q-56 -51 -132 -51z" />
    <glyph glyph-name="uni01CA" unicode="&#x1ca;" horiz-adv-x="3657" 
d="M1878 0h-284l-1041 1502h-19v-1502h-309v2048h286l1042 -1504h19v1504h306v-2048zM2809 -28q-126 0 -237 34t-193 101.5t-129.5 168.5t-47.5 236h307q6 -136 92 -207t216 -71q70 0 126 22t96 66.5t61.5 112.5t23.5 161v1452h308v-1452q-4 -298 -173 -461
q-167 -163 -450 -163z" />
    <glyph glyph-name="uni01CB" unicode="&#x1cb;" horiz-adv-x="2767" 
d="M1878 0h-284l-1041 1502h-19v-1502h-309v2048h286l1042 -1504h19v1504h306v-2048zM2068 -574h-64v258l48 -1q106 0 153.5 56.5t47.5 164.5v1632h299v-1634q0 -110 -29 -198t-89 -150t-151 -95t-215 -33zM2401 1773q-80 0 -135 52q-54 52 -54 126q0 76 55 127
q55 52 134 52q73 0 131 -50q58 -49 58 -129q0 -76 -57 -127q-56 -51 -132 -51z" />
    <glyph glyph-name="uni01CC" unicode="&#x1cc;" horiz-adv-x="2383" 
d="M1483 0h-299v941q0 88 -24.5 155t-68 111.5t-103 67t-130.5 22.5q-73 0 -138 -23t-114 -70t-77.5 -120t-28.5 -172v-912h-299v1536h287v-250h19q27 62 68.5 112t98 85t128 54t158.5 19q108 -1 203.5 -34t167 -103t112.5 -179.5t40 -262.5v-977zM1698 -574h-64v258l48 -1
q106 0 153.5 56.5t47.5 164.5v1632h299v-1634q0 -110 -29 -198t-89 -150t-151 -95t-215 -33zM2031 1773q-80 0 -135 52q-54 52 -54 126q0 76 55 127q55 52 134 52q73 0 131 -50q58 -49 58 -129q0 -76 -57 -127q-56 -51 -132 -51z" />
    <glyph glyph-name="uni01CD" unicode="&#x1cd;" horiz-adv-x="1971" 
d="M1901 0h-328l-187 542h-800l-188 -542h-328l737 2048h357zM1296 802l-302 874h-16l-302 -874h620zM1110 2232h-249l-351 424v15h270l206 -268l205 268h271v-15z" />
    <glyph glyph-name="uni01CE" unicode="&#x1ce;" horiz-adv-x="1603" 
d="M648 -34q-102 0 -196 27.5t-165.5 84.5t-114.5 145.5t-43 210.5q0 66 13.5 119t38.5 95.5t59 75.5t76 58q84 51 187.5 75t214.5 36q125 13 200.5 23t117 24.5t55.5 37.5t15 61q0 63 -17.5 114t-53.5 86.5t-91 55t-130 19.5q-73 0 -131.5 -17.5t-103 -47t-75.5 -68.5
t-47 -81l-281 64q41 107 106 181.5t147.5 121.5t179 68t201.5 21q293 0 454 -152q142 -133 142 -384v-1020h-292v210h-12q-27 -59 -85 -114q-139 -130 -369 -130zM713 206q94 -1 167.5 28t124 77.5t76.5 112t26 130.5v198q-38 -29 -144 -48q-43 -8 -84 -14.5t-82 -11.5
l-60 -8q-189 -20 -271 -111q-44 -50 -44 -129q0 -57 22.5 -99.5t61.5 -70t92 -41t115 -13.5zM950 1720h-249l-351 424v15h270l206 -268l205 268h271v-15z" />
    <glyph glyph-name="uni01CF" unicode="&#x1cf;" horiz-adv-x="1282" 
d="M1158 0h-1034v266h363v1516h-363v266h1034v-266h-362v-1516h362v-266zM766 2232h-249l-351 424v15h270l206 -268l205 268h271v-15z" />
    <glyph glyph-name="uni01D0" unicode="&#x1d0;" horiz-adv-x="701" 
d="M500 0h-299v1536h299v-1536zM476 1720h-249l-351 424v15h270l206 -268l205 268h271v-15z" />
    <glyph glyph-name="uni01D1" unicode="&#x1d1;" horiz-adv-x="2163" 
d="M1082 -28q-279 0 -484 130q-204 130 -320 361q-119 236 -119 561q0 254 70 446q144 386 480 532q168 74 373 74q201 1 370.5 -72t293 -210t192 -332t66.5 -438q0 -254 -70 -446q-142 -385 -478 -532q-168 -74 -374 -74zM1082 254q167 0 308 84q141 86 228 265
q80 174 80 421q0 248 -80 422q-87 179 -228 263q-140 85 -308 85t-308 -85q-141 -84 -227 -263q-81 -173 -81 -422q0 -128 21 -234t60 -191.5t95 -149.5t125 -106q140 -89 315 -89zM1206 2232h-249l-351 424v15h270l206 -268l205 268h271v-15z" />
    <glyph glyph-name="uni01D2" unicode="&#x1d2;" horiz-adv-x="1696" 
d="M848 -31q-113 0 -209 26.5t-174.5 76t-139.5 119t-104 155.5q-89 180 -89 415q-2 182 50.5 329.5t147.5 251t227 159.5t291 55q113 0 209 -26.5t175 -76t139.5 -119t103.5 -155.5q89 -180 89 -418q0 -124 -24 -230t-68 -193.5t-106.5 -155t-139.5 -114.5
q-161 -99 -378 -99zM849 220q106 0 183.5 43t128.5 117t76 172.5t25 209.5q0 102 -22.5 199.5t-72 174t-128 123.5t-190.5 47q-106 0 -184 -44t-129.5 -118.5t-76.5 -173t-25 -208.5q0 -105 23 -203t73.5 -173t129 -120.5t189.5 -45.5zM972 1720h-249l-351 424v15h270
l206 -268l205 268h271v-15z" />
    <glyph glyph-name="uni01D3" unicode="&#x1d3;" horiz-adv-x="2077" 
d="M1038 -34q-174 0 -322.5 49.5t-257.5 143t-171 228.5t-62 306v1355h309v-1350q-1 -110 39.5 -193.5t110.5 -140t161.5 -85.5t192.5 -29q97 0 188 27t161.5 82t113 139.5t42.5 199.5v1350h309v-1355q0 -116 -29 -214.5t-81.5 -179.5t-127 -143t-165 -104.5t-194.5 -64
t-217 -21.5zM1163 2232h-249l-351 424v15h270l206 -268l205 268h271v-15z" />
    <glyph glyph-name="uni01D4" unicode="&#x1d4;" horiz-adv-x="1674" 
d="M705 -20q-133 0 -249 59q-115 60 -187 193q-68 128 -68 327v977h299v-941q0 -83 24 -147t66.5 -107.5t99.5 -66t123 -22.5q83 0 164 40q82 40 141 130q55 86 56 215v899h300v-1536h-294v266h-16q-27 -62 -69 -114.5t-99.5 -90.5t-130 -59.5t-160.5 -21.5zM964 1720h-249
l-351 424v15h270l206 -268l205 268h271v-15z" />
    <glyph glyph-name="uni01D5" unicode="&#x1d5;" horiz-adv-x="2077" 
d="M1038 -34q-174 0 -322.5 49.5t-257.5 143t-171 228.5t-62 306v1355h309v-1350q-1 -110 39.5 -193.5t110.5 -140t161.5 -85.5t192.5 -29q97 0 188 27t161.5 82t113 139.5t42.5 199.5v1350h309v-1355q0 -116 -29 -214.5t-81.5 -179.5t-127 -143t-165 -104.5t-194.5 -64
t-217 -21.5zM1513 2862h-949v210h949v-210zM745 2289q-68 0 -123 50q-54 51 -54 124q0 76 54 126q55 49 123 49q77 0 127 -51q49 -50 49 -124q0 -33 -12.5 -64.5t-35 -55.5t-55.5 -39t-73 -15zM1333 2289q-68 0 -123 50q-54 51 -54 124q0 76 54 126q55 49 123 49
q77 0 127 -51q49 -50 49 -124q0 -33 -12.5 -64.5t-35 -55.5t-55.5 -39t-73 -15z" />
    <glyph glyph-name="uni01D6" unicode="&#x1d6;" horiz-adv-x="1674" 
d="M705 -20q-133 0 -249 59q-115 60 -187 193q-68 128 -68 327v977h299v-941q0 -83 24 -147t66.5 -107.5t99.5 -66t123 -22.5q83 0 164 40q82 40 141 130q55 86 56 215v899h300v-1536h-294v266h-16q-27 -62 -69 -114.5t-99.5 -90.5t-130 -59.5t-160.5 -21.5zM1314 2350h-949
v210h949v-210zM546 1777q-68 0 -123 50q-54 51 -54 124q0 76 54 126q55 49 123 49q77 0 127 -51q49 -50 49 -124q0 -33 -12.5 -64.5t-35 -55.5t-55.5 -39t-73 -15zM1134 1777q-68 0 -123 50q-54 51 -54 124q0 76 54 126q55 49 123 49q77 0 127 -51q49 -50 49 -124
q0 -33 -12.5 -64.5t-35 -55.5t-55.5 -39t-73 -15z" />
    <glyph glyph-name="uni01D7" unicode="&#x1d7;" horiz-adv-x="2077" 
d="M1038 -34q-174 0 -322.5 49.5t-257.5 143t-171 228.5t-62 306v1355h309v-1350q-1 -110 39.5 -193.5t110.5 -140t161.5 -85.5t192.5 -29q97 0 188 27t161.5 82t113 139.5t42.5 199.5v1350h309v-1355q0 -116 -29 -214.5t-81.5 -179.5t-127 -143t-165 -104.5t-194.5 -64
t-217 -21.5zM744 2203q-68 0 -123 50q-54 51 -54 124q0 76 54 126q55 49 123 49q77 0 127 -51q49 -50 49 -124q0 -33 -12.5 -64.5t-35 -55.5t-55.5 -39t-73 -15zM1332 2203q-68 0 -123 50q-54 51 -54 124q0 76 54 126q55 49 123 49q77 0 127 -51q49 -50 49 -124
q0 -33 -12.5 -64.5t-35 -55.5t-55.5 -39t-73 -15zM1156 2689h-239l284 321h316z" />
    <glyph glyph-name="uni01D8" unicode="&#x1d8;" horiz-adv-x="1674" 
d="M705 -20q-133 0 -249 59q-115 60 -187 193q-68 128 -68 327v977h299v-941q0 -83 24 -147t66.5 -107.5t99.5 -66t123 -22.5q83 0 164 40q82 40 141 130q55 86 56 215v899h300v-1536h-294v266h-16q-27 -62 -69 -114.5t-99.5 -90.5t-130 -59.5t-160.5 -21.5zM955 2253h-239
l233 461h315zM545 1777q-68 0 -123 50q-54 51 -54 124q0 76 54 126q55 49 123 49q77 0 127 -51q49 -50 49 -124q0 -33 -12.5 -64.5t-35 -55.5t-55.5 -39t-73 -15zM1133 1777q-68 0 -123 50q-54 51 -54 124q0 76 54 126q55 49 123 49q77 0 127 -51q49 -50 49 -124
q0 -33 -12.5 -64.5t-35 -55.5t-55.5 -39t-73 -15z" />
    <glyph glyph-name="uni01D9" unicode="&#x1d9;" horiz-adv-x="2077" 
d="M1038 -34q-174 0 -322.5 49.5t-257.5 143t-171 228.5t-62 306v1355h309v-1350q-1 -110 39.5 -193.5t110.5 -140t161.5 -85.5t192.5 -29q97 0 188 27t161.5 82t113 139.5t42.5 199.5v1350h309v-1355q0 -116 -29 -214.5t-81.5 -179.5t-127 -143t-165 -104.5t-194.5 -64
t-217 -21.5zM1141 2567h-209l-366 304v25h275l195 -166l195 166h277v-23zM1357 2265q-44 0 -76.5 13t-53.5 34.5t-31.5 49.5t-10.5 58t10 58.5t31 50t53.5 34.5t77.5 13q81 0 125 -47q43 -46 43 -108q0 -31 -10.5 -59.5t-31.5 -50t-52.5 -34t-73.5 -12.5zM721 2268
q-42 0 -73.5 12.5t-52.5 33.5t-31.5 49t-10.5 59q0 63 42 110t125 47q86 0 128 -47q43 -46 43 -111q0 -30 -10 -57.5t-31 -49t-53 -34t-76 -12.5z" />
    <glyph glyph-name="uni01DA" unicode="&#x1da;" horiz-adv-x="1674" 
d="M705 -20q-133 0 -249 59q-115 60 -187 193q-68 128 -68 327v977h299v-941q0 -83 24 -147t66.5 -107.5t99.5 -66t123 -22.5q83 0 164 40q82 40 141 130q55 86 56 215v899h300v-1536h-294v266h-16q-27 -62 -69 -114.5t-99.5 -90.5t-130 -59.5t-160.5 -21.5zM940 2144h-202
l-376 383v15h275l202 -218l203 218h276v-16zM1155 1734q-42 0 -74.5 13.5t-54 35.5t-33 50.5t-11.5 58.5q0 32 11 62t32.5 52.5t54 36t75.5 13.5t75.5 -13.5t54.5 -36.5t33 -52.5t11 -61.5q0 -30 -11 -58.5t-33 -50.5t-54.5 -35.5t-75.5 -13.5zM528 1738q-42 0 -74 13
t-53.5 34.5t-32 50t-10.5 59.5t11 60t32 51.5t53 36t74 13.5q86 0 129 -49q45 -48 45 -112q0 -31 -10.5 -59.5t-32 -50t-54.5 -34.5t-77 -13z" />
    <glyph glyph-name="uni01DB" unicode="&#x1db;" horiz-adv-x="2077" 
d="M1038 -34q-174 0 -322.5 49.5t-257.5 143t-171 228.5t-62 306v1355h309v-1350q-1 -110 39.5 -193.5t110.5 -140t161.5 -85.5t192.5 -29q97 0 188 27t161.5 82t113 139.5t42.5 199.5v1350h309v-1355q0 -116 -29 -214.5t-81.5 -179.5t-127 -143t-165 -104.5t-194.5 -64
t-217 -21.5zM721 2268q-43 0 -74.5 12.5t-52.5 33.5t-31.5 49t-10.5 59q0 63 42 110q44 47 125 47q85 0 129 -47q43 -46 43 -111q0 -30 -10 -57.5t-31 -49t-53 -34t-76 -12.5zM1356 2265q-85 0 -128 46t-43 109q0 64 43 110t128 46q42 0 73.5 -13t52.5 -34.5t31.5 -49.5
t10.5 -58q0 -62 -44 -109t-124 -47zM1150 2522h-192l-252 296h267z" />
    <glyph glyph-name="uni01DC" unicode="&#x1dc;" horiz-adv-x="1674" 
d="M705 -20q-133 0 -249 59q-115 60 -187 193q-68 128 -68 327v977h299v-941q0 -83 24 -147t66.5 -107.5t99.5 -66t123 -22.5q83 0 164 40q82 40 141 130q55 86 56 215v899h300v-1536h-294v266h-16q-27 -62 -69 -114.5t-99.5 -90.5t-130 -59.5t-160.5 -21.5zM1012 2125h-272
l-374 414h374zM1155 1734q-42 0 -74.5 13.5t-54.5 35.5t-33.5 50.5t-11.5 58.5q0 64 45 114t129 50q42 0 74.5 -13.5t54 -36t33 -52.5t11.5 -62q0 -30 -11 -58.5t-33 -50.5t-54 -35.5t-75 -13.5zM527 1738q-42 0 -74 13t-53.5 34.5t-32 50t-10.5 59.5t11 60t32 51.5t53 36
t74 13.5q43 0 75 -13t54 -35.5t33 -51.5t11 -61q0 -31 -10.5 -59.5t-32 -50t-54 -34.5t-76.5 -13z" />
    <glyph glyph-name="uni01DD" unicode="&#x1dd;" horiz-adv-x="1654" 
d="M812 -20q-61 0 -122.5 10t-121 31t-117 55t-109.5 82q-97 92 -153.5 239t-56.5 355v106h1092q-8 223 -126 342q-119 120 -310 120q-121 0 -214.5 -52.5t-139.5 -166.5l-283 51q25 91 79 167.5t135 131.5t187.5 85.5t238.5 30.5q118 0 217.5 -26.5t179.5 -75t141.5 -117.5
t104.5 -154q88 -176 88 -416q0 -124 -24 -230.5t-68 -194t-106 -156t-138 -116.5q-161 -101 -374 -101zM810 227q127 0 218 59q94 63 141.5 154t53.5 194h-798q2 -90 29.5 -164.5t77.5 -128.5t120 -84t158 -30z" />
    <glyph glyph-name="uni01DE" unicode="&#x1de;" horiz-adv-x="1971" 
d="M1901 0h-328l-187 542h-800l-188 -542h-328l737 2048h357zM1296 802l-302 874h-16l-302 -874h620zM1460 2862h-949v210h949v-210zM692 2289q-68 0 -123 50q-54 51 -54 124q0 76 54 126q55 49 123 49q77 0 127 -51q49 -50 49 -124q0 -33 -12.5 -64.5t-35 -55.5t-55.5 -39
t-73 -15zM1280 2289q-68 0 -123 50q-54 51 -54 124q0 76 54 126q55 49 123 49q77 0 127 -51q49 -50 49 -124q0 -33 -12.5 -64.5t-35 -55.5t-55.5 -39t-73 -15z" />
    <glyph glyph-name="uni01DF" unicode="&#x1df;" horiz-adv-x="1603" 
d="M648 -34q-102 0 -196 27.5t-165.5 84.5t-114.5 145.5t-43 210.5q0 66 13.5 119t38.5 95.5t59 75.5t76 58q84 51 187.5 75t214.5 36q125 13 200.5 23t117 24.5t55.5 37.5t15 61q0 63 -17.5 114t-53.5 86.5t-91 55t-130 19.5q-73 0 -131.5 -17.5t-103 -47t-75.5 -68.5
t-47 -81l-281 64q41 107 106 181.5t147.5 121.5t179 68t201.5 21q293 0 454 -152q142 -133 142 -384v-1020h-292v210h-12q-27 -59 -85 -114q-139 -130 -369 -130zM713 206q94 -1 167.5 28t124 77.5t76.5 112t26 130.5v198q-38 -29 -144 -48q-43 -8 -84 -14.5t-82 -11.5
l-60 -8q-189 -20 -271 -111q-44 -50 -44 -129q0 -57 22.5 -99.5t61.5 -70t92 -41t115 -13.5zM1300 2350h-949v210h949v-210zM532 1777q-68 0 -123 50q-54 51 -54 124q0 76 54 126q55 49 123 49q77 0 127 -51q49 -50 49 -124q0 -33 -12.5 -64.5t-35 -55.5t-55.5 -39t-73 -15z
M1120 1777q-68 0 -123 50q-54 51 -54 124q0 76 54 126q55 49 123 49q77 0 127 -51q49 -50 49 -124q0 -33 -12.5 -64.5t-35 -55.5t-55.5 -39t-73 -15z" />
    <glyph glyph-name="uni01E0" unicode="&#x1e0;" horiz-adv-x="1971" 
d="M1901 0h-328l-187 542h-800l-188 -542h-328l737 2048h357zM1296 802l-302 874h-16l-302 -874h620zM1459 2766h-949v200h949v-200zM986 2237q-79 0 -135 50q-54 51 -54 121q0 74 56 122q55 49 133 49q74 0 131 -48q58 -46 58 -123q0 -73 -57 -122q-55 -49 -132 -49z" />
    <glyph glyph-name="uni01E1" unicode="&#x1e1;" horiz-adv-x="1603" 
d="M648 -34q-102 0 -196 27.5t-165.5 84.5t-114.5 145.5t-43 210.5q0 66 13.5 119t38.5 95.5t59 75.5t76 58q84 51 187.5 75t214.5 36q125 13 200.5 23t117 24.5t55.5 37.5t15 61q0 63 -17.5 114t-53.5 86.5t-91 55t-130 19.5q-73 0 -131.5 -17.5t-103 -47t-75.5 -68.5
t-47 -81l-281 64q41 107 106 181.5t147.5 121.5t179 68t201.5 21q293 0 454 -152q142 -133 142 -384v-1020h-292v210h-12q-27 -59 -85 -114q-139 -130 -369 -130zM713 206q94 -1 167.5 28t124 77.5t76.5 112t26 130.5v198q-38 -29 -144 -48q-43 -8 -84 -14.5t-82 -11.5
l-60 -8q-189 -20 -271 -111q-44 -50 -44 -129q0 -57 22.5 -99.5t61.5 -70t92 -41t115 -13.5zM1302 2224h-949v200h949v-200zM829 1695q-79 0 -135 50q-54 51 -54 121q0 74 56 122q55 49 133 49q74 0 131 -48q58 -46 58 -123q0 -73 -57 -122q-55 -49 -132 -49z" />
    <glyph glyph-name="uni01E2" unicode="&#x1e2;" horiz-adv-x="2826" 
d="M2649 0h-1296v542h-698l-245 -542h-340l954 2048h1613v-266h-975v-624h908v-265h-908v-627h987v-266zM1353 802v957h-147l-433 -957h580zM2303 2350h-949v210h949v-210z" />
    <glyph glyph-name="uni01E3" unicode="&#x1e3;" horiz-adv-x="2594" 
d="M656 -34q-107 0 -203 28.5t-168.5 86.5t-115 146t-40.5 207q0 66 13.5 119t38 95.5t59 75.5t76.5 58q153 92 490 121q178 17 238 40q62 24 62 96q0 124 -71 200q-71 75 -221 75q-70 0 -128.5 -17t-104 -46.5t-77 -68.5t-47.5 -82l-281 64q41 107 106 181.5t147.5 121.5
t180 68t202.5 21q348 0 480 -231q172 231 489 231q124 0 246 -41.5t226 -136.5q96 -92 152.5 -239t56.5 -355v-106h-1093q9 -223 127 -342q118 -120 309 -120q61 0 115.5 13t100 39.5t80.5 68t58 98.5l283 -51q-26 -91 -79.5 -167t-133.5 -131t-185 -86t-233 -31
q-209 0 -356 81q-147 83 -218 220h-11q-27 -65 -81 -121t-128 -96.5t-166 -63.5t-195 -23zM713 206q94 -1 167.5 28t124 77.5t76.5 112t26 130.5v198q-38 -29 -144 -48q-43 -8 -84 -14.5t-82 -11.5l-60 -8q-189 -20 -271 -111q-44 -50 -44 -129q0 -57 22.5 -99.5t61.5 -70
t92 -41t115 -13.5zM2168 902q-2 90 -29.5 164.5t-77.5 128.5t-120 84t-158 30q-128 0 -217 -58q-94 -63 -142 -155t-54 -194h798zM1750 1838h-949v210h949v-210z" />
    <glyph glyph-name="uni01E4" unicode="&#x1e4;" horiz-adv-x="2129" 
d="M1090 -28q-144 0 -268 34t-226.5 97.5t-182.5 155t-136 205.5q-118 235 -118 559q0 252 71 447q145 385 482 532q168 74 372 74q170 1 316.5 -49t259 -140t187 -214t101.5 -272h-317q-56 183 -195 288q-140 105 -349 105q-165 0 -307 -85q-142 -84 -231 -263
q-83 -174 -83 -421q-2 -188 46 -332.5t132 -242t198.5 -147t247.5 -49.5q156 0 266.5 53.5t182.5 144.5h-402v185h497q22 72 25 156h-522v255h825v-411h125v-185h-125v-452h-238l-28 245h-10q-120 -143 -267.5 -208t-328.5 -65z" />
    <glyph glyph-name="uni01E5" unicode="&#x1e5;" horiz-adv-x="1738" 
d="M845 -605q-137 0 -246 28.5t-190 76.5t-135 110t-82 130l257 106q112 -210 399 -210q78 0 150 18.5t126 59.5t85.5 106t30.5 158v302h-19q-38 -81 -137 -165q-115 -92 -308 -92q-173 0 -319 82q-147 83 -238 257q-85 166 -85 412q0 128 22.5 235t64 193t99 151t127.5 110
q145 93 331 93q311 0 445 -269h22v249h293v-653h313v-207h-313v-710q0 -147 -53.5 -254.5t-146.5 -178t-219.5 -104.5t-273.5 -34zM842 271q90 0 159 28.5t118 81.5t78.5 127.5t40.5 167.5h-306v207h305q-11 93 -40 170t-77.5 132.5t-118 86t-159.5 30.5q-71 0 -127.5 -19
t-101 -52.5t-77 -81t-54.5 -104.5q-46 -117 -46 -267q0 -105 23.5 -197.5t72.5 -162t125.5 -109.5t184.5 -38z" />
    <glyph glyph-name="Gcaron" unicode="&#x1e6;" horiz-adv-x="2128" 
d="M1090 -28q-144 0 -268 34t-226.5 97.5t-182.5 155t-136 205.5q-118 235 -118 559q0 252 71 447q145 385 482 532q168 74 372 74q170 1 316.5 -49t259 -140t187 -214t101.5 -272h-317q-56 183 -195 288q-140 105 -349 105q-165 0 -307 -85q-142 -84 -231 -263
q-83 -174 -83 -421q-2 -188 46 -332.5t132 -242t198.5 -147t247.5 -49.5q176 0 298 69q124 70 194 187t77 283h-522v255h825v-1048h-238l-28 245h-10q-120 -143 -267.5 -208t-328.5 -65zM1197 2232h-249l-351 424v15h270l206 -268l205 268h271v-15z" />
    <glyph glyph-name="gcaron" unicode="&#x1e7;" horiz-adv-x="1738" 
d="M845 -605q-137 0 -246 28.5t-190 76.5t-135 110t-82 130l257 106q112 -210 399 -210q78 0 150 18.5t126 59.5t85.5 106t30.5 158v302h-19q-38 -81 -137 -165q-115 -92 -308 -92q-173 0 -319 82q-147 83 -238 257q-85 166 -85 412q0 128 22.5 235t64 193t99 151t127.5 110
q145 93 331 93q311 0 445 -269h22v249h293v-1570q0 -147 -53.5 -254.5t-146.5 -178t-219.5 -104.5t-273.5 -34zM842 271q102 0 177.5 37t125 103.5t74 160t24.5 206.5q0 109 -23.5 205t-72 167t-124.5 112t-181 40q-71 0 -127.5 -19t-101 -52.5t-77 -81t-54.5 -104.5
q-46 -117 -46 -267q0 -105 23.5 -197.5t72.5 -162t125.5 -109.5t184.5 -38zM988 1720h-249l-351 424v15h270l206 -268l205 268h271v-15z" />
    <glyph glyph-name="uni01E8" unicode="&#x1e8;" horiz-adv-x="1871" 
d="M1810 0h-372l-662 915l-242 -278v-637h-309v2048h309v-978h25l859 978h389l-826 -922zM1066 2232h-249l-351 424v15h270l206 -268l205 268h271v-15z" />
    <glyph glyph-name="uni01E9" unicode="&#x1e9;" horiz-adv-x="1567" 
d="M1538 0h-367l-522 694l-149 -149v-545h-299v2048h299v-1162h26l612 650h358l-622 -659zM476 2232h-249l-351 424v15h270l206 -268l205 268h271v-15z" />
    <glyph glyph-name="uni01EA" unicode="&#x1ea;" horiz-adv-x="2163" 
d="M1105 -596q-119 0 -204 65q-92 71 -98 224q0 160 143 288q-112 15 -213 54.5t-188.5 104.5t-159 155.5t-125.5 207.5q-101 225 -101 521q0 254 70 446t191 325t288.5 207t373.5 74q200 0 369 -72t292 -208t192 -331t69 -441q0 -146 -24.5 -271.5t-68.5 -231.5
t-106.5 -191.5t-138.5 -150.5q-161 -138 -370 -184q-48 -30 -89.5 -61t-71.5 -65t-47.5 -71t-17.5 -78q0 -98 102 -98q63 0 125 32l26 -190q-95 -60 -218 -60zM1082 254q167 0 308 84q141 86 228 265q80 174 80 421q0 248 -80 422q-87 179 -228 263q-140 85 -308 85
t-308 -85q-141 -84 -227 -263q-81 -173 -81 -422q0 -128 21 -234t60 -191.5t95 -149.5t125 -106q140 -89 315 -89z" />
    <glyph glyph-name="uni01EB" unicode="&#x1eb;" horiz-adv-x="1696" 
d="M880 -591q-119 0 -204 65q-92 71 -98 223q0 73 33 145t103 138q-134 24 -242 88.5t-183.5 165t-116 233.5t-40.5 294q0 124 24 231t68.5 194.5t107 155.5t139.5 115q160 99 377 99q114 0 210.5 -27t175 -76.5t139 -119t103.5 -154.5q88 -177 88 -418q0 -153 -36 -278.5
t-101 -221.5t-156 -162t-200 -99q-48 -30 -89.5 -61t-71.5 -65t-47.5 -71t-17.5 -78q0 -98 102 -98q63 0 125 32l26 -190q-95 -60 -218 -60zM849 220q106 0 183.5 43t128.5 117t76 172.5t25 209.5q0 102 -22.5 199.5t-72 174t-128 123.5t-190.5 47q-106 0 -184 -44
t-129.5 -118.5t-76.5 -173t-25 -208.5q0 -105 23 -203t73.5 -173t129 -120.5t189.5 -45.5z" />
    <glyph glyph-name="uni01EC" unicode="&#x1ec;" horiz-adv-x="2163" 
d="M1105 -596q-119 0 -204 65q-92 71 -98 224q0 160 143 288q-112 15 -213 54.5t-188.5 104.5t-159 155.5t-125.5 207.5q-101 225 -101 521q0 254 70 446t191 325t288.5 207t373.5 74q200 0 369 -72t292 -208t192 -331t69 -441q0 -146 -24.5 -271.5t-68.5 -231.5
t-106.5 -191.5t-138.5 -150.5q-161 -138 -370 -184q-48 -30 -89.5 -61t-71.5 -65t-47.5 -71t-17.5 -78q0 -98 102 -98q63 0 125 32l26 -190q-95 -60 -218 -60zM1082 254q167 0 308 84q141 86 228 265q80 174 80 421q0 248 -80 422q-87 179 -228 263q-140 85 -308 85
t-308 -85q-141 -84 -227 -263q-81 -173 -81 -422q0 -128 21 -234t60 -191.5t95 -149.5t125 -106q140 -89 315 -89zM1556 2350h-949v210h949v-210z" />
    <glyph glyph-name="uni01ED" unicode="&#x1ed;" horiz-adv-x="1696" 
d="M880 -591q-119 0 -204 65q-92 71 -98 223q0 73 33 145t103 138q-134 24 -242 88.5t-183.5 165t-116 233.5t-40.5 294q0 124 24 231t68.5 194.5t107 155.5t139.5 115q160 99 377 99q114 0 210.5 -27t175 -76.5t139 -119t103.5 -154.5q88 -177 88 -418q0 -153 -36 -278.5
t-101 -221.5t-156 -162t-200 -99q-48 -30 -89.5 -61t-71.5 -65t-47.5 -71t-17.5 -78q0 -98 102 -98q63 0 125 32l26 -190q-95 -60 -218 -60zM849 220q106 0 183.5 43t128.5 117t76 172.5t25 209.5q0 102 -22.5 199.5t-72 174t-128 123.5t-190.5 47q-106 0 -184 -44
t-129.5 -118.5t-76.5 -173t-25 -208.5q0 -105 23 -203t73.5 -173t129 -120.5t189.5 -45.5zM1323 1838h-949v210h949v-210z" />
    <glyph glyph-name="uni01EE" unicode="&#x1ee;" horiz-adv-x="1924" 
d="M949 -570q-233 0 -414 92t-288 245q-111 158 -123 365h314q18 -193 167 -312q148 -118 348 -118q83 0 154 21.5t128 60t101 92.5t73 119q62 135 62 295q0 187 -80 320q-80 132 -216 207.5t-324 75.5h-175v243l646 626v16h-1083v270h1492v-224l-705 -689v-20
q246 -20 412 -132q170 -118 257.5 -297.5t87.5 -402.5q0 -194 -62 -346t-167 -263q-104 -111 -256 -177.5t-349 -66.5zM1087 2232h-249l-351 424v15h270l206 -268l205 268h271v-15z" />
    <glyph glyph-name="uni01EF" unicode="&#x1ef;" horiz-adv-x="1794" 
d="M886 -540q-186 0 -345 64q-161 63 -267 198q-97 124 -109 300h313q18 -143 132 -219q115 -77 279 -77q82 0 157.5 20t132.5 63t90.5 109t32.5 158q0 49 -11.5 96t-36 89t-63 78t-92.5 63q-104 52 -274 52h-183v234l492 568v15h-868v265h1272v-224l-548 -628v-16
q287 -24 456 -194q169 -169 169 -408q0 -93 -25.5 -173t-71.5 -146.5t-111 -119t-144 -89.5q-165 -78 -377 -78zM1021 1720h-249l-351 424v15h270l206 -268l205 268h271v-15z" />
    <glyph glyph-name="uni01F0" unicode="&#x1f0;" horiz-adv-x="701" 
d="M16 -574h-64v258l48 -1q106 0 153.5 56.5t47.5 164.5v1632h299v-1634q0 -110 -29 -198t-89 -150t-151 -95t-215 -33zM473 1720h-249l-351 424v15h270l206 -268l205 268h271v-15z" />
    <glyph glyph-name="uni01F1" unicode="&#x1f1;" horiz-adv-x="3831" 
d="M888 0h-663v2048h684q408 0 656 -221q308 -275 308 -800q1 -245 -67 -436t-195.5 -322.5t-310.5 -200.5t-412 -68zM871 270q350 0 524 196t174 561q0 221 -70 391q-69 170 -224 268q-151 92 -385 92h-356v-1508h337zM3668 0h-1464v206l1077 1576h-1086v266h1464v-206
l-1077 -1576h1086v-266z" />
    <glyph glyph-name="uni01F2" unicode="&#x1f2;" horiz-adv-x="3585" 
d="M888 0h-663v2048h684q408 0 656 -221q308 -275 308 -800q1 -245 -67 -436t-195.5 -322.5t-310.5 -200.5t-412 -68zM871 270q350 0 524 196t174 561q0 221 -70 391q-69 170 -224 268q-151 92 -385 92h-356v-1508h337zM3434 0h-1233v205l832 1057v14h-805v260h1178v-218
l-800 -1044v-14h828v-260z" />
    <glyph glyph-name="uni01F4" unicode="&#x1f4;" horiz-adv-x="2128" 
d="M1090 -28q-144 0 -268 34t-226.5 97.5t-182.5 155t-136 205.5q-118 235 -118 559q0 252 71 447q145 385 482 532q168 74 372 74q170 1 316.5 -49t259 -140t187 -214t101.5 -272h-317q-56 183 -195 288q-140 105 -349 105q-165 0 -307 -85q-142 -84 -231 -263
q-83 -174 -83 -421q-2 -188 46 -332.5t132 -242t198.5 -147t247.5 -49.5q176 0 298 69q124 70 194 187t77 283h-522v255h825v-1048h-238l-28 245h-10q-120 -143 -267.5 -208t-328.5 -65zM1189 2253h-239l233 461h315z" />
    <glyph glyph-name="uni01F5" unicode="&#x1f5;" horiz-adv-x="1738" 
d="M845 -605q-137 0 -246 28.5t-190 76.5t-135 110t-82 130l257 106q112 -210 399 -210q78 0 150 18.5t126 59.5t85.5 106t30.5 158v302h-19q-38 -81 -137 -165q-115 -92 -308 -92q-173 0 -319 82q-147 83 -238 257q-85 166 -85 412q0 128 22.5 235t64 193t99 151t127.5 110
q145 93 331 93q311 0 445 -269h22v249h293v-1570q0 -147 -53.5 -254.5t-146.5 -178t-219.5 -104.5t-273.5 -34zM842 271q102 0 177.5 37t125 103.5t74 160t24.5 206.5q0 109 -23.5 205t-72 167t-124.5 112t-181 40q-71 0 -127.5 -19t-101 -52.5t-77 -81t-54.5 -104.5
q-46 -117 -46 -267q0 -105 23.5 -197.5t72.5 -162t125.5 -109.5t184.5 -38zM980 1741h-239l233 461h315z" />
    <glyph glyph-name="uni01F6" unicode="&#x1f6;" horiz-adv-x="3145" 
d="M2254 -28q-200 0 -359 75q-159 76 -252 237q-88 154 -88 378v231h-1021v-893h-309v2048h309v-890h1021v890h310v-1386q0 -106 26.5 -184.5t76.5 -130t122 -76.5t164 -25q380 0 380 416v860h310v-860q0 -119 -23 -215t-65.5 -172t-103 -132t-136.5 -93q-156 -78 -362 -78z
" />
    <glyph glyph-name="uni01F7" unicode="&#x1f7;" horiz-adv-x="1886" 
d="M519 -572h-337v2576h337v-51q148 79 358 79q242 0 431 -92t295 -288q102 -192 103 -472v-72q-8 -331 -158 -592q-81 -138 -188 -253.5t-237.5 -207.5t-282 -160.5t-321.5 -111.5v-355zM519 59q289 91 477 258q188 166 280 375q92 210 92 416v76q0 140 -27 247.5
t-86.5 181t-152.5 111t-225 37.5q-239 0 -358 -161v-1541z" />
    <glyph glyph-name="uni01F8" unicode="&#x1f8;" horiz-adv-x="2103" 
d="M1878 0h-284l-1041 1502h-19v-1502h-309v2048h286l1042 -1504h19v1504h306v-2048zM1175 2253h-239l-309 461h315z" />
    <glyph glyph-name="uni01F9" unicode="&#x1f9;" horiz-adv-x="1682" 
d="M1483 0h-299v941q0 88 -24.5 155t-68 111.5t-103 67t-130.5 22.5q-73 0 -138 -23t-114 -70t-77.5 -120t-28.5 -172v-912h-299v1536h287v-250h19q27 62 68.5 112t98 85t128 54t158.5 19q108 -1 203.5 -34t167 -103t112.5 -179.5t40 -262.5v-977zM964 1741h-239l-309 461
h315z" />
    <glyph glyph-name="Aringacute" unicode="&#x1fa;" horiz-adv-x="1971" 
d="M1901 0h-328l-187 542h-800l-188 -542h-328l737 2048h357zM1296 802l-302 874h-16l-302 -874h620zM986 2158q-47 0 -90.5 17.5t-77.5 48.5t-54 74t-20 95t20 95t54 74t77.5 48.5t90.5 17.5q54 0 98 -19t76 -51.5t49.5 -75t17.5 -89.5t-17.5 -90t-49.5 -75t-76 -51
t-98 -19zM1070 2702h-199l224 262h306zM986 2297q23 0 41 8t30.5 21.5t19 31t6.5 35.5q0 17 -6.5 33.5t-19 29.5t-30.5 21t-41 8q-44 0 -71 -29q-26 -29 -26 -63q0 -19 7 -36.5t20 -30.5t31 -21t39 -8z" />
    <glyph glyph-name="aringacute" unicode="&#x1fb;" horiz-adv-x="1603" 
d="M648 -34q-102 0 -196 27.5t-165.5 84.5t-114.5 145.5t-43 210.5q0 66 13.5 119t38.5 95.5t59 75.5t76 58q84 51 187.5 75t214.5 36q125 13 200.5 23t117 24.5t55.5 37.5t15 61q0 63 -17.5 114t-53.5 86.5t-91 55t-130 19.5q-73 0 -131.5 -17.5t-103 -47t-75.5 -68.5
t-47 -81l-281 64q41 107 106 181.5t147.5 121.5t179 68t201.5 21q293 0 454 -152q142 -133 142 -384v-1020h-292v210h-12q-27 -59 -85 -114q-139 -130 -369 -130zM713 206q94 -1 167.5 28t124 77.5t76.5 112t26 130.5v198q-38 -29 -144 -48q-43 -8 -84 -14.5t-82 -11.5
l-60 -8q-189 -20 -271 -111q-44 -50 -44 -129q0 -57 22.5 -99.5t61.5 -70t92 -41t115 -13.5zM826 1646q-47 0 -90.5 17.5t-77.5 48.5t-54 74t-20 95t20 95t54 74t77.5 48.5t90.5 17.5q54 0 98 -19t76 -51.5t49.5 -75t17.5 -89.5t-17.5 -90t-49.5 -75t-76 -51t-98 -19z
M910 2190h-199l224 262h306zM826 1785q23 0 41 8t30.5 21.5t19 31t6.5 35.5q0 17 -6.5 33.5t-19 29.5t-30.5 21t-41 8q-44 0 -71 -29q-26 -29 -26 -63q0 -19 7 -36.5t20 -30.5t31 -21t39 -8z" />
    <glyph glyph-name="AEacute" unicode="&#x1fc;" horiz-adv-x="2826" 
d="M2649 0h-1296v542h-698l-245 -542h-340l954 2048h1613v-266h-975v-624h908v-265h-908v-627h987v-266zM1353 802v957h-147l-433 -957h580zM1944 2253h-239l233 461h315z" />
    <glyph glyph-name="aeacute" unicode="&#x1fd;" horiz-adv-x="2594" 
d="M656 -34q-107 0 -203 28.5t-168.5 86.5t-115 146t-40.5 207q0 66 13.5 119t38 95.5t59 75.5t76.5 58q153 92 490 121q178 17 238 40q62 24 62 96q0 124 -71 200q-71 75 -221 75q-70 0 -128.5 -17t-104 -46.5t-77 -68.5t-47.5 -82l-281 64q41 107 106 181.5t147.5 121.5
t180 68t202.5 21q348 0 480 -231q172 231 489 231q124 0 246 -41.5t226 -136.5q96 -92 152.5 -239t56.5 -355v-106h-1093q9 -223 127 -342q118 -120 309 -120q61 0 115.5 13t100 39.5t80.5 68t58 98.5l283 -51q-26 -91 -79.5 -167t-133.5 -131t-185 -86t-233 -31
q-209 0 -356 81q-147 83 -218 220h-11q-27 -65 -81 -121t-128 -96.5t-166 -63.5t-195 -23zM713 206q94 -1 167.5 28t124 77.5t76.5 112t26 130.5v198q-38 -29 -144 -48q-43 -8 -84 -14.5t-82 -11.5l-60 -8q-189 -20 -271 -111q-44 -50 -44 -129q0 -57 22.5 -99.5t61.5 -70
t92 -41t115 -13.5zM2168 902q-2 90 -29.5 164.5t-77.5 128.5t-120 84t-158 30q-128 0 -217 -58q-94 -63 -142 -155t-54 -194h798zM1391 1741h-239l233 461h315z" />
    <glyph glyph-name="Oslashacute" unicode="&#x1fe;" horiz-adv-x="2163" 
d="M442 -89l-166 114l151 221q-124 133 -196 327.5t-72 450.5q0 254 70 446q144 386 480 532q168 74 373 74q279 0 497 -141l135 198l167 -114l-147 -215q125 -132 197.5 -327t72.5 -453q0 -254 -70 -446q-142 -385 -478 -532q-168 -74 -374 -74q-281 0 -501 143zM1082 254
q167 0 308 84q141 86 228 265q80 174 80 421q0 326 -139 523l-813 -1191q147 -102 336 -102zM603 504l812 1190q-146 100 -333 100q-168 0 -308 -85q-141 -84 -227 -263q-81 -173 -81 -422q0 -324 137 -520zM1198 2253h-239l233 461h315z" />
    <glyph glyph-name="oslashacute" unicode="&#x1ff;" horiz-adv-x="1698" 
d="M390 -89l-167 114l108 158q-91 97 -145 240.5t-54 336.5q-2 182 50.5 329.5t147.5 251t227 159.5t291 55q204 0 358 -88l100 146l167 -114l-108 -158q94 -100 146.5 -244t52.5 -337q0 -124 -24 -230t-68 -193.5t-106.5 -155t-139.5 -114.5q-161 -99 -378 -99
q-205 0 -359 88zM849 219q106 0 183.5 43t128.5 117t76 172.5t25 209.5q0 182 -69 328l-553 -812q85 -58 209 -58zM503 435l553 812q-83 58 -207 58q-106 0 -184 -44t-129.5 -118.5t-76.5 -173t-25 -208.5q0 -188 69 -326zM964 1740h-239l233 461h315z" />
    <glyph glyph-name="uni0200" unicode="&#x200;" horiz-adv-x="1971" 
d="M1901 0h-328l-187 542h-800l-188 -542h-328l737 2048h357zM1296 802l-302 874h-16l-302 -874h620zM943 2250h-281l-417 364h359zM1348 2250h-260l-339 364h338z" />
    <glyph glyph-name="uni0201" unicode="&#x201;" horiz-adv-x="1603" 
d="M648 -34q-102 0 -196 27.5t-165.5 84.5t-114.5 145.5t-43 210.5q0 66 13.5 119t38.5 95.5t59 75.5t76 58q84 51 187.5 75t214.5 36q125 13 200.5 23t117 24.5t55.5 37.5t15 61q0 63 -17.5 114t-53.5 86.5t-91 55t-130 19.5q-73 0 -131.5 -17.5t-103 -47t-75.5 -68.5
t-47 -81l-281 64q41 107 106 181.5t147.5 121.5t179 68t201.5 21q293 0 454 -152q142 -133 142 -384v-1020h-292v210h-12q-27 -59 -85 -114q-139 -130 -369 -130zM713 206q94 -1 167.5 28t124 77.5t76.5 112t26 130.5v198q-38 -29 -144 -48q-43 -8 -84 -14.5t-82 -11.5
l-60 -8q-189 -20 -271 -111q-44 -50 -44 -129q0 -57 22.5 -99.5t61.5 -70t92 -41t115 -13.5zM783 1738h-281l-417 364h359zM1188 1738h-260l-339 364h338z" />
    <glyph glyph-name="uni0202" unicode="&#x202;" horiz-adv-x="1971" 
d="M1901 0h-328l-187 542h-800l-188 -542h-328l737 2048h357zM1296 802l-302 874h-16l-302 -874h620zM1428 2288h-246q0 39 -10.5 73.5t-33.5 61t-60 42t-90 15.5q-54 0 -92 -16t-61 -42.5t-33.5 -61.5t-10.5 -72h-246q0 171 120 278q121 108 323 108q107 0 189 -30
t137.5 -82.5t84 -122.5t29.5 -151z" />
    <glyph glyph-name="uni0203" unicode="&#x203;" horiz-adv-x="1603" 
d="M648 -34q-102 0 -196 27.5t-165.5 84.5t-114.5 145.5t-43 210.5q0 66 13.5 119t38.5 95.5t59 75.5t76 58q84 51 187.5 75t214.5 36q125 13 200.5 23t117 24.5t55.5 37.5t15 61q0 63 -17.5 114t-53.5 86.5t-91 55t-130 19.5q-73 0 -131.5 -17.5t-103 -47t-75.5 -68.5
t-47 -81l-281 64q41 107 106 181.5t147.5 121.5t179 68t201.5 21q293 0 454 -152q142 -133 142 -384v-1020h-292v210h-12q-27 -59 -85 -114q-139 -130 -369 -130zM713 206q94 -1 167.5 28t124 77.5t76.5 112t26 130.5v198q-38 -29 -144 -48q-43 -8 -84 -14.5t-82 -11.5
l-60 -8q-189 -20 -271 -111q-44 -50 -44 -129q0 -57 22.5 -99.5t61.5 -70t92 -41t115 -13.5zM1268 1776h-246q0 39 -10.5 73.5t-33.5 61t-60 42t-90 15.5q-54 0 -92 -16t-61 -42.5t-33.5 -61.5t-10.5 -72h-246q0 171 120 278q121 108 323 108q107 0 189 -30t137.5 -82.5
t84 -122.5t29.5 -151z" />
    <glyph glyph-name="uni0204" unicode="&#x204;" horiz-adv-x="1698" 
d="M1521 0h-1296v2048h1284v-266h-975v-624h908v-265h-908v-627h987v-266zM823 2250h-281l-417 364h359zM1228 2250h-260l-339 364h338z" />
    <glyph glyph-name="uni0205" unicode="&#x205;" horiz-adv-x="1654" 
d="M863 -31q-234 0 -395 100q-162 100 -247 274q-89 178 -89 415q0 247 91 423t246 274q160 101 373 101q125 0 246.5 -40.5t222.5 -133.5q211 -201 211 -598v-106h-1092q6 -117 40.5 -204t91.5 -144t134.5 -85.5t169.5 -28.5q61 0 115.5 13t100 39.5t80.5 68t58 98.5
l283 -51q-26 -92 -79.5 -168t-134.5 -131t-187.5 -85.5t-238.5 -30.5zM1229 902q-2 90 -29.5 164.5t-77.5 128.5t-120 84t-158 30q-64 0 -118 -15.5t-98.5 -43t-79 -65t-58.5 -80.5q-26 -46 -40.5 -96.5t-18.5 -106.5h798zM787 1738h-281l-417 364h359zM1192 1738h-260
l-339 364h338z" />
    <glyph glyph-name="uni0206" unicode="&#x206;" horiz-adv-x="1698" 
d="M1521 0h-1296v2048h1284v-266h-975v-624h908v-265h-908v-627h987v-266zM1309 2288h-246q0 39 -10.5 73.5t-33.5 61t-60 42t-90 15.5q-54 0 -92 -16t-61 -42.5t-33.5 -61.5t-10.5 -72h-246q0 171 120 278q121 108 323 108q107 0 189 -30t137.5 -82.5t84 -122.5t29.5 -151z
" />
    <glyph glyph-name="uni0207" unicode="&#x207;" horiz-adv-x="1654" 
d="M863 -31q-234 0 -395 100q-162 100 -247 274q-89 178 -89 415q0 247 91 423t246 274q160 101 373 101q125 0 246.5 -40.5t222.5 -133.5q211 -201 211 -598v-106h-1092q6 -117 40.5 -204t91.5 -144t134.5 -85.5t169.5 -28.5q61 0 115.5 13t100 39.5t80.5 68t58 98.5
l283 -51q-26 -92 -79.5 -168t-134.5 -131t-187.5 -85.5t-238.5 -30.5zM1229 902q-2 90 -29.5 164.5t-77.5 128.5t-120 84t-158 30q-64 0 -118 -15.5t-98.5 -43t-79 -65t-58.5 -80.5q-26 -46 -40.5 -96.5t-18.5 -106.5h798zM1273 1776h-246q0 39 -10.5 73.5t-33.5 61t-60 42
t-90 15.5q-54 0 -92 -16t-61 -42.5t-33.5 -61.5t-10.5 -72h-246q0 171 120 278q121 108 323 108q107 0 189 -30t137.5 -82.5t84 -122.5t29.5 -151z" />
    <glyph glyph-name="uni0208" unicode="&#x208;" horiz-adv-x="1282" 
d="M1158 0h-1034v266h363v1516h-363v266h1034v-266h-362v-1516h362v-266zM599 2250h-281l-417 364h359zM1004 2250h-260l-339 364h338z" />
    <glyph glyph-name="uni0209" unicode="&#x209;" horiz-adv-x="701" 
d="M500 0h-299v1536h299v-1536zM309 1738h-281l-417 364h359zM714 1738h-260l-339 364h338z" />
    <glyph glyph-name="uni020A" unicode="&#x20a;" horiz-adv-x="1282" 
d="M1158 0h-1034v266h363v1516h-363v266h1034v-266h-362v-1516h362v-266zM1084 2288h-246q0 39 -10.5 73.5t-33.5 61t-60 42t-90 15.5q-54 0 -92 -16t-61 -42.5t-33.5 -61.5t-10.5 -72h-246q0 171 120 278q121 108 323 108q107 0 189 -30t137.5 -82.5t84 -122.5t29.5 -151z
" />
    <glyph glyph-name="uni020B" unicode="&#x20b;" horiz-adv-x="701" 
d="M500 0h-299v1536h299v-1536zM795 1776h-246q0 39 -10.5 73.5t-33.5 61t-60 42t-90 15.5q-54 0 -92 -16t-61 -42.5t-33.5 -61.5t-10.5 -72h-246q0 171 120 278q122 108 323 108q107 0 189 -30t137.5 -82.5t84 -122.5t29.5 -151z" />
    <glyph glyph-name="uni020C" unicode="&#x20c;" horiz-adv-x="2163" 
d="M1082 -28q-279 0 -484 130q-204 130 -320 361q-119 236 -119 561q0 254 70 446q144 386 480 532q168 74 373 74q201 1 370.5 -72t293 -210t192 -332t66.5 -438q0 -254 -70 -446q-142 -385 -478 -532q-168 -74 -374 -74zM1082 254q167 0 308 84q141 86 228 265
q80 174 80 421q0 248 -80 422q-87 179 -228 263q-140 85 -308 85t-308 -85q-141 -84 -227 -263q-81 -173 -81 -422q0 -128 21 -234t60 -191.5t95 -149.5t125 -106q140 -89 315 -89zM1039 2250h-281l-417 364h359zM1444 2250h-260l-339 364h338z" />
    <glyph glyph-name="uni020D" unicode="&#x20d;" horiz-adv-x="1696" 
d="M848 -31q-113 0 -209 26.5t-174.5 76t-139.5 119t-104 155.5q-89 180 -89 415q-2 182 50.5 329.5t147.5 251t227 159.5t291 55q113 0 209 -26.5t175 -76t139.5 -119t103.5 -155.5q89 -180 89 -418q0 -124 -24 -230t-68 -193.5t-106.5 -155t-139.5 -114.5
q-161 -99 -378 -99zM849 220q106 0 183.5 43t128.5 117t76 172.5t25 209.5q0 102 -22.5 199.5t-72 174t-128 123.5t-190.5 47q-106 0 -184 -44t-129.5 -118.5t-76.5 -173t-25 -208.5q0 -105 23 -203t73.5 -173t129 -120.5t189.5 -45.5zM805 1738h-281l-417 364h359z
M1210 1738h-260l-339 364h338z" />
    <glyph glyph-name="uni020E" unicode="&#x20e;" horiz-adv-x="2163" 
d="M1082 -28q-279 0 -484 130q-204 130 -320 361q-119 236 -119 561q0 254 70 446q144 386 480 532q168 74 373 74q201 1 370.5 -72t293 -210t192 -332t66.5 -438q0 -254 -70 -446q-142 -385 -478 -532q-168 -74 -374 -74zM1082 254q167 0 308 84q141 86 228 265
q80 174 80 421q0 248 -80 422q-87 179 -228 263q-140 85 -308 85t-308 -85q-141 -84 -227 -263q-81 -173 -81 -422q0 -128 21 -234t60 -191.5t95 -149.5t125 -106q140 -89 315 -89zM1524 2288h-246q0 39 -10.5 73.5t-33.5 61t-60 42t-90 15.5q-54 0 -92 -16t-61 -42.5
t-33.5 -61.5t-10.5 -72h-246q0 171 120 278q121 108 323 108q107 0 189 -30t137.5 -82.5t84 -122.5t29.5 -151z" />
    <glyph glyph-name="uni020F" unicode="&#x20f;" horiz-adv-x="1696" 
d="M848 -31q-113 0 -209 26.5t-174.5 76t-139.5 119t-104 155.5q-89 180 -89 415q-2 182 50.5 329.5t147.5 251t227 159.5t291 55q113 0 209 -26.5t175 -76t139.5 -119t103.5 -155.5q89 -180 89 -418q0 -124 -24 -230t-68 -193.5t-106.5 -155t-139.5 -114.5
q-161 -99 -378 -99zM849 220q106 0 183.5 43t128.5 117t76 172.5t25 209.5q0 102 -22.5 199.5t-72 174t-128 123.5t-190.5 47q-106 0 -184 -44t-129.5 -118.5t-76.5 -173t-25 -208.5q0 -105 23 -203t73.5 -173t129 -120.5t189.5 -45.5zM1291 1776h-246q0 39 -10.5 73.5
t-33.5 61t-60 42t-90 15.5q-54 0 -92 -16t-61 -42.5t-33.5 -61.5t-10.5 -72h-246q0 171 120 278q121 108 323 108q107 0 189 -30t137.5 -82.5t84 -122.5t29.5 -151z" />
    <glyph glyph-name="uni0210" unicode="&#x210;" horiz-adv-x="1816" 
d="M1742 0h-352l-416 775h-440v-775h-309v2048h730q238 0 395 -82q164 -89 239 -234q75 -146 75 -326q0 -98 -21.5 -185.5t-67 -161.5t-116.5 -132.5t-171 -97.5zM926 1041q427 0 427 365q0 377 -431 377h-388v-742h392zM853 2250h-281l-417 364h359zM1258 2250h-260
l-339 364h338z" />
    <glyph glyph-name="uni0211" unicode="&#x211;" horiz-adv-x="1082" 
d="M500 0h-299v1536h289v-244h16q55 138 160 202q107 65 230 65q35 0 66.5 -1.5t60.5 -5.5v-286q-21 6 -63 12t-93 6q-159 0 -263 -98t-104 -248v-938zM554 1738h-281l-417 364h359zM959 1738h-260l-339 364h338z" />
    <glyph glyph-name="uni0212" unicode="&#x212;" horiz-adv-x="1816" 
d="M1742 0h-352l-416 775h-440v-775h-309v2048h730q238 0 395 -82q164 -89 239 -234q75 -146 75 -326q0 -98 -21.5 -185.5t-67 -161.5t-116.5 -132.5t-171 -97.5zM926 1041q427 0 427 365q0 377 -431 377h-388v-742h392zM1339 2288h-246q0 39 -10.5 73.5t-33.5 61t-60 42
t-90 15.5q-54 0 -92 -16t-61 -42.5t-33.5 -61.5t-10.5 -72h-246q0 171 120 278q121 108 323 108q107 0 189 -30t137.5 -82.5t84 -122.5t29.5 -151z" />
    <glyph glyph-name="uni0213" unicode="&#x213;" horiz-adv-x="1097" 
d="M500 0h-299v1536h289v-244h16q55 138 160 202q107 65 230 65q35 0 66.5 -1.5t60.5 -5.5v-286q-21 6 -63 12t-93 6q-159 0 -263 -98t-104 -248v-938zM1065 1776h-246q0 39 -10.5 73.5t-33.5 61t-60 42t-90 15.5q-54 0 -92 -16t-61 -42.5t-33.5 -61.5t-10.5 -72h-246
q0 171 120 278q121 108 323 108q107 0 189 -30t137.5 -82.5t84 -122.5t29.5 -151z" />
    <glyph glyph-name="uni0214" unicode="&#x214;" horiz-adv-x="2077" 
d="M1038 -34q-174 0 -322.5 49.5t-257.5 143t-171 228.5t-62 306v1355h309v-1350q-1 -110 39.5 -193.5t110.5 -140t161.5 -85.5t192.5 -29q97 0 188 27t161.5 82t113 139.5t42.5 199.5v1350h309v-1355q0 -116 -29 -214.5t-81.5 -179.5t-127 -143t-165 -104.5t-194.5 -64
t-217 -21.5zM995 2250h-281l-417 364h359zM1400 2250h-260l-339 364h338z" />
    <glyph glyph-name="uni0215" unicode="&#x215;" horiz-adv-x="1674" 
d="M705 -20q-133 0 -249 59q-115 60 -187 193q-68 128 -68 327v977h299v-941q0 -83 24 -147t66.5 -107.5t99.5 -66t123 -22.5q83 0 164 40q82 40 141 130q55 86 56 215v899h300v-1536h-294v266h-16q-27 -62 -69 -114.5t-99.5 -90.5t-130 -59.5t-160.5 -21.5zM796 1738h-281
l-417 364h359zM1201 1738h-260l-339 364h338z" />
    <glyph glyph-name="uni0216" unicode="&#x216;" horiz-adv-x="2077" 
d="M1038 -34q-174 0 -322.5 49.5t-257.5 143t-171 228.5t-62 306v1355h309v-1350q-1 -110 39.5 -193.5t110.5 -140t161.5 -85.5t192.5 -29q97 0 188 27t161.5 82t113 139.5t42.5 199.5v1350h309v-1355q0 -116 -29 -214.5t-81.5 -179.5t-127 -143t-165 -104.5t-194.5 -64
t-217 -21.5zM1481 2288h-246q0 39 -10.5 73.5t-33.5 61t-60 42t-90 15.5q-54 0 -92 -16t-61 -42.5t-33.5 -61.5t-10.5 -72h-246q0 171 120 278q121 108 323 108q107 0 189 -30t137.5 -82.5t84 -122.5t29.5 -151z" />
    <glyph glyph-name="uni0217" unicode="&#x217;" horiz-adv-x="1674" 
d="M705 -20q-133 0 -249 59q-115 60 -187 193q-68 128 -68 327v977h299v-941q0 -83 24 -147t66.5 -107.5t99.5 -66t123 -22.5q83 0 164 40q82 40 141 130q55 86 56 215v899h300v-1536h-294v266h-16q-27 -62 -69 -114.5t-99.5 -90.5t-130 -59.5t-160.5 -21.5zM1282 1776h-246
q0 39 -10.5 73.5t-33.5 61t-60 42t-90 15.5q-54 0 -92 -16t-61 -42.5t-33.5 -61.5t-10.5 -72h-246q0 171 120 278q121 108 323 108q107 0 189 -30t137.5 -82.5t84 -122.5t29.5 -151z" />
    <glyph glyph-name="uni0218" unicode="&#x218;" horiz-adv-x="1812" 
d="M910 -34q-344 0 -546 159q-202 160 -220 441h310q9 -87 47.5 -149t99.5 -102t139.5 -58.5t167.5 -19.5q203 0 328 91q126 91 126 241q0 68 -30 117.5t-82.5 86t-123.5 62t-152 46.5l-242 66q-533 141 -533 541q0 92 26 171t73 144t112.5 115t145.5 85q162 73 369 73
q217 0 375 -75q166 -81 250.5 -208.5t89.5 -282.5h-298q-23 150 -140 224q-116 75 -284 75q-99 0 -176 -24.5t-129 -65.5t-79 -96.5t-27 -116.5q5 -174 205 -256q43 -18 84 -32t83 -24l200 -52q226 -51 392 -173q197 -149 197 -403q0 -163 -86 -302q-87 -138 -262 -220
q-170 -78 -410 -78zM872 -867l-209 61q120 259 120 488v164h260v-153q0 -139 -40 -283q-20 -73 -52.5 -142t-78.5 -135z" />
    <glyph glyph-name="uni0219" unicode="&#x219;" horiz-adv-x="1509" 
d="M754 -31q-250 0 -414 106q-164 107 -207 319l289 44q30 -118 116.5 -173t213.5 -55q77 0 137 17.5t101.5 46.5t63 67.5t21.5 80.5q0 146 -217 195l-260 57q-420 94 -420 427q0 72 21 133t59 111t90.5 88.5t116.5 65.5q133 57 306 57q124 0 222 -28t170 -79.5t119 -124.5
t70 -163l-271 -48q-11 39 -34.5 76t-61 66t-90 46.5t-121.5 17.5q-121 0 -207 -53q-90 -57 -90 -158q0 -141 241 -192l244 -56q219 -50 319.5 -154.5t100.5 -261.5q0 -147 -82 -251q-83 -104 -218 -162q-144 -62 -328 -62zM730 -838l-209 61q120 259 120 488v164h260v-153
q0 -139 -40 -283q-20 -73 -52.5 -142t-78.5 -135z" />
    <glyph glyph-name="uni021A" unicode="&#x21a;" horiz-adv-x="1833" 
d="M1070 0h-308v1782h-638v266h1585v-266h-639v-1782zM878 -838l-209 61q120 259 120 488v164h260v-153q0 -139 -40 -283q-20 -73 -52.5 -142t-78.5 -135z" />
    <glyph glyph-name="uni021B" unicode="&#x21b;" horiz-adv-x="1047" 
d="M752 -20q-127 0 -221 42q-100 42 -161.5 132.5t-65.5 234.5v907h-225v240h225v368h299v-368h315v-240h-315v-845q0 -64 15 -104t40.5 -62.5t59 -30.5t69.5 -8q54 0 105 13l54 -247q-78 -29 -194 -32zM508 -838l-209 61q120 259 120 488v164h260v-153q0 -139 -40 -283
q-20 -73 -52.5 -142t-78.5 -135z" />
    <glyph glyph-name="uni021C" unicode="&#x21c;" horiz-adv-x="1813" 
d="M311 -600v267q236 47 420.5 113.5t311 161.5t192 222.5t65.5 297.5q0 129 -29 206t-89 117q-340 -222 -871 -350v247q325 94 540 198q210 100 316 236t106 328q0 60 -21 117.5t-68 102t-123 71t-185 25.5q-67 0 -132.5 -18.5t-117.5 -55t-83.5 -91t-29.5 -125.5h-335
q0 89 26.5 165t73.5 138.5t112 110.5t142.5 80.5t165 49.5t178.5 17q204 0 371 -60t269 -197q90 -128 90 -314q0 -286 -222 -509q120 -67 187 -189t67 -305q0 -241 -99 -416q-266 -474 -1228 -641z" />
    <glyph glyph-name="uni021D" unicode="&#x21d;" horiz-adv-x="1554" 
d="M313 -600v247q172 45 309.5 97t233.5 124t147 169t51 232q-3 159 -73 250q-276 -170 -668 -256v237q303 78 486 194q227 147 227 366q0 40 -13 77t-42.5 65.5t-78 45.5t-118.5 17q-110 0 -190 -53q-79 -53 -83 -145h-322q-2 105 45 188t128 141.5t188 89t226 30.5
q129 0 236.5 -26.5t185 -80.5t120 -136t42.5 -193q0 -227 -175 -405q203 -141 203 -416q0 -187 -71 -330.5t-207.5 -248t-334.5 -173.5t-452 -107z" />
    <glyph glyph-name="uni021E" unicode="&#x21e;" horiz-adv-x="2090" 
d="M1865 0h-310v893h-1021v-893h-309v2048h309v-890h1021v890h310v-2048zM1177 2235h-249l-351 424v15h270l206 -268l205 268h271v-15z" />
    <glyph glyph-name="uni021F" unicode="&#x21f;" horiz-adv-x="1695" 
d="M1496 0h-299v941q0 90 -24.5 157t-68 111t-104 66t-132.5 22q-75 0 -141.5 -23t-117 -70.5t-80 -120t-29.5 -171.5v-912h-299v2048h295v-762h19q53 126 164.5 198t290.5 72q235 0 373 -135q153 -149 153 -444v-977zM475 2232h-249l-351 424v15h270l206 -268l205 268h271
v-15z" />
    <glyph glyph-name="uni0220" unicode="&#x220;" horiz-adv-x="1814" 
d="M1646 -572h-326v1947q0 100 -27.5 174t-80 122.5t-128.5 72.5t-172 24q-237 0 -418 -111v-1657h-321v2004h321v-83q195 111 434 111q181 0 346 -71q164 -71 271 -223q98 -146 101 -363v-1947z" />
    <glyph glyph-name="uni0221" unicode="&#x221;" horiz-adv-x="2023" 
d="M1707 -576q-83 0 -150.5 16.5t-120.5 47.5t-91 74t-62 96l-209 -196l-164 189l327 309v279h-15q-53 -105 -139 -173q-119 -96 -305 -96q-85 0 -165.5 21t-152 66t-133 114.5t-108.5 167.5q-83 180 -83 426q0 130 22.5 238.5t64 195.5t99 152.5t127.5 110.5q145 94 331 94
q195 0 308 -98q83 -74 134 -171h18v761h299v-1915q87 25 177 25q191 0 310 -102q119 -101 119 -270q0 -75 -26.5 -141t-80.5 -115t-136.5 -77.5t-194.5 -28.5zM844 225q98 0 173 40t125.5 111.5t76.5 171.5t26 220q0 122 -26 221t-77 168.5t-126 107t-172 37.5
q-101 1 -177 -40t-127 -113.5t-76.5 -170.5t-25.5 -210q0 -109 23.5 -207.5t73 -173t126 -118.5t183.5 -44zM1710 -355q71 0 110 43q40 41 40 101q0 56 -34 96q-40 45 -131 50q-82 0 -158 -51v-49q0 -47 14 -82.5t38 -59.5t55 -36t66 -12z" />
    <glyph glyph-name="uni0222" unicode="&#x222;" horiz-adv-x="1814" 
d="M923 -28q-202 0 -334 40q-106 30 -192 82.5t-147 127.5t-94 172t-33 216q0 176 71.5 299.5t194.5 198.5q-266 128 -266 422q0 167 75 277q42 58 95.5 100t115.5 69t132.5 40.5t146.5 15.5v-256q-112 -25 -171 -80q-57 -53 -57 -166q-1 -80 32 -131.5t91 -82.5t135 -43.5
t164 -12.5q44 0 80.5 1t65.5 3t59 7t60 12q208 49 208 247q0 114 -58 166q-59 55 -171 80v256q247 -8 398 -123q168 -129 168 -379q0 -295 -267 -422q123 -75 194 -197.5t71 -296.5q0 -161 -58.5 -281t-161.5 -200.5t-243.5 -120.5t-303.5 -40zM923 245q199 0 313 90
q115 91 118 279q-3 97 -35 167t-88.5 115.5t-134.5 67t-173 21.5q-169 0 -259 -42q-204 -86 -204 -333q0 -93 30.5 -161.5t86.5 -114t136 -67.5t179 -22h31z" />
    <glyph glyph-name="uni0223" unicode="&#x223;" horiz-adv-x="1813" 
d="M922 -28q-372 0 -577 159q-103 79 -159.5 197.5t-56.5 278.5q0 89 18.5 164t53.5 137.5t85 111.5t113 85q-270 139 -270 467q0 135 42 239t116.5 176t176.5 110.5t223 42.5v-243q-110 -40 -173 -116q-60 -74 -60 -211q0 -64 15 -113.5t42.5 -86t67 -61t87.5 -38.5
q65 -20 122 -24q29 -2 64.5 -3.5t78.5 -1.5q90 1 168.5 16t137 52t92 100t32.5 160q0 137 -62 211q-63 76 -173 116v243q112 -3 213.5 -38.5t178 -105.5t121.5 -175.5t45 -248.5q0 -329 -270 -467q63 -36 113 -85t85 -110.5t53.5 -136.5t18.5 -163q0 -159 -58 -279
t-160 -199.5t-241.5 -119.5t-302.5 -40zM922 231q101 0 182 24t137.5 71.5t87 118.5t30.5 165q0 93 -31.5 163t-89.5 116.5t-138.5 70t-177.5 23.5q-170 0 -261 -42q-207 -86 -207 -334q0 -95 31.5 -165.5t89 -117t138 -70t178.5 -23.5h31z" />
    <glyph glyph-name="uni0224" unicode="&#x224;" horiz-adv-x="1799" 
d="M1657 -320h-268v86q0 234 -191 234h-1026v206l1080 1576h-1089v266h1464v-206l-1080 -1576h651q114 0 199.5 -33.5t143.5 -92.5t87 -140.5t29 -178.5v-141z" />
    <glyph glyph-name="uni0225" unicode="&#x225;" horiz-adv-x="1546" 
d="M1438 -338h-260v85q0 253 -200 253h-806v217l821 1060h-825v259h1203v-208l-817 -1069h424q112 0 198 -33.5t144.5 -92.5t88 -140.5t29.5 -178.5v-152z" />
    <glyph glyph-name="uni0226" unicode="&#x226;" horiz-adv-x="1971" 
d="M1901 0h-328l-187 542h-800l-188 -542h-328l737 2048h357zM1296 802l-302 874h-16l-302 -874h620zM986 2285q-80 0 -135 52q-54 52 -54 126q0 76 55 127q55 52 134 52q73 0 131 -50q58 -49 58 -129q0 -76 -57 -127q-56 -51 -132 -51z" />
    <glyph glyph-name="uni0227" unicode="&#x227;" horiz-adv-x="1603" 
d="M648 -34q-102 0 -196 27.5t-165.5 84.5t-114.5 145.5t-43 210.5q0 66 13.5 119t38.5 95.5t59 75.5t76 58q84 51 187.5 75t214.5 36q125 13 200.5 23t117 24.5t55.5 37.5t15 61q0 63 -17.5 114t-53.5 86.5t-91 55t-130 19.5q-73 0 -131.5 -17.5t-103 -47t-75.5 -68.5
t-47 -81l-281 64q41 107 106 181.5t147.5 121.5t179 68t201.5 21q293 0 454 -152q142 -133 142 -384v-1020h-292v210h-12q-27 -59 -85 -114q-139 -130 -369 -130zM713 206q94 -1 167.5 28t124 77.5t76.5 112t26 130.5v198q-38 -29 -144 -48q-43 -8 -84 -14.5t-82 -11.5
l-60 -8q-189 -20 -271 -111q-44 -50 -44 -129q0 -57 22.5 -99.5t61.5 -70t92 -41t115 -13.5zM826 1773q-80 0 -135 52q-54 52 -54 126q0 76 55 127q55 52 134 52q73 0 131 -50q58 -49 58 -129q0 -76 -57 -127q-56 -51 -132 -51z" />
    <glyph glyph-name="uni0228" unicode="&#x228;" horiz-adv-x="1698" 
d="M693 -616l-6 167q105 0 168 31q65 30 66 100q0 58 -48.5 88.5t-161.5 39.5l39 190h-525v2048h1284v-266h-975v-624h908v-265h-908v-627h987v-266h-575l-14 -74q41 -6 80 -21.5t69.5 -44t49 -71t18.5 -102.5q0 -66 -27.5 -121.5t-84 -96t-142.5 -63t-202 -22.5z" />
    <glyph glyph-name="uni0229" unicode="&#x229;" horiz-adv-x="1654" 
d="M673 -616l-6 167q105 0 168 31q65 30 66 100q0 58 -48.5 88.5t-161.5 39.5l35 169q-291 52 -443 261q-151 208 -151 518q0 124 24 230.5t68.5 194t106.5 156t138 116.5q160 101 373 101q84 -1 167 -18.5t159 -55.5t141 -98.5t112.5 -146t74.5 -198t26 -255.5v-106h-1092
q5 -117 39.5 -204t92 -144t135 -85.5t169.5 -28.5q61 0 115.5 13t100 39.5t80.5 68t58 98.5l283 -51q-46 -171 -194 -283q-147 -111 -388 -130l-9 -45q41 -6 80 -21.5t69.5 -44t49 -71t18.5 -102.5q0 -66 -27.5 -121.5t-84 -96t-142.5 -63t-202 -22.5zM1229 902
q-2 90 -29.5 164.5t-77.5 128.5t-120 84t-158 30q-64 0 -118 -15.5t-98.5 -43t-79 -65t-58.5 -80.5q-26 -46 -40.5 -96.5t-18.5 -106.5h798z" />
    </font>
</defs>
</svg>
